  0
SECTION
  2
HEADER
  9
$ACADVER
  1
AC1009
  9
$INSBASE
 10
0.0
 20
0.0
 30
0.0
  9
$EXTMIN
 10
0.0
 20
0.0
 30
0.0
  9
$EXTMAX
 10
100.0
 20
100.0
 30
0.0
  9
$UNITMODE
 70
0
  9
$AUNITS
 70
0
  9
$ANGBASE
 50
0.0
  9
$ANGDIR
 70
0
  0
ENDSEC
  0
SECTION
  2
TABLES
  0
TABLE
  2
LTYPE
 70
19
  0
LTYPE
  2
CONTINUOUS
 70
0
  3
Solid
 72
65
 73
0
 40
0.0
  0
LTYPE
  2
CENTER
 70
0
  3
Center ____ _ ____ _ ____ _ ____ _ ____ _ ____
 72
65
 73
4
 40
2.0
 49
1.25
 49
-0.25
 49
0.25
 49
-0.25
  0
LTYPE
  2
CENTERX2
 70
0
  3
Center (2x) ________  __  ________  __  ________
 72
65
 73
4
 40
3.5
 49
2.5
 49
-0.25
 49
0.5
 49
-0.25
  0
LTYPE
  2
CENTER2
 70
0
  3
Center (.5x) ____ _ ____ _ ____ _ ____ _ ____
 72
65
 73
4
 40
1.0
 49
0.625
 49
-0.125
 49
0.125
 49
-0.125
  0
LTYPE
  2
DASHED
 70
0
  3
Dashed __ __ __ __ __ __ __ __ __ __ __ __ __ _
 72
65
 73
2
 40
0.6
 49
0.5
 49
-0.1
  0
LTYPE
  2
DASHEDX2
 70
0
  3
Dashed (2x) ____  ____  ____  ____  ____  ____
 72
65
 73
2
 40
1.2
 49
1.0
 49
-0.2
  0
LTYPE
  2
DASHED2
 70
0
  3
Dashed (.5x) _ _ _ _ _ _ _ _ _ _ _ _ _ _
 72
65
 73
2
 40
0.3
 49
0.25
 49
-0.05
  0
LTYPE
  2
PHANTOM
 70
0
  3
Phantom ______  __  __  ______  __  __  ______
 72
65
 73
6
 40
2.5
 49
1.25
 49
-0.25
 49
0.25
 49
-0.25
 49
0.25
 49
-0.25
  0
LTYPE
  2
PHANTOMX2
 70
0
  3
Phantom (2x)____________    ____    ____    ____________
 72
65
 73
6
 40
4.25
 49
2.5
 49
-0.25
 49
0.5
 49
-0.25
 49
0.5
 49
-0.25
  0
LTYPE
  2
PHANTOM2
 70
0
  3
Phantom (.5x) ___ _ _ ___ _ _ ___ _ _ ___ _ _ ___
 72
65
 73
6
 40
1.25
 49
0.625
 49
-0.125
 49
0.125
 49
-0.125
 49
0.125
 49
-0.125
  0
LTYPE
  2
DASHDOT
 70
0
  3
Dash dot __ . __ . __ . __ . __ . __ . __ . __
 72
65
 73
4
 40
1.4
 49
1.0
 49
-0.2
 49
0.0
 49
-0.2
  0
LTYPE
  2
DASHDOTX2
 70
0
  3
Dash dot (2x) ____  .  ____  .  ____  .  ____
 72
65
 73
4
 40
2.4
 49
2.0
 49
-0.2
 49
0.0
 49
-0.2
  0
LTYPE
  2
DASHDOT2
 70
0
  3
Dash dot (.5x) _ . _ . _ . _ . _ . _ . _ . _
 72
65
 73
4
 40
0.7
 49
0.5
 49
-0.1
 49
0.0
 49
-0.1
  0
LTYPE
  2
DOT
 70
0
  3
Dot .  .  .  .  .  .  .  .  .  .  .  .  .  .  .  .
 72
65
 73
2
 40
0.2
 49
0.0
 49
-0.2
  0
LTYPE
  2
DOTX2
 70
0
  3
Dot (2x) .    .    .    .    .    .    .    . 
 72
65
 73
2
 40
0.4
 49
0.0
 49
-0.4
  0
LTYPE
  2
DOT2
 70
0
  3
Dot (.5) . . . . . . . . . . . . . . . . . . . 
 72
65
 73
2
 40
0.1
 49
0.0
 49
-0.1
  0
LTYPE
  2
DIVIDE
 70
0
  3
Divide __ . . __ . . __ . . __ . . __ . . __
 72
65
 73
6
 40
1.6
 49
1.0
 49
-0.2
 49
0.0
 49
-0.2
 49
0.0
 49
-0.2
  0
LTYPE
  2
DIVIDEX2
 70
0
  3
Divide (2x) ____  . .  ____  . .  ____  . .  ____
 72
65
 73
6
 40
2.6
 49
2.0
 49
-0.2
 49
0.0
 49
-0.2
 49
0.0
 49
-0.2
  0
LTYPE
  2
DIVIDE2
 70
0
  3
Divide(.5x) _ . _ . _ . _ . _ . _ . _ . _
 72
65
 73
6
 40
0.8
 49
0.5
 49
-0.1
 49
0.0
 49
-0.1
 49
0.0
 49
-0.1
  0
ENDTAB
  0
TABLE
  2
LAYER
 70
5
  0
LAYER
  2
DIMENSIONS
 70
0
 62
1
  6
CONTINUOUS
  0
LAYER
  2
TABLEBACKGROUND
 70
0
 62
1
  6
CONTINUOUS
  0
LAYER
  2
TABLECONTENT
 70
0
 62
1
  6
CONTINUOUS
  0
LAYER
  2
TABLEGRID
 70
0
 62
1
  6
CONTINUOUS
  0
LAYER
  2
VIEWPORTS
 70
0
 62
7
  6
CONTINUOUS
  0
ENDTAB
  0
TABLE
  2
STYLE
 70
12
  0
STYLE
  2
STANDARD
 70
0
 40
0.0
 41
1.0
 42
1.0
 50
0.0
 71
0
  3
arial.ttf
  4

  0
STYLE
  2
ARIAL
 70
0
 40
0.0
 41
1.0
 42
1.0
 50
0.0
 71
0
  3
arial.ttf
  4

  0
STYLE
  2
ARIAL_BOLD
 70
0
 40
0.0
 41
1.0
 42
1.0
 50
0.0
 71
0
  3
arialbd.ttf
  4

  0
STYLE
  2
ARIAL_ITALIC
 70
0
 40
0.0
 41
1.0
 42
1.0
 50
0.0
 71
0
  3
ariali.ttf
  4

  0
STYLE
  2
ARIAL_BOLD_ITALIC
 70
0
 40
0.0
 41
1.0
 42
1.0
 50
0.0
 71
0
  3
arialbi.ttf
  4

  0
STYLE
  2
ARIAL_BLACK
 70
0
 40
0.0
 41
1.0
 42
1.0
 50
0.0
 71
0
  3
ariblk.ttf
  4

  0
STYLE
  2
ISOCPEUR
 70
0
 40
0.0
 41
1.0
 42
1.0
 50
0.0
 71
0
  3
isocpeur.ttf
  4

  0
STYLE
  2
ISOCPEUR_ITALIC
 70
0
 40
0.0
 41
1.0
 42
1.0
 50
0.0
 71
0
  3
isocpeui.ttf
  4

  0
STYLE
  2
TIMES
 70
0
 40
0.0
 41
1.0
 42
1.0
 50
0.0
 71
0
  3
times.ttf
  4

  0
STYLE
  2
TIMES_BOLD
 70
0
 40
0.0
 41
1.0
 42
1.0
 50
0.0
 71
0
  3
timesbd.ttf
  4

  0
STYLE
  2
TIMES_ITALIC
 70
0
 40
0.0
 41
1.0
 42
1.0
 50
0.0
 71
0
  3
timesi.ttf
  4

  0
STYLE
  2
TIMES_BOLD_ITALIC
 70
0
 40
0.0
 41
1.0
 42
1.0
 50
0.0
 71
0
  3
timesbi.ttf
  4

  0
ENDTAB
  0
TABLE
  2
VIEW
 70
0
  0
ENDTAB
  0
TABLE
  2
APPID
 70
1
  0
APPID
  2
DXFWRITE
 70
0
  0
ENDTAB
  0
TABLE
  2
VPORT
 70
0
  0
ENDTAB
  0
TABLE
  2
UCS
 70
0
  0
ENDTAB
  0
ENDSEC
  0
SECTION
  2
BLOCKS
  0
ENDSEC
  0
SECTION
  2
ENTITIES
  0
VIEWPORT
  8
VIEWPORTS
 67
1
 10
0.0
 20
0.0
 30
0.0
 40
1.0
 41
1.0
 68
1
 69
1
1001
ACAD
1000
MVIEW
1002
{
1070
16
1010
0.0
1020
0.0
1030
0.0
1010
0.0
1020
0.0
1030
0.0
1040
0.0
1040
1.0
1040
0.0
1040
0.0
1040
50.0
1040
0.0
1040
0.0
1070
0
1070
100
1070
1
1070
3
1070
0
1070
0
1070
0
1070
0
1040
0.0
1040
0.0
1040
0.0
1040
0.1
1040
0.1
1040
0.1
1040
0.1
1070
0
1002
{
1002
}
1002
}
  0
CIRCLE
  8
0
 10
255.60999999999999
 20
-3.8999999999999995
 30
0.0
 40
1.0
  0
CIRCLE
  8
0
 10
247.78
 20
-8.25
 30
0.0
 40
1.0
  0
CIRCLE
  8
0
 10
239.95
 20
-12.599999999999998
 30
0.0
 40
1.0
  0
CIRCLE
  8
0
 10
255.60999999999999
 20
-12.599999999999998
 30
0.0
 40
1.0
  0
CIRCLE
  8
0
 10
153.82000000000002
 20
-16.95
 30
0.0
 40
1.0
  0
CIRCLE
  8
0
 10
169.48000000000002
 20
-16.95
 30
0.0
 40
1.0
  0
CIRCLE
  8
0
 10
232.12
 20
-16.95
 30
0.0
 40
1.0
  0
CIRCLE
  8
0
 10
247.78
 20
-16.95
 30
0.0
 40
1.0
  0
CIRCLE
  8
0
 10
20.709999999999997
 20
-21.299999999999997
 30
0.0
 40
1.0
  0
CIRCLE
  8
0
 10
99.00999999999999
 20
-21.299999999999997
 30
0.0
 40
1.0
  0
CIRCLE
  8
0
 10
114.66999999999999
 20
-21.299999999999997
 30
0.0
 40
1.0
  0
CIRCLE
  8
0
 10
177.31
 20
-21.299999999999997
 30
0.0
 40
1.0
  0
CIRCLE
  8
0
 10
239.95
 20
-21.299999999999997
 30
0.0
 40
1.0
  0
CIRCLE
  8
0
 10
255.60999999999999
 20
-21.299999999999997
 30
0.0
 40
1.0
  0
CIRCLE
  8
0
 10
12.879999999999999
 20
-25.649999999999995
 30
0.0
 40
1.0
  0
CIRCLE
  8
0
 10
153.82000000000002
 20
-25.649999999999995
 30
0.0
 40
1.0
  0
CIRCLE
  8
0
 10
169.48000000000002
 20
-25.649999999999995
 30
0.0
 40
1.0
  0
CIRCLE
  8
0
 10
232.12
 20
-25.649999999999995
 30
0.0
 40
1.0
  0
CIRCLE
  8
0
 10
247.78
 20
-25.649999999999995
 30
0.0
 40
1.0
  0
CIRCLE
  8
0
 10
20.709999999999997
 20
-29.999999999999996
 30
0.0
 40
1.0
  0
CIRCLE
  8
0
 10
99.00999999999999
 20
-29.999999999999996
 30
0.0
 40
1.0
  0
CIRCLE
  8
0
 10
114.66999999999999
 20
-29.999999999999996
 30
0.0
 40
1.0
  0
CIRCLE
  8
0
 10
161.65
 20
-29.999999999999996
 30
0.0
 40
1.0
  0
CIRCLE
  8
0
 10
177.31
 20
-29.999999999999996
 30
0.0
 40
1.0
  0
CIRCLE
  8
0
 10
239.95
 20
-29.999999999999996
 30
0.0
 40
1.0
  0
CIRCLE
  8
0
 10
255.60999999999999
 20
-29.999999999999996
 30
0.0
 40
1.0
  0
CIRCLE
  8
0
 10
349.57
 20
-29.999999999999996
 30
0.0
 40
1.0
  0
CIRCLE
  8
0
 10
12.879999999999999
 20
-34.35
 30
0.0
 40
1.0
  0
CIRCLE
  8
0
 10
91.17999999999999
 20
-34.35
 30
0.0
 40
1.0
  0
CIRCLE
  8
0
 10
153.82000000000002
 20
-34.35
 30
0.0
 40
1.0
  0
CIRCLE
  8
0
 10
169.48000000000002
 20
-34.35
 30
0.0
 40
1.0
  0
CIRCLE
  8
0
 10
185.14000000000001
 20
-34.35
 30
0.0
 40
1.0
  0
CIRCLE
  8
0
 10
232.12
 20
-34.35
 30
0.0
 40
1.0
  0
CIRCLE
  8
0
 10
247.78
 20
-34.35
 30
0.0
 40
1.0
  0
CIRCLE
  8
0
 10
310.41999999999996
 20
-34.35
 30
0.0
 40
1.0
  0
CIRCLE
  8
0
 10
341.73999999999995
 20
-34.35
 30
0.0
 40
1.0
  0
CIRCLE
  8
0
 10
357.4
 20
-34.35
 30
0.0
 40
1.0
  0
CIRCLE
  8
0
 10
20.709999999999997
 20
-38.7
 30
0.0
 40
1.0
  0
CIRCLE
  8
0
 10
99.00999999999999
 20
-38.7
 30
0.0
 40
1.0
  0
CIRCLE
  8
0
 10
114.66999999999999
 20
-38.7
 30
0.0
 40
1.0
  0
CIRCLE
  8
0
 10
161.65
 20
-38.7
 30
0.0
 40
1.0
  0
CIRCLE
  8
0
 10
177.31
 20
-38.7
 30
0.0
 40
1.0
  0
CIRCLE
  8
0
 10
224.29
 20
-38.7
 30
0.0
 40
1.0
  0
CIRCLE
  8
0
 10
239.95
 20
-38.7
 30
0.0
 40
1.0
  0
CIRCLE
  8
0
 10
302.59
 20
-38.7
 30
0.0
 40
1.0
  0
CIRCLE
  8
0
 10
318.25
 20
-38.7
 30
0.0
 40
1.0
  0
CIRCLE
  8
0
 10
333.90999999999997
 20
-38.7
 30
0.0
 40
1.0
  0
CIRCLE
  8
0
 10
349.57
 20
-38.7
 30
0.0
 40
1.0
  0
CIRCLE
  8
0
 10
365.22999999999996
 20
-38.7
 30
0.0
 40
1.0
  0
CIRCLE
  8
0
 10
12.879999999999999
 20
-43.05
 30
0.0
 40
1.0
  0
CIRCLE
  8
0
 10
91.17999999999999
 20
-43.05
 30
0.0
 40
1.0
  0
CIRCLE
  8
0
 10
106.83999999999999
 20
-43.05
 30
0.0
 40
1.0
  0
CIRCLE
  8
0
 10
153.82000000000002
 20
-43.05
 30
0.0
 40
1.0
  0
CIRCLE
  8
0
 10
185.14000000000001
 20
-43.05
 30
0.0
 40
1.0
  0
CIRCLE
  8
0
 10
232.12
 20
-43.05
 30
0.0
 40
1.0
  0
CIRCLE
  8
0
 10
279.09999999999997
 20
-43.05
 30
0.0
 40
1.0
  0
CIRCLE
  8
0
 10
294.76
 20
-43.05
 30
0.0
 40
1.0
  0
CIRCLE
  8
0
 10
310.41999999999996
 20
-43.05
 30
0.0
 40
1.0
  0
CIRCLE
  8
0
 10
326.08
 20
-43.05
 30
0.0
 40
1.0
  0
CIRCLE
  8
0
 10
341.73999999999995
 20
-43.05
 30
0.0
 40
1.0
  0
CIRCLE
  8
0
 10
357.4
 20
-43.05
 30
0.0
 40
1.0
  0
CIRCLE
  8
0
 10
20.709999999999997
 20
-47.4
 30
0.0
 40
1.0
  0
CIRCLE
  8
0
 10
99.00999999999999
 20
-47.4
 30
0.0
 40
1.0
  0
CIRCLE
  8
0
 10
114.66999999999999
 20
-47.4
 30
0.0
 40
1.0
  0
CIRCLE
  8
0
 10
161.65
 20
-47.4
 30
0.0
 40
1.0
  0
CIRCLE
  8
0
 10
177.31
 20
-47.4
 30
0.0
 40
1.0
  0
CIRCLE
  8
0
 10
192.97
 20
-47.4
 30
0.0
 40
1.0
  0
CIRCLE
  8
0
 10
224.29
 20
-47.4
 30
0.0
 40
1.0
  0
CIRCLE
  8
0
 10
239.95
 20
-47.4
 30
0.0
 40
1.0
  0
CIRCLE
  8
0
 10
286.93
 20
-47.4
 30
0.0
 40
1.0
  0
CIRCLE
  8
0
 10
302.59
 20
-47.4
 30
0.0
 40
1.0
  0
CIRCLE
  8
0
 10
318.25
 20
-47.4
 30
0.0
 40
1.0
  0
CIRCLE
  8
0
 10
333.90999999999997
 20
-47.4
 30
0.0
 40
1.0
  0
CIRCLE
  8
0
 10
365.22999999999996
 20
-47.4
 30
0.0
 40
1.0
  0
CIRCLE
  8
0
 10
28.539999999999996
 20
-51.75
 30
0.0
 40
1.0
  0
CIRCLE
  8
0
 10
91.17999999999999
 20
-51.75
 30
0.0
 40
1.0
  0
CIRCLE
  8
0
 10
106.83999999999999
 20
-51.75
 30
0.0
 40
1.0
  0
CIRCLE
  8
0
 10
153.82000000000002
 20
-51.75
 30
0.0
 40
1.0
  0
CIRCLE
  8
0
 10
185.14000000000001
 20
-51.75
 30
0.0
 40
1.0
  0
CIRCLE
  8
0
 10
232.12
 20
-51.75
 30
0.0
 40
1.0
  0
CIRCLE
  8
0
 10
279.09999999999997
 20
-51.75
 30
0.0
 40
1.0
  0
CIRCLE
  8
0
 10
294.76
 20
-51.75
 30
0.0
 40
1.0
  0
CIRCLE
  8
0
 10
310.41999999999996
 20
-51.75
 30
0.0
 40
1.0
  0
CIRCLE
  8
0
 10
326.08
 20
-51.75
 30
0.0
 40
1.0
  0
CIRCLE
  8
0
 10
20.709999999999997
 20
-56.099999999999994
 30
0.0
 40
1.0
  0
CIRCLE
  8
0
 10
114.66999999999999
 20
-56.099999999999994
 30
0.0
 40
1.0
  0
CIRCLE
  8
0
 10
161.65
 20
-56.099999999999994
 30
0.0
 40
1.0
  0
CIRCLE
  8
0
 10
177.31
 20
-56.099999999999994
 30
0.0
 40
1.0
  0
CIRCLE
  8
0
 10
192.97
 20
-56.099999999999994
 30
0.0
 40
1.0
  0
CIRCLE
  8
0
 10
224.29
 20
-56.099999999999994
 30
0.0
 40
1.0
  0
CIRCLE
  8
0
 10
271.27
 20
-56.099999999999994
 30
0.0
 40
1.0
  0
CIRCLE
  8
0
 10
286.93
 20
-56.099999999999994
 30
0.0
 40
1.0
  0
CIRCLE
  8
0
 10
302.59
 20
-56.099999999999994
 30
0.0
 40
1.0
  0
CIRCLE
  8
0
 10
318.25
 20
-56.099999999999994
 30
0.0
 40
1.0
  0
CIRCLE
  8
0
 10
333.90999999999997
 20
-56.099999999999994
 30
0.0
 40
1.0
  0
CIRCLE
  8
0
 10
365.22999999999996
 20
-56.099999999999994
 30
0.0
 40
1.0
  0
CIRCLE
  8
0
 10
28.539999999999996
 20
-60.45
 30
0.0
 40
1.0
  0
CIRCLE
  8
0
 10
91.17999999999999
 20
-60.45
 30
0.0
 40
1.0
  0
CIRCLE
  8
0
 10
106.83999999999999
 20
-60.45
 30
0.0
 40
1.0
  0
CIRCLE
  8
0
 10
153.82000000000002
 20
-60.45
 30
0.0
 40
1.0
  0
CIRCLE
  8
0
 10
185.14000000000001
 20
-60.45
 30
0.0
 40
1.0
  0
CIRCLE
  8
0
 10
216.46
 20
-60.45
 30
0.0
 40
1.0
  0
CIRCLE
  8
0
 10
232.12
 20
-60.45
 30
0.0
 40
1.0
  0
CIRCLE
  8
0
 10
263.44
 20
-60.45
 30
0.0
 40
1.0
  0
CIRCLE
  8
0
 10
279.09999999999997
 20
-60.45
 30
0.0
 40
1.0
  0
CIRCLE
  8
0
 10
294.76
 20
-60.45
 30
0.0
 40
1.0
  0
CIRCLE
  8
0
 10
310.41999999999996
 20
-60.45
 30
0.0
 40
1.0
  0
CIRCLE
  8
0
 10
326.08
 20
-60.45
 30
0.0
 40
1.0
  0
CIRCLE
  8
0
 10
341.73999999999995
 20
-60.45
 30
0.0
 40
1.0
  0
CIRCLE
  8
0
 10
20.709999999999997
 20
-64.8
 30
0.0
 40
1.0
  0
CIRCLE
  8
0
 10
83.35
 20
-64.8
 30
0.0
 40
1.0
  0
CIRCLE
  8
0
 10
114.66999999999999
 20
-64.8
 30
0.0
 40
1.0
  0
CIRCLE
  8
0
 10
161.65
 20
-64.8
 30
0.0
 40
1.0
  0
CIRCLE
  8
0
 10
192.97
 20
-64.8
 30
0.0
 40
1.0
  0
CIRCLE
  8
0
 10
224.29
 20
-64.8
 30
0.0
 40
1.0
  0
CIRCLE
  8
0
 10
271.27
 20
-64.8
 30
0.0
 40
1.0
  0
CIRCLE
  8
0
 10
302.59
 20
-64.8
 30
0.0
 40
1.0
  0
CIRCLE
  8
0
 10
318.25
 20
-64.8
 30
0.0
 40
1.0
  0
CIRCLE
  8
0
 10
333.90999999999997
 20
-64.8
 30
0.0
 40
1.0
  0
CIRCLE
  8
0
 10
365.22999999999996
 20
-64.8
 30
0.0
 40
1.0
  0
CIRCLE
  8
0
 10
28.539999999999996
 20
-69.14999999999999
 30
0.0
 40
1.0
  0
CIRCLE
  8
0
 10
91.17999999999999
 20
-69.14999999999999
 30
0.0
 40
1.0
  0
CIRCLE
  8
0
 10
106.83999999999999
 20
-69.14999999999999
 30
0.0
 40
1.0
  0
CIRCLE
  8
0
 10
153.82000000000002
 20
-69.14999999999999
 30
0.0
 40
1.0
  0
CIRCLE
  8
0
 10
185.14000000000001
 20
-69.14999999999999
 30
0.0
 40
1.0
  0
CIRCLE
  8
0
 10
200.8
 20
-69.14999999999999
 30
0.0
 40
1.0
  0
CIRCLE
  8
0
 10
216.46
 20
-69.14999999999999
 30
0.0
 40
1.0
  0
CIRCLE
  8
0
 10
279.09999999999997
 20
-69.14999999999999
 30
0.0
 40
1.0
  0
CIRCLE
  8
0
 10
326.08
 20
-69.14999999999999
 30
0.0
 40
1.0
  0
CIRCLE
  8
0
 10
20.709999999999997
 20
-73.5
 30
0.0
 40
1.0
  0
CIRCLE
  8
0
 10
83.35
 20
-73.5
 30
0.0
 40
1.0
  0
CIRCLE
  8
0
 10
114.66999999999999
 20
-73.5
 30
0.0
 40
1.0
  0
CIRCLE
  8
0
 10
161.65
 20
-73.5
 30
0.0
 40
1.0
  0
CIRCLE
  8
0
 10
192.97
 20
-73.5
 30
0.0
 40
1.0
  0
CIRCLE
  8
0
 10
208.63
 20
-73.5
 30
0.0
 40
1.0
  0
CIRCLE
  8
0
 10
224.29
 20
-73.5
 30
0.0
 40
1.0
  0
CIRCLE
  8
0
 10
271.27
 20
-73.5
 30
0.0
 40
1.0
  0
CIRCLE
  8
0
 10
318.25
 20
-73.5
 30
0.0
 40
1.0
  0
CIRCLE
  8
0
 10
365.22999999999996
 20
-73.5
 30
0.0
 40
1.0
  0
CIRCLE
  8
0
 10
28.539999999999996
 20
-77.85
 30
0.0
 40
1.0
  0
CIRCLE
  8
0
 10
91.17999999999999
 20
-77.85
 30
0.0
 40
1.0
  0
CIRCLE
  8
0
 10
106.83999999999999
 20
-77.85
 30
0.0
 40
1.0
  0
CIRCLE
  8
0
 10
153.82000000000002
 20
-77.85
 30
0.0
 40
1.0
  0
CIRCLE
  8
0
 10
169.48000000000002
 20
-77.85
 30
0.0
 40
1.0
  0
CIRCLE
  8
0
 10
200.8
 20
-77.85
 30
0.0
 40
1.0
  0
CIRCLE
  8
0
 10
216.46
 20
-77.85
 30
0.0
 40
1.0
  0
CIRCLE
  8
0
 10
357.4
 20
-77.85
 30
0.0
 40
1.0
  0
CIRCLE
  8
0
 10
20.709999999999997
 20
-82.2
 30
0.0
 40
1.0
  0
CIRCLE
  8
0
 10
52.029999999999994
 20
-82.2
 30
0.0
 40
1.0
  0
CIRCLE
  8
0
 10
83.35
 20
-82.2
 30
0.0
 40
1.0
  0
CIRCLE
  8
0
 10
114.66999999999999
 20
-82.2
 30
0.0
 40
1.0
  0
CIRCLE
  8
0
 10
145.99
 20
-82.2
 30
0.0
 40
1.0
  0
CIRCLE
  8
0
 10
161.65
 20
-82.2
 30
0.0
 40
1.0
  0
CIRCLE
  8
0
 10
192.97
 20
-82.2
 30
0.0
 40
1.0
  0
CIRCLE
  8
0
 10
208.63
 20
-82.2
 30
0.0
 40
1.0
  0
CIRCLE
  8
0
 10
224.29
 20
-82.2
 30
0.0
 40
1.0
  0
CIRCLE
  8
0
 10
271.27
 20
-82.2
 30
0.0
 40
1.0
  0
CIRCLE
  8
0
 10
318.25
 20
-82.2
 30
0.0
 40
1.0
  0
CIRCLE
  8
0
 10
365.22999999999996
 20
-82.2
 30
0.0
 40
1.0
  0
CIRCLE
  8
0
 10
28.539999999999996
 20
-86.55
 30
0.0
 40
1.0
  0
CIRCLE
  8
0
 10
59.85999999999999
 20
-86.55
 30
0.0
 40
1.0
  0
CIRCLE
  8
0
 10
91.17999999999999
 20
-86.55
 30
0.0
 40
1.0
  0
CIRCLE
  8
0
 10
106.83999999999999
 20
-86.55
 30
0.0
 40
1.0
  0
CIRCLE
  8
0
 10
122.49999999999999
 20
-86.55
 30
0.0
 40
1.0
  0
CIRCLE
  8
0
 10
138.16
 20
-86.55
 30
0.0
 40
1.0
  0
CIRCLE
  8
0
 10
153.82000000000002
 20
-86.55
 30
0.0
 40
1.0
  0
CIRCLE
  8
0
 10
169.48000000000002
 20
-86.55
 30
0.0
 40
1.0
  0
CIRCLE
  8
0
 10
200.8
 20
-86.55
 30
0.0
 40
1.0
  0
CIRCLE
  8
0
 10
216.46
 20
-86.55
 30
0.0
 40
1.0
  0
CIRCLE
  8
0
 10
279.09999999999997
 20
-86.55
 30
0.0
 40
1.0
  0
CIRCLE
  8
0
 10
294.76
 20
-86.55
 30
0.0
 40
1.0
  0
CIRCLE
  8
0
 10
357.4
 20
-86.55
 30
0.0
 40
1.0
  0
CIRCLE
  8
0
 10
20.709999999999997
 20
-90.89999999999999
 30
0.0
 40
1.0
  0
CIRCLE
  8
0
 10
36.37
 20
-90.89999999999999
 30
0.0
 40
1.0
  0
CIRCLE
  8
0
 10
52.029999999999994
 20
-90.89999999999999
 30
0.0
 40
1.0
  0
CIRCLE
  8
0
 10
83.35
 20
-90.89999999999999
 30
0.0
 40
1.0
  0
CIRCLE
  8
0
 10
114.66999999999999
 20
-90.89999999999999
 30
0.0
 40
1.0
  0
CIRCLE
  8
0
 10
130.32999999999998
 20
-90.89999999999999
 30
0.0
 40
1.0
  0
CIRCLE
  8
0
 10
145.99
 20
-90.89999999999999
 30
0.0
 40
1.0
  0
CIRCLE
  8
0
 10
161.65
 20
-90.89999999999999
 30
0.0
 40
1.0
  0
CIRCLE
  8
0
 10
208.63
 20
-90.89999999999999
 30
0.0
 40
1.0
  0
CIRCLE
  8
0
 10
271.27
 20
-90.89999999999999
 30
0.0
 40
1.0
  0
CIRCLE
  8
0
 10
286.93
 20
-90.89999999999999
 30
0.0
 40
1.0
  0
CIRCLE
  8
0
 10
318.25
 20
-90.89999999999999
 30
0.0
 40
1.0
  0
CIRCLE
  8
0
 10
365.22999999999996
 20
-90.89999999999999
 30
0.0
 40
1.0
  0
CIRCLE
  8
0
 10
28.539999999999996
 20
-95.25
 30
0.0
 40
1.0
  0
CIRCLE
  8
0
 10
44.199999999999996
 20
-95.25
 30
0.0
 40
1.0
  0
CIRCLE
  8
0
 10
59.85999999999999
 20
-95.25
 30
0.0
 40
1.0
  0
CIRCLE
  8
0
 10
106.83999999999999
 20
-95.25
 30
0.0
 40
1.0
  0
CIRCLE
  8
0
 10
122.49999999999999
 20
-95.25
 30
0.0
 40
1.0
  0
CIRCLE
  8
0
 10
138.16
 20
-95.25
 30
0.0
 40
1.0
  0
CIRCLE
  8
0
 10
153.82000000000002
 20
-95.25
 30
0.0
 40
1.0
  0
CIRCLE
  8
0
 10
169.48000000000002
 20
-95.25
 30
0.0
 40
1.0
  0
CIRCLE
  8
0
 10
200.8
 20
-95.25
 30
0.0
 40
1.0
  0
CIRCLE
  8
0
 10
216.46
 20
-95.25
 30
0.0
 40
1.0
  0
CIRCLE
  8
0
 10
279.09999999999997
 20
-95.25
 30
0.0
 40
1.0
  0
CIRCLE
  8
0
 10
294.76
 20
-95.25
 30
0.0
 40
1.0
  0
CIRCLE
  8
0
 10
357.4
 20
-95.25
 30
0.0
 40
1.0
  0
CIRCLE
  8
0
 10
20.709999999999997
 20
-99.6
 30
0.0
 40
1.0
  0
CIRCLE
  8
0
 10
36.37
 20
-99.6
 30
0.0
 40
1.0
  0
CIRCLE
  8
0
 10
52.029999999999994
 20
-99.6
 30
0.0
 40
1.0
  0
CIRCLE
  8
0
 10
67.69
 20
-99.6
 30
0.0
 40
1.0
  0
CIRCLE
  8
0
 10
83.35
 20
-99.6
 30
0.0
 40
1.0
  0
CIRCLE
  8
0
 10
114.66999999999999
 20
-99.6
 30
0.0
 40
1.0
  0
CIRCLE
  8
0
 10
145.99
 20
-99.6
 30
0.0
 40
1.0
  0
CIRCLE
  8
0
 10
161.65
 20
-99.6
 30
0.0
 40
1.0
  0
CIRCLE
  8
0
 10
208.63
 20
-99.6
 30
0.0
 40
1.0
  0
CIRCLE
  8
0
 10
286.93
 20
-99.6
 30
0.0
 40
1.0
  0
CIRCLE
  8
0
 10
302.59
 20
-99.6
 30
0.0
 40
1.0
  0
CIRCLE
  8
0
 10
318.25
 20
-99.6
 30
0.0
 40
1.0
  0
CIRCLE
  8
0
 10
28.539999999999996
 20
-103.94999999999999
 30
0.0
 40
1.0
  0
CIRCLE
  8
0
 10
44.199999999999996
 20
-103.94999999999999
 30
0.0
 40
1.0
  0
CIRCLE
  8
0
 10
59.85999999999999
 20
-103.94999999999999
 30
0.0
 40
1.0
  0
CIRCLE
  8
0
 10
75.52
 20
-103.94999999999999
 30
0.0
 40
1.0
  0
CIRCLE
  8
0
 10
106.83999999999999
 20
-103.94999999999999
 30
0.0
 40
1.0
  0
CIRCLE
  8
0
 10
153.82000000000002
 20
-103.94999999999999
 30
0.0
 40
1.0
  0
CIRCLE
  8
0
 10
169.48000000000002
 20
-103.94999999999999
 30
0.0
 40
1.0
  0
CIRCLE
  8
0
 10
200.8
 20
-103.94999999999999
 30
0.0
 40
1.0
  0
CIRCLE
  8
0
 10
216.46
 20
-103.94999999999999
 30
0.0
 40
1.0
  0
CIRCLE
  8
0
 10
294.76
 20
-103.94999999999999
 30
0.0
 40
1.0
  0
CIRCLE
  8
0
 10
326.08
 20
-103.94999999999999
 30
0.0
 40
1.0
  0
CIRCLE
  8
0
 10
357.4
 20
-103.94999999999999
 30
0.0
 40
1.0
  0
CIRCLE
  8
0
 10
639.28
 20
-103.94999999999999
 30
0.0
 40
1.0
  0
CIRCLE
  8
0
 10
36.37
 20
-108.3
 30
0.0
 40
1.0
  0
CIRCLE
  8
0
 10
52.029999999999994
 20
-108.3
 30
0.0
 40
1.0
  0
CIRCLE
  8
0
 10
67.69
 20
-108.3
 30
0.0
 40
1.0
  0
CIRCLE
  8
0
 10
83.35
 20
-108.3
 30
0.0
 40
1.0
  0
CIRCLE
  8
0
 10
114.66999999999999
 20
-108.3
 30
0.0
 40
1.0
  0
CIRCLE
  8
0
 10
145.99
 20
-108.3
 30
0.0
 40
1.0
  0
CIRCLE
  8
0
 10
161.65
 20
-108.3
 30
0.0
 40
1.0
  0
CIRCLE
  8
0
 10
208.63
 20
-108.3
 30
0.0
 40
1.0
  0
CIRCLE
  8
0
 10
302.59
 20
-108.3
 30
0.0
 40
1.0
  0
CIRCLE
  8
0
 10
318.25
 20
-108.3
 30
0.0
 40
1.0
  0
CIRCLE
  8
0
 10
615.7899999999998
 20
-108.3
 30
0.0
 40
1.0
  0
CIRCLE
  8
0
 10
631.4499999999999
 20
-108.3
 30
0.0
 40
1.0
  0
CIRCLE
  8
0
 10
647.1099999999999
 20
-108.3
 30
0.0
 40
1.0
  0
CIRCLE
  8
0
 10
28.539999999999996
 20
-112.64999999999999
 30
0.0
 40
1.0
  0
CIRCLE
  8
0
 10
44.199999999999996
 20
-112.64999999999999
 30
0.0
 40
1.0
  0
CIRCLE
  8
0
 10
59.85999999999999
 20
-112.64999999999999
 30
0.0
 40
1.0
  0
CIRCLE
  8
0
 10
75.52
 20
-112.64999999999999
 30
0.0
 40
1.0
  0
CIRCLE
  8
0
 10
106.83999999999999
 20
-112.64999999999999
 30
0.0
 40
1.0
  0
CIRCLE
  8
0
 10
153.82000000000002
 20
-112.64999999999999
 30
0.0
 40
1.0
  0
CIRCLE
  8
0
 10
169.48000000000002
 20
-112.64999999999999
 30
0.0
 40
1.0
  0
CIRCLE
  8
0
 10
200.8
 20
-112.64999999999999
 30
0.0
 40
1.0
  0
CIRCLE
  8
0
 10
216.46
 20
-112.64999999999999
 30
0.0
 40
1.0
  0
CIRCLE
  8
0
 10
294.76
 20
-112.64999999999999
 30
0.0
 40
1.0
  0
CIRCLE
  8
0
 10
326.08
 20
-112.64999999999999
 30
0.0
 40
1.0
  0
CIRCLE
  8
0
 10
357.4
 20
-112.64999999999999
 30
0.0
 40
1.0
  0
CIRCLE
  8
0
 10
607.9599999999999
 20
-112.64999999999999
 30
0.0
 40
1.0
  0
CIRCLE
  8
0
 10
623.6199999999999
 20
-112.64999999999999
 30
0.0
 40
1.0
  0
CIRCLE
  8
0
 10
639.28
 20
-112.64999999999999
 30
0.0
 40
1.0
  0
CIRCLE
  8
0
 10
654.9399999999999
 20
-112.64999999999999
 30
0.0
 40
1.0
  0
CIRCLE
  8
0
 10
36.37
 20
-116.99999999999999
 30
0.0
 40
1.0
  0
CIRCLE
  8
0
 10
52.029999999999994
 20
-116.99999999999999
 30
0.0
 40
1.0
  0
CIRCLE
  8
0
 10
67.69
 20
-116.99999999999999
 30
0.0
 40
1.0
  0
CIRCLE
  8
0
 10
83.35
 20
-116.99999999999999
 30
0.0
 40
1.0
  0
CIRCLE
  8
0
 10
114.66999999999999
 20
-116.99999999999999
 30
0.0
 40
1.0
  0
CIRCLE
  8
0
 10
145.99
 20
-116.99999999999999
 30
0.0
 40
1.0
  0
CIRCLE
  8
0
 10
161.65
 20
-116.99999999999999
 30
0.0
 40
1.0
  0
CIRCLE
  8
0
 10
208.63
 20
-116.99999999999999
 30
0.0
 40
1.0
  0
CIRCLE
  8
0
 10
302.59
 20
-116.99999999999999
 30
0.0
 40
1.0
  0
CIRCLE
  8
0
 10
318.25
 20
-116.99999999999999
 30
0.0
 40
1.0
  0
CIRCLE
  8
0
 10
333.90999999999997
 20
-116.99999999999999
 30
0.0
 40
1.0
  0
CIRCLE
  8
0
 10
349.57
 20
-116.99999999999999
 30
0.0
 40
1.0
  0
CIRCLE
  8
0
 10
600.1299999999999
 20
-116.99999999999999
 30
0.0
 40
1.0
  0
CIRCLE
  8
0
 10
615.7899999999998
 20
-116.99999999999999
 30
0.0
 40
1.0
  0
CIRCLE
  8
0
 10
631.4499999999999
 20
-116.99999999999999
 30
0.0
 40
1.0
  0
CIRCLE
  8
0
 10
647.1099999999999
 20
-116.99999999999999
 30
0.0
 40
1.0
  0
CIRCLE
  8
0
 10
662.7699999999999
 20
-116.99999999999999
 30
0.0
 40
1.0
  0
CIRCLE
  8
0
 10
28.539999999999996
 20
-121.35
 30
0.0
 40
1.0
  0
CIRCLE
  8
0
 10
44.199999999999996
 20
-121.35
 30
0.0
 40
1.0
  0
CIRCLE
  8
0
 10
75.52
 20
-121.35
 30
0.0
 40
1.0
  0
CIRCLE
  8
0
 10
106.83999999999999
 20
-121.35
 30
0.0
 40
1.0
  0
CIRCLE
  8
0
 10
153.82000000000002
 20
-121.35
 30
0.0
 40
1.0
  0
CIRCLE
  8
0
 10
169.48000000000002
 20
-121.35
 30
0.0
 40
1.0
  0
CIRCLE
  8
0
 10
200.8
 20
-121.35
 30
0.0
 40
1.0
  0
CIRCLE
  8
0
 10
294.76
 20
-121.35
 30
0.0
 40
1.0
  0
CIRCLE
  8
0
 10
310.41999999999996
 20
-121.35
 30
0.0
 40
1.0
  0
CIRCLE
  8
0
 10
326.08
 20
-121.35
 30
0.0
 40
1.0
  0
CIRCLE
  8
0
 10
357.4
 20
-121.35
 30
0.0
 40
1.0
  0
CIRCLE
  8
0
 10
592.3
 20
-121.35
 30
0.0
 40
1.0
  0
CIRCLE
  8
0
 10
607.9599999999999
 20
-121.35
 30
0.0
 40
1.0
  0
CIRCLE
  8
0
 10
623.6199999999999
 20
-121.35
 30
0.0
 40
1.0
  0
CIRCLE
  8
0
 10
639.28
 20
-121.35
 30
0.0
 40
1.0
  0
CIRCLE
  8
0
 10
654.9399999999999
 20
-121.35
 30
0.0
 40
1.0
  0
CIRCLE
  8
0
 10
670.5999999999999
 20
-121.35
 30
0.0
 40
1.0
  0
CIRCLE
  8
0
 10
36.37
 20
-125.7
 30
0.0
 40
1.0
  0
CIRCLE
  8
0
 10
67.69
 20
-125.7
 30
0.0
 40
1.0
  0
CIRCLE
  8
0
 10
83.35
 20
-125.7
 30
0.0
 40
1.0
  0
CIRCLE
  8
0
 10
114.66999999999999
 20
-125.7
 30
0.0
 40
1.0
  0
CIRCLE
  8
0
 10
161.65
 20
-125.7
 30
0.0
 40
1.0
  0
CIRCLE
  8
0
 10
208.63
 20
-125.7
 30
0.0
 40
1.0
  0
CIRCLE
  8
0
 10
271.27
 20
-125.7
 30
0.0
 40
1.0
  0
CIRCLE
  8
0
 10
302.59
 20
-125.7
 30
0.0
 40
1.0
  0
CIRCLE
  8
0
 10
318.25
 20
-125.7
 30
0.0
 40
1.0
  0
CIRCLE
  8
0
 10
333.90999999999997
 20
-125.7
 30
0.0
 40
1.0
  0
CIRCLE
  8
0
 10
349.57
 20
-125.7
 30
0.0
 40
1.0
  0
CIRCLE
  8
0
 10
600.1299999999999
 20
-125.7
 30
0.0
 40
1.0
  0
CIRCLE
  8
0
 10
615.7899999999998
 20
-125.7
 30
0.0
 40
1.0
  0
CIRCLE
  8
0
 10
662.7699999999999
 20
-125.7
 30
0.0
 40
1.0
  0
CIRCLE
  8
0
 10
678.4299999999998
 20
-125.7
 30
0.0
 40
1.0
  0
CIRCLE
  8
0
 10
28.539999999999996
 20
-130.04999999999998
 30
0.0
 40
1.0
  0
CIRCLE
  8
0
 10
44.199999999999996
 20
-130.04999999999998
 30
0.0
 40
1.0
  0
CIRCLE
  8
0
 10
75.52
 20
-130.04999999999998
 30
0.0
 40
1.0
  0
CIRCLE
  8
0
 10
106.83999999999999
 20
-130.04999999999998
 30
0.0
 40
1.0
  0
CIRCLE
  8
0
 10
153.82000000000002
 20
-130.04999999999998
 30
0.0
 40
1.0
  0
CIRCLE
  8
0
 10
169.48000000000002
 20
-130.04999999999998
 30
0.0
 40
1.0
  0
CIRCLE
  8
0
 10
200.8
 20
-130.04999999999998
 30
0.0
 40
1.0
  0
CIRCLE
  8
0
 10
216.46
 20
-130.04999999999998
 30
0.0
 40
1.0
  0
CIRCLE
  8
0
 10
279.09999999999997
 20
-130.04999999999998
 30
0.0
 40
1.0
  0
CIRCLE
  8
0
 10
294.76
 20
-130.04999999999998
 30
0.0
 40
1.0
  0
CIRCLE
  8
0
 10
310.41999999999996
 20
-130.04999999999998
 30
0.0
 40
1.0
  0
CIRCLE
  8
0
 10
326.08
 20
-130.04999999999998
 30
0.0
 40
1.0
  0
CIRCLE
  8
0
 10
341.73999999999995
 20
-130.04999999999998
 30
0.0
 40
1.0
  0
CIRCLE
  8
0
 10
592.3
 20
-130.04999999999998
 30
0.0
 40
1.0
  0
CIRCLE
  8
0
 10
607.9599999999999
 20
-130.04999999999998
 30
0.0
 40
1.0
  0
CIRCLE
  8
0
 10
670.5999999999999
 20
-130.04999999999998
 30
0.0
 40
1.0
  0
CIRCLE
  8
0
 10
36.37
 20
-134.39999999999998
 30
0.0
 40
1.0
  0
CIRCLE
  8
0
 10
67.69
 20
-134.39999999999998
 30
0.0
 40
1.0
  0
CIRCLE
  8
0
 10
83.35
 20
-134.39999999999998
 30
0.0
 40
1.0
  0
CIRCLE
  8
0
 10
114.66999999999999
 20
-134.39999999999998
 30
0.0
 40
1.0
  0
CIRCLE
  8
0
 10
161.65
 20
-134.39999999999998
 30
0.0
 40
1.0
  0
CIRCLE
  8
0
 10
208.63
 20
-134.39999999999998
 30
0.0
 40
1.0
  0
CIRCLE
  8
0
 10
271.27
 20
-134.39999999999998
 30
0.0
 40
1.0
  0
CIRCLE
  8
0
 10
286.93
 20
-134.39999999999998
 30
0.0
 40
1.0
  0
CIRCLE
  8
0
 10
318.25
 20
-134.39999999999998
 30
0.0
 40
1.0
  0
CIRCLE
  8
0
 10
333.90999999999997
 20
-134.39999999999998
 30
0.0
 40
1.0
  0
CIRCLE
  8
0
 10
349.57
 20
-134.39999999999998
 30
0.0
 40
1.0
  0
CIRCLE
  8
0
 10
584.4699999999999
 20
-134.39999999999998
 30
0.0
 40
1.0
  0
CIRCLE
  8
0
 10
600.1299999999999
 20
-134.39999999999998
 30
0.0
 40
1.0
  0
CIRCLE
  8
0
 10
662.7699999999999
 20
-134.39999999999998
 30
0.0
 40
1.0
  0
CIRCLE
  8
0
 10
678.4299999999998
 20
-134.39999999999998
 30
0.0
 40
1.0
  0
CIRCLE
  8
0
 10
28.539999999999996
 20
-138.74999999999997
 30
0.0
 40
1.0
  0
CIRCLE
  8
0
 10
75.52
 20
-138.74999999999997
 30
0.0
 40
1.0
  0
CIRCLE
  8
0
 10
153.82000000000002
 20
-138.74999999999997
 30
0.0
 40
1.0
  0
CIRCLE
  8
0
 10
169.48000000000002
 20
-138.74999999999997
 30
0.0
 40
1.0
  0
CIRCLE
  8
0
 10
200.8
 20
-138.74999999999997
 30
0.0
 40
1.0
  0
CIRCLE
  8
0
 10
279.09999999999997
 20
-138.74999999999997
 30
0.0
 40
1.0
  0
CIRCLE
  8
0
 10
294.76
 20
-138.74999999999997
 30
0.0
 40
1.0
  0
CIRCLE
  8
0
 10
326.08
 20
-138.74999999999997
 30
0.0
 40
1.0
  0
CIRCLE
  8
0
 10
341.73999999999995
 20
-138.74999999999997
 30
0.0
 40
1.0
  0
CIRCLE
  8
0
 10
592.3
 20
-138.74999999999997
 30
0.0
 40
1.0
  0
CIRCLE
  8
0
 10
670.5999999999999
 20
-138.74999999999997
 30
0.0
 40
1.0
  0
CIRCLE
  8
0
 10
36.37
 20
-143.09999999999997
 30
0.0
 40
1.0
  0
CIRCLE
  8
0
 10
67.69
 20
-143.09999999999997
 30
0.0
 40
1.0
  0
CIRCLE
  8
0
 10
83.35
 20
-143.09999999999997
 30
0.0
 40
1.0
  0
CIRCLE
  8
0
 10
114.66999999999999
 20
-143.09999999999997
 30
0.0
 40
1.0
  0
CIRCLE
  8
0
 10
161.65
 20
-143.09999999999997
 30
0.0
 40
1.0
  0
CIRCLE
  8
0
 10
208.63
 20
-143.09999999999997
 30
0.0
 40
1.0
  0
CIRCLE
  8
0
 10
286.93
 20
-143.09999999999997
 30
0.0
 40
1.0
  0
CIRCLE
  8
0
 10
333.90999999999997
 20
-143.09999999999997
 30
0.0
 40
1.0
  0
CIRCLE
  8
0
 10
584.4699999999999
 20
-143.09999999999997
 30
0.0
 40
1.0
  0
CIRCLE
  8
0
 10
600.1299999999999
 20
-143.09999999999997
 30
0.0
 40
1.0
  0
CIRCLE
  8
0
 10
662.7699999999999
 20
-143.09999999999997
 30
0.0
 40
1.0
  0
CIRCLE
  8
0
 10
678.4299999999998
 20
-143.09999999999997
 30
0.0
 40
1.0
  0
CIRCLE
  8
0
 10
75.52
 20
-147.45
 30
0.0
 40
1.0
  0
CIRCLE
  8
0
 10
153.82000000000002
 20
-147.45
 30
0.0
 40
1.0
  0
CIRCLE
  8
0
 10
169.48000000000002
 20
-147.45
 30
0.0
 40
1.0
  0
CIRCLE
  8
0
 10
200.8
 20
-147.45
 30
0.0
 40
1.0
  0
CIRCLE
  8
0
 10
326.08
 20
-147.45
 30
0.0
 40
1.0
  0
CIRCLE
  8
0
 10
341.73999999999995
 20
-147.45
 30
0.0
 40
1.0
  0
CIRCLE
  8
0
 10
592.3
 20
-147.45
 30
0.0
 40
1.0
  0
CIRCLE
  8
0
 10
670.5999999999999
 20
-147.45
 30
0.0
 40
1.0
  0
CIRCLE
  8
0
 10
36.37
 20
-151.79999999999998
 30
0.0
 40
1.0
  0
CIRCLE
  8
0
 10
67.69
 20
-151.79999999999998
 30
0.0
 40
1.0
  0
CIRCLE
  8
0
 10
83.35
 20
-151.79999999999998
 30
0.0
 40
1.0
  0
CIRCLE
  8
0
 10
114.66999999999999
 20
-151.79999999999998
 30
0.0
 40
1.0
  0
CIRCLE
  8
0
 10
161.65
 20
-151.79999999999998
 30
0.0
 40
1.0
  0
CIRCLE
  8
0
 10
208.63
 20
-151.79999999999998
 30
0.0
 40
1.0
  0
CIRCLE
  8
0
 10
318.25
 20
-151.79999999999998
 30
0.0
 40
1.0
  0
CIRCLE
  8
0
 10
333.90999999999997
 20
-151.79999999999998
 30
0.0
 40
1.0
  0
CIRCLE
  8
0
 10
506.16999999999996
 20
-151.79999999999998
 30
0.0
 40
1.0
  0
CIRCLE
  8
0
 10
584.4699999999999
 20
-151.79999999999998
 30
0.0
 40
1.0
  0
CIRCLE
  8
0
 10
600.1299999999999
 20
-151.79999999999998
 30
0.0
 40
1.0
  0
CIRCLE
  8
0
 10
662.7699999999999
 20
-151.79999999999998
 30
0.0
 40
1.0
  0
CIRCLE
  8
0
 10
153.82000000000002
 20
-156.14999999999998
 30
0.0
 40
1.0
  0
CIRCLE
  8
0
 10
169.48000000000002
 20
-156.14999999999998
 30
0.0
 40
1.0
  0
CIRCLE
  8
0
 10
200.8
 20
-156.14999999999998
 30
0.0
 40
1.0
  0
CIRCLE
  8
0
 10
326.08
 20
-156.14999999999998
 30
0.0
 40
1.0
  0
CIRCLE
  8
0
 10
498.3399999999999
 20
-156.14999999999998
 30
0.0
 40
1.0
  0
CIRCLE
  8
0
 10
514.0
 20
-156.14999999999998
 30
0.0
 40
1.0
  0
CIRCLE
  8
0
 10
592.3
 20
-156.14999999999998
 30
0.0
 40
1.0
  0
CIRCLE
  8
0
 10
654.9399999999999
 20
-156.14999999999998
 30
0.0
 40
1.0
  0
CIRCLE
  8
0
 10
670.5999999999999
 20
-156.14999999999998
 30
0.0
 40
1.0
  0
CIRCLE
  8
0
 10
36.37
 20
-160.49999999999997
 30
0.0
 40
1.0
  0
CIRCLE
  8
0
 10
67.69
 20
-160.49999999999997
 30
0.0
 40
1.0
  0
CIRCLE
  8
0
 10
83.35
 20
-160.49999999999997
 30
0.0
 40
1.0
  0
CIRCLE
  8
0
 10
114.66999999999999
 20
-160.49999999999997
 30
0.0
 40
1.0
  0
CIRCLE
  8
0
 10
161.65
 20
-160.49999999999997
 30
0.0
 40
1.0
  0
CIRCLE
  8
0
 10
208.63
 20
-160.49999999999997
 30
0.0
 40
1.0
  0
CIRCLE
  8
0
 10
490.50999999999993
 20
-160.49999999999997
 30
0.0
 40
1.0
  0
CIRCLE
  8
0
 10
506.16999999999996
 20
-160.49999999999997
 30
0.0
 40
1.0
  0
CIRCLE
  8
0
 10
521.8299999999999
 20
-160.49999999999997
 30
0.0
 40
1.0
  0
CIRCLE
  8
0
 10
662.7699999999999
 20
-160.49999999999997
 30
0.0
 40
1.0
  0
CIRCLE
  8
0
 10
169.48000000000002
 20
-164.84999999999997
 30
0.0
 40
1.0
  0
CIRCLE
  8
0
 10
200.8
 20
-164.84999999999997
 30
0.0
 40
1.0
  0
CIRCLE
  8
0
 10
326.08
 20
-164.84999999999997
 30
0.0
 40
1.0
  0
CIRCLE
  8
0
 10
482.67999999999995
 20
-164.84999999999997
 30
0.0
 40
1.0
  0
CIRCLE
  8
0
 10
498.3399999999999
 20
-164.84999999999997
 30
0.0
 40
1.0
  0
CIRCLE
  8
0
 10
514.0
 20
-164.84999999999997
 30
0.0
 40
1.0
  0
CIRCLE
  8
0
 10
529.66
 20
-164.84999999999997
 30
0.0
 40
1.0
  0
CIRCLE
  8
0
 10
654.9399999999999
 20
-164.84999999999997
 30
0.0
 40
1.0
  0
CIRCLE
  8
0
 10
670.5999999999999
 20
-164.84999999999997
 30
0.0
 40
1.0
  0
CIRCLE
  8
0
 10
83.35
 20
-169.2
 30
0.0
 40
1.0
  0
CIRCLE
  8
0
 10
114.66999999999999
 20
-169.2
 30
0.0
 40
1.0
  0
CIRCLE
  8
0
 10
161.65
 20
-169.2
 30
0.0
 40
1.0
  0
CIRCLE
  8
0
 10
208.63
 20
-169.2
 30
0.0
 40
1.0
  0
CIRCLE
  8
0
 10
427.86999999999995
 20
-169.2
 30
0.0
 40
1.0
  0
CIRCLE
  8
0
 10
490.50999999999993
 20
-169.2
 30
0.0
 40
1.0
  0
CIRCLE
  8
0
 10
506.16999999999996
 20
-169.2
 30
0.0
 40
1.0
  0
CIRCLE
  8
0
 10
521.8299999999999
 20
-169.2
 30
0.0
 40
1.0
  0
CIRCLE
  8
0
 10
537.4899999999999
 20
-169.2
 30
0.0
 40
1.0
  0
CIRCLE
  8
0
 10
647.1099999999999
 20
-169.2
 30
0.0
 40
1.0
  0
CIRCLE
  8
0
 10
662.7699999999999
 20
-169.2
 30
0.0
 40
1.0
  0
CIRCLE
  8
0
 10
169.48000000000002
 20
-173.54999999999998
 30
0.0
 40
1.0
  0
CIRCLE
  8
0
 10
200.8
 20
-173.54999999999998
 30
0.0
 40
1.0
  0
CIRCLE
  8
0
 10
357.4
 20
-173.54999999999998
 30
0.0
 40
1.0
  0
CIRCLE
  8
0
 10
435.69999999999993
 20
-173.54999999999998
 30
0.0
 40
1.0
  0
CIRCLE
  8
0
 10
482.67999999999995
 20
-173.54999999999998
 30
0.0
 40
1.0
  0
CIRCLE
  8
0
 10
498.3399999999999
 20
-173.54999999999998
 30
0.0
 40
1.0
  0
CIRCLE
  8
0
 10
514.0
 20
-173.54999999999998
 30
0.0
 40
1.0
  0
CIRCLE
  8
0
 10
529.66
 20
-173.54999999999998
 30
0.0
 40
1.0
  0
CIRCLE
  8
0
 10
654.9399999999999
 20
-173.54999999999998
 30
0.0
 40
1.0
  0
CIRCLE
  8
0
 10
670.5999999999999
 20
-173.54999999999998
 30
0.0
 40
1.0
  0
CIRCLE
  8
0
 10
83.35
 20
-177.89999999999998
 30
0.0
 40
1.0
  0
CIRCLE
  8
0
 10
161.65
 20
-177.89999999999998
 30
0.0
 40
1.0
  0
CIRCLE
  8
0
 10
208.63
 20
-177.89999999999998
 30
0.0
 40
1.0
  0
CIRCLE
  8
0
 10
349.57
 20
-177.89999999999998
 30
0.0
 40
1.0
  0
CIRCLE
  8
0
 10
365.22999999999996
 20
-177.89999999999998
 30
0.0
 40
1.0
  0
CIRCLE
  8
0
 10
396.54999999999995
 20
-177.89999999999998
 30
0.0
 40
1.0
  0
CIRCLE
  8
0
 10
427.86999999999995
 20
-177.89999999999998
 30
0.0
 40
1.0
  0
CIRCLE
  8
0
 10
443.53
 20
-177.89999999999998
 30
0.0
 40
1.0
  0
CIRCLE
  8
0
 10
474.84999999999997
 20
-177.89999999999998
 30
0.0
 40
1.0
  0
CIRCLE
  8
0
 10
490.50999999999993
 20
-177.89999999999998
 30
0.0
 40
1.0
  0
CIRCLE
  8
0
 10
506.16999999999996
 20
-177.89999999999998
 30
0.0
 40
1.0
  0
CIRCLE
  8
0
 10
521.8299999999999
 20
-177.89999999999998
 30
0.0
 40
1.0
  0
CIRCLE
  8
0
 10
537.4899999999999
 20
-177.89999999999998
 30
0.0
 40
1.0
  0
CIRCLE
  8
0
 10
647.1099999999999
 20
-177.89999999999998
 30
0.0
 40
1.0
  0
CIRCLE
  8
0
 10
662.7699999999999
 20
-177.89999999999998
 30
0.0
 40
1.0
  0
CIRCLE
  8
0
 10
169.48000000000002
 20
-182.24999999999997
 30
0.0
 40
1.0
  0
CIRCLE
  8
0
 10
357.4
 20
-182.24999999999997
 30
0.0
 40
1.0
  0
CIRCLE
  8
0
 10
373.05999999999995
 20
-182.24999999999997
 30
0.0
 40
1.0
  0
CIRCLE
  8
0
 10
404.37999999999994
 20
-182.24999999999997
 30
0.0
 40
1.0
  0
CIRCLE
  8
0
 10
435.69999999999993
 20
-182.24999999999997
 30
0.0
 40
1.0
  0
CIRCLE
  8
0
 10
482.67999999999995
 20
-182.24999999999997
 30
0.0
 40
1.0
  0
CIRCLE
  8
0
 10
498.3399999999999
 20
-182.24999999999997
 30
0.0
 40
1.0
  0
CIRCLE
  8
0
 10
514.0
 20
-182.24999999999997
 30
0.0
 40
1.0
  0
CIRCLE
  8
0
 10
529.66
 20
-182.24999999999997
 30
0.0
 40
1.0
  0
CIRCLE
  8
0
 10
545.3199999999999
 20
-182.24999999999997
 30
0.0
 40
1.0
  0
CIRCLE
  8
0
 10
639.28
 20
-182.24999999999997
 30
0.0
 40
1.0
  0
CIRCLE
  8
0
 10
654.9399999999999
 20
-182.24999999999997
 30
0.0
 40
1.0
  0
CIRCLE
  8
0
 10
286.93
 20
-186.59999999999997
 30
0.0
 40
1.0
  0
CIRCLE
  8
0
 10
318.25
 20
-186.59999999999997
 30
0.0
 40
1.0
  0
CIRCLE
  8
0
 10
349.57
 20
-186.59999999999997
 30
0.0
 40
1.0
  0
CIRCLE
  8
0
 10
365.22999999999996
 20
-186.59999999999997
 30
0.0
 40
1.0
  0
CIRCLE
  8
0
 10
380.89
 20
-186.59999999999997
 30
0.0
 40
1.0
  0
CIRCLE
  8
0
 10
396.54999999999995
 20
-186.59999999999997
 30
0.0
 40
1.0
  0
CIRCLE
  8
0
 10
427.86999999999995
 20
-186.59999999999997
 30
0.0
 40
1.0
  0
CIRCLE
  8
0
 10
443.53
 20
-186.59999999999997
 30
0.0
 40
1.0
  0
CIRCLE
  8
0
 10
474.84999999999997
 20
-186.59999999999997
 30
0.0
 40
1.0
  0
CIRCLE
  8
0
 10
490.50999999999993
 20
-186.59999999999997
 30
0.0
 40
1.0
  0
CIRCLE
  8
0
 10
506.16999999999996
 20
-186.59999999999997
 30
0.0
 40
1.0
  0
CIRCLE
  8
0
 10
537.4899999999999
 20
-186.59999999999997
 30
0.0
 40
1.0
  0
CIRCLE
  8
0
 10
631.4499999999999
 20
-186.59999999999997
 30
0.0
 40
1.0
  0
CIRCLE
  8
0
 10
647.1099999999999
 20
-186.59999999999997
 30
0.0
 40
1.0
  0
CIRCLE
  8
0
 10
279.09999999999997
 20
-190.94999999999996
 30
0.0
 40
1.0
  0
CIRCLE
  8
0
 10
294.76
 20
-190.94999999999996
 30
0.0
 40
1.0
  0
CIRCLE
  8
0
 10
326.08
 20
-190.94999999999996
 30
0.0
 40
1.0
  0
CIRCLE
  8
0
 10
341.73999999999995
 20
-190.94999999999996
 30
0.0
 40
1.0
  0
CIRCLE
  8
0
 10
357.4
 20
-190.94999999999996
 30
0.0
 40
1.0
  0
CIRCLE
  8
0
 10
373.05999999999995
 20
-190.94999999999996
 30
0.0
 40
1.0
  0
CIRCLE
  8
0
 10
404.37999999999994
 20
-190.94999999999996
 30
0.0
 40
1.0
  0
CIRCLE
  8
0
 10
435.69999999999993
 20
-190.94999999999996
 30
0.0
 40
1.0
  0
CIRCLE
  8
0
 10
467.0199999999999
 20
-190.94999999999996
 30
0.0
 40
1.0
  0
CIRCLE
  8
0
 10
482.67999999999995
 20
-190.94999999999996
 30
0.0
 40
1.0
  0
CIRCLE
  8
0
 10
498.3399999999999
 20
-190.94999999999996
 30
0.0
 40
1.0
  0
CIRCLE
  8
0
 10
545.3199999999999
 20
-190.94999999999996
 30
0.0
 40
1.0
  0
CIRCLE
  8
0
 10
623.6199999999999
 20
-190.94999999999996
 30
0.0
 40
1.0
  0
CIRCLE
  8
0
 10
639.28
 20
-190.94999999999996
 30
0.0
 40
1.0
  0
CIRCLE
  8
0
 10
654.9399999999999
 20
-190.94999999999996
 30
0.0
 40
1.0
  0
CIRCLE
  8
0
 10
208.63
 20
-195.29999999999998
 30
0.0
 40
1.0
  0
CIRCLE
  8
0
 10
255.60999999999999
 20
-195.29999999999998
 30
0.0
 40
1.0
  0
CIRCLE
  8
0
 10
271.27
 20
-195.29999999999998
 30
0.0
 40
1.0
  0
CIRCLE
  8
0
 10
286.93
 20
-195.29999999999998
 30
0.0
 40
1.0
  0
CIRCLE
  8
0
 10
302.59
 20
-195.29999999999998
 30
0.0
 40
1.0
  0
CIRCLE
  8
0
 10
318.25
 20
-195.29999999999998
 30
0.0
 40
1.0
  0
CIRCLE
  8
0
 10
349.57
 20
-195.29999999999998
 30
0.0
 40
1.0
  0
CIRCLE
  8
0
 10
380.89
 20
-195.29999999999998
 30
0.0
 40
1.0
  0
CIRCLE
  8
0
 10
427.86999999999995
 20
-195.29999999999998
 30
0.0
 40
1.0
  0
CIRCLE
  8
0
 10
443.53
 20
-195.29999999999998
 30
0.0
 40
1.0
  0
CIRCLE
  8
0
 10
474.84999999999997
 20
-195.29999999999998
 30
0.0
 40
1.0
  0
CIRCLE
  8
0
 10
490.50999999999993
 20
-195.29999999999998
 30
0.0
 40
1.0
  0
CIRCLE
  8
0
 10
615.7899999999998
 20
-195.29999999999998
 30
0.0
 40
1.0
  0
CIRCLE
  8
0
 10
631.4499999999999
 20
-195.29999999999998
 30
0.0
 40
1.0
  0
CIRCLE
  8
0
 10
647.1099999999999
 20
-195.29999999999998
 30
0.0
 40
1.0
  0
CIRCLE
  8
0
 10
216.46
 20
-199.64999999999998
 30
0.0
 40
1.0
  0
CIRCLE
  8
0
 10
247.78
 20
-199.64999999999998
 30
0.0
 40
1.0
  0
CIRCLE
  8
0
 10
279.09999999999997
 20
-199.64999999999998
 30
0.0
 40
1.0
  0
CIRCLE
  8
0
 10
294.76
 20
-199.64999999999998
 30
0.0
 40
1.0
  0
CIRCLE
  8
0
 10
326.08
 20
-199.64999999999998
 30
0.0
 40
1.0
  0
CIRCLE
  8
0
 10
341.73999999999995
 20
-199.64999999999998
 30
0.0
 40
1.0
  0
CIRCLE
  8
0
 10
373.05999999999995
 20
-199.64999999999998
 30
0.0
 40
1.0
  0
CIRCLE
  8
0
 10
388.71999999999997
 20
-199.64999999999998
 30
0.0
 40
1.0
  0
CIRCLE
  8
0
 10
404.37999999999994
 20
-199.64999999999998
 30
0.0
 40
1.0
  0
CIRCLE
  8
0
 10
435.69999999999993
 20
-199.64999999999998
 30
0.0
 40
1.0
  0
CIRCLE
  8
0
 10
451.35999999999996
 20
-199.64999999999998
 30
0.0
 40
1.0
  0
CIRCLE
  8
0
 10
467.0199999999999
 20
-199.64999999999998
 30
0.0
 40
1.0
  0
CIRCLE
  8
0
 10
482.67999999999995
 20
-199.64999999999998
 30
0.0
 40
1.0
  0
CIRCLE
  8
0
 10
498.3399999999999
 20
-199.64999999999998
 30
0.0
 40
1.0
  0
CIRCLE
  8
0
 10
607.9599999999999
 20
-199.64999999999998
 30
0.0
 40
1.0
  0
CIRCLE
  8
0
 10
623.6199999999999
 20
-199.64999999999998
 30
0.0
 40
1.0
  0
CIRCLE
  8
0
 10
639.28
 20
-199.64999999999998
 30
0.0
 40
1.0
  0
CIRCLE
  8
0
 10
208.63
 20
-203.99999999999997
 30
0.0
 40
1.0
  0
CIRCLE
  8
0
 10
224.29
 20
-203.99999999999997
 30
0.0
 40
1.0
  0
CIRCLE
  8
0
 10
239.95
 20
-203.99999999999997
 30
0.0
 40
1.0
  0
CIRCLE
  8
0
 10
255.60999999999999
 20
-203.99999999999997
 30
0.0
 40
1.0
  0
CIRCLE
  8
0
 10
271.27
 20
-203.99999999999997
 30
0.0
 40
1.0
  0
CIRCLE
  8
0
 10
302.59
 20
-203.99999999999997
 30
0.0
 40
1.0
  0
CIRCLE
  8
0
 10
318.25
 20
-203.99999999999997
 30
0.0
 40
1.0
  0
CIRCLE
  8
0
 10
349.57
 20
-203.99999999999997
 30
0.0
 40
1.0
  0
CIRCLE
  8
0
 10
380.89
 20
-203.99999999999997
 30
0.0
 40
1.0
  0
CIRCLE
  8
0
 10
443.53
 20
-203.99999999999997
 30
0.0
 40
1.0
  0
CIRCLE
  8
0
 10
474.84999999999997
 20
-203.99999999999997
 30
0.0
 40
1.0
  0
CIRCLE
  8
0
 10
490.50999999999993
 20
-203.99999999999997
 30
0.0
 40
1.0
  0
CIRCLE
  8
0
 10
615.7899999999998
 20
-203.99999999999997
 30
0.0
 40
1.0
  0
CIRCLE
  8
0
 10
631.4499999999999
 20
-203.99999999999997
 30
0.0
 40
1.0
  0
CIRCLE
  8
0
 10
200.8
 20
-208.34999999999997
 30
0.0
 40
1.0
  0
CIRCLE
  8
0
 10
216.46
 20
-208.34999999999997
 30
0.0
 40
1.0
  0
CIRCLE
  8
0
 10
247.78
 20
-208.34999999999997
 30
0.0
 40
1.0
  0
CIRCLE
  8
0
 10
279.09999999999997
 20
-208.34999999999997
 30
0.0
 40
1.0
  0
CIRCLE
  8
0
 10
294.76
 20
-208.34999999999997
 30
0.0
 40
1.0
  0
CIRCLE
  8
0
 10
326.08
 20
-208.34999999999997
 30
0.0
 40
1.0
  0
CIRCLE
  8
0
 10
341.73999999999995
 20
-208.34999999999997
 30
0.0
 40
1.0
  0
CIRCLE
  8
0
 10
373.05999999999995
 20
-208.34999999999997
 30
0.0
 40
1.0
  0
CIRCLE
  8
0
 10
388.71999999999997
 20
-208.34999999999997
 30
0.0
 40
1.0
  0
CIRCLE
  8
0
 10
404.37999999999994
 20
-208.34999999999997
 30
0.0
 40
1.0
  0
CIRCLE
  8
0
 10
435.69999999999993
 20
-208.34999999999997
 30
0.0
 40
1.0
  0
CIRCLE
  8
0
 10
451.35999999999996
 20
-208.34999999999997
 30
0.0
 40
1.0
  0
CIRCLE
  8
0
 10
482.67999999999995
 20
-208.34999999999997
 30
0.0
 40
1.0
  0
CIRCLE
  8
0
 10
498.3399999999999
 20
-208.34999999999997
 30
0.0
 40
1.0
  0
CIRCLE
  8
0
 10
607.9599999999999
 20
-208.34999999999997
 30
0.0
 40
1.0
  0
CIRCLE
  8
0
 10
623.6199999999999
 20
-208.34999999999997
 30
0.0
 40
1.0
  0
CIRCLE
  8
0
 10
208.63
 20
-212.69999999999996
 30
0.0
 40
1.0
  0
CIRCLE
  8
0
 10
224.29
 20
-212.69999999999996
 30
0.0
 40
1.0
  0
CIRCLE
  8
0
 10
239.95
 20
-212.69999999999996
 30
0.0
 40
1.0
  0
CIRCLE
  8
0
 10
255.60999999999999
 20
-212.69999999999996
 30
0.0
 40
1.0
  0
CIRCLE
  8
0
 10
271.27
 20
-212.69999999999996
 30
0.0
 40
1.0
  0
CIRCLE
  8
0
 10
302.59
 20
-212.69999999999996
 30
0.0
 40
1.0
  0
CIRCLE
  8
0
 10
318.25
 20
-212.69999999999996
 30
0.0
 40
1.0
  0
CIRCLE
  8
0
 10
349.57
 20
-212.69999999999996
 30
0.0
 40
1.0
  0
CIRCLE
  8
0
 10
380.89
 20
-212.69999999999996
 30
0.0
 40
1.0
  0
CIRCLE
  8
0
 10
412.21
 20
-212.69999999999996
 30
0.0
 40
1.0
  0
CIRCLE
  8
0
 10
443.53
 20
-212.69999999999996
 30
0.0
 40
1.0
  0
CIRCLE
  8
0
 10
474.84999999999997
 20
-212.69999999999996
 30
0.0
 40
1.0
  0
CIRCLE
  8
0
 10
490.50999999999993
 20
-212.69999999999996
 30
0.0
 40
1.0
  0
CIRCLE
  8
0
 10
506.16999999999996
 20
-212.69999999999996
 30
0.0
 40
1.0
  0
CIRCLE
  8
0
 10
600.1299999999999
 20
-212.69999999999996
 30
0.0
 40
1.0
  0
CIRCLE
  8
0
 10
615.7899999999998
 20
-212.69999999999996
 30
0.0
 40
1.0
  0
CIRCLE
  8
0
 10
200.8
 20
-217.04999999999998
 30
0.0
 40
1.0
  0
CIRCLE
  8
0
 10
232.12
 20
-217.04999999999998
 30
0.0
 40
1.0
  0
CIRCLE
  8
0
 10
247.78
 20
-217.04999999999998
 30
0.0
 40
1.0
  0
CIRCLE
  8
0
 10
279.09999999999997
 20
-217.04999999999998
 30
0.0
 40
1.0
  0
CIRCLE
  8
0
 10
294.76
 20
-217.04999999999998
 30
0.0
 40
1.0
  0
CIRCLE
  8
0
 10
326.08
 20
-217.04999999999998
 30
0.0
 40
1.0
  0
CIRCLE
  8
0
 10
341.73999999999995
 20
-217.04999999999998
 30
0.0
 40
1.0
  0
CIRCLE
  8
0
 10
373.05999999999995
 20
-217.04999999999998
 30
0.0
 40
1.0
  0
CIRCLE
  8
0
 10
388.71999999999997
 20
-217.04999999999998
 30
0.0
 40
1.0
  0
CIRCLE
  8
0
 10
404.37999999999994
 20
-217.04999999999998
 30
0.0
 40
1.0
  0
CIRCLE
  8
0
 10
435.69999999999993
 20
-217.04999999999998
 30
0.0
 40
1.0
  0
CIRCLE
  8
0
 10
451.35999999999996
 20
-217.04999999999998
 30
0.0
 40
1.0
  0
CIRCLE
  8
0
 10
482.67999999999995
 20
-217.04999999999998
 30
0.0
 40
1.0
  0
CIRCLE
  8
0
 10
498.3399999999999
 20
-217.04999999999998
 30
0.0
 40
1.0
  0
CIRCLE
  8
0
 10
514.0
 20
-217.04999999999998
 30
0.0
 40
1.0
  0
CIRCLE
  8
0
 10
607.9599999999999
 20
-217.04999999999998
 30
0.0
 40
1.0
  0
CIRCLE
  8
0
 10
623.6199999999999
 20
-217.04999999999998
 30
0.0
 40
1.0
  0
CIRCLE
  8
0
 10
224.29
 20
-221.39999999999998
 30
0.0
 40
1.0
  0
CIRCLE
  8
0
 10
239.95
 20
-221.39999999999998
 30
0.0
 40
1.0
  0
CIRCLE
  8
0
 10
302.59
 20
-221.39999999999998
 30
0.0
 40
1.0
  0
CIRCLE
  8
0
 10
318.25
 20
-221.39999999999998
 30
0.0
 40
1.0
  0
CIRCLE
  8
0
 10
349.57
 20
-221.39999999999998
 30
0.0
 40
1.0
  0
CIRCLE
  8
0
 10
380.89
 20
-221.39999999999998
 30
0.0
 40
1.0
  0
CIRCLE
  8
0
 10
412.21
 20
-221.39999999999998
 30
0.0
 40
1.0
  0
CIRCLE
  8
0
 10
443.53
 20
-221.39999999999998
 30
0.0
 40
1.0
  0
CIRCLE
  8
0
 10
459.18999999999994
 20
-221.39999999999998
 30
0.0
 40
1.0
  0
CIRCLE
  8
0
 10
490.50999999999993
 20
-221.39999999999998
 30
0.0
 40
1.0
  0
CIRCLE
  8
0
 10
506.16999999999996
 20
-221.39999999999998
 30
0.0
 40
1.0
  0
CIRCLE
  8
0
 10
521.8299999999999
 20
-221.39999999999998
 30
0.0
 40
1.0
  0
CIRCLE
  8
0
 10
600.1299999999999
 20
-221.39999999999998
 30
0.0
 40
1.0
  0
CIRCLE
  8
0
 10
615.7899999999998
 20
-221.39999999999998
 30
0.0
 40
1.0
  0
CIRCLE
  8
0
 10
200.8
 20
-225.74999999999997
 30
0.0
 40
1.0
  0
CIRCLE
  8
0
 10
279.09999999999997
 20
-225.74999999999997
 30
0.0
 40
1.0
  0
CIRCLE
  8
0
 10
294.76
 20
-225.74999999999997
 30
0.0
 40
1.0
  0
CIRCLE
  8
0
 10
326.08
 20
-225.74999999999997
 30
0.0
 40
1.0
  0
CIRCLE
  8
0
 10
341.73999999999995
 20
-225.74999999999997
 30
0.0
 40
1.0
  0
CIRCLE
  8
0
 10
373.05999999999995
 20
-225.74999999999997
 30
0.0
 40
1.0
  0
CIRCLE
  8
0
 10
388.71999999999997
 20
-225.74999999999997
 30
0.0
 40
1.0
  0
CIRCLE
  8
0
 10
404.37999999999994
 20
-225.74999999999997
 30
0.0
 40
1.0
  0
CIRCLE
  8
0
 10
435.69999999999993
 20
-225.74999999999997
 30
0.0
 40
1.0
  0
CIRCLE
  8
0
 10
451.35999999999996
 20
-225.74999999999997
 30
0.0
 40
1.0
  0
CIRCLE
  8
0
 10
498.3399999999999
 20
-225.74999999999997
 30
0.0
 40
1.0
  0
CIRCLE
  8
0
 10
514.0
 20
-225.74999999999997
 30
0.0
 40
1.0
  0
CIRCLE
  8
0
 10
529.66
 20
-225.74999999999997
 30
0.0
 40
1.0
  0
CIRCLE
  8
0
 10
607.9599999999999
 20
-225.74999999999997
 30
0.0
 40
1.0
  0
CIRCLE
  8
0
 10
239.95
 20
-230.09999999999997
 30
0.0
 40
1.0
  0
CIRCLE
  8
0
 10
302.59
 20
-230.09999999999997
 30
0.0
 40
1.0
  0
CIRCLE
  8
0
 10
318.25
 20
-230.09999999999997
 30
0.0
 40
1.0
  0
CIRCLE
  8
0
 10
349.57
 20
-230.09999999999997
 30
0.0
 40
1.0
  0
CIRCLE
  8
0
 10
380.89
 20
-230.09999999999997
 30
0.0
 40
1.0
  0
CIRCLE
  8
0
 10
412.21
 20
-230.09999999999997
 30
0.0
 40
1.0
  0
CIRCLE
  8
0
 10
443.53
 20
-230.09999999999997
 30
0.0
 40
1.0
  0
CIRCLE
  8
0
 10
459.18999999999994
 20
-230.09999999999997
 30
0.0
 40
1.0
  0
CIRCLE
  8
0
 10
506.16999999999996
 20
-230.09999999999997
 30
0.0
 40
1.0
  0
CIRCLE
  8
0
 10
521.8299999999999
 20
-230.09999999999997
 30
0.0
 40
1.0
  0
CIRCLE
  8
0
 10
537.4899999999999
 20
-230.09999999999997
 30
0.0
 40
1.0
  0
CIRCLE
  8
0
 10
600.1299999999999
 20
-230.09999999999997
 30
0.0
 40
1.0
  0
CIRCLE
  8
0
 10
615.7899999999998
 20
-230.09999999999997
 30
0.0
 40
1.0
  0
CIRCLE
  8
0
 10
200.8
 20
-234.44999999999996
 30
0.0
 40
1.0
  0
CIRCLE
  8
0
 10
279.09999999999997
 20
-234.44999999999996
 30
0.0
 40
1.0
  0
CIRCLE
  8
0
 10
294.76
 20
-234.44999999999996
 30
0.0
 40
1.0
  0
CIRCLE
  8
0
 10
326.08
 20
-234.44999999999996
 30
0.0
 40
1.0
  0
CIRCLE
  8
0
 10
341.73999999999995
 20
-234.44999999999996
 30
0.0
 40
1.0
  0
CIRCLE
  8
0
 10
388.71999999999997
 20
-234.44999999999996
 30
0.0
 40
1.0
  0
CIRCLE
  8
0
 10
404.37999999999994
 20
-234.44999999999996
 30
0.0
 40
1.0
  0
CIRCLE
  8
0
 10
435.69999999999993
 20
-234.44999999999996
 30
0.0
 40
1.0
  0
CIRCLE
  8
0
 10
451.35999999999996
 20
-234.44999999999996
 30
0.0
 40
1.0
  0
CIRCLE
  8
0
 10
514.0
 20
-234.44999999999996
 30
0.0
 40
1.0
  0
CIRCLE
  8
0
 10
529.66
 20
-234.44999999999996
 30
0.0
 40
1.0
  0
CIRCLE
  8
0
 10
545.3199999999999
 20
-234.44999999999996
 30
0.0
 40
1.0
  0
CIRCLE
  8
0
 10
607.9599999999999
 20
-234.44999999999996
 30
0.0
 40
1.0
  0
CIRCLE
  8
0
 10
239.95
 20
-238.79999999999995
 30
0.0
 40
1.0
  0
CIRCLE
  8
0
 10
286.93
 20
-238.79999999999995
 30
0.0
 40
1.0
  0
CIRCLE
  8
0
 10
349.57
 20
-238.79999999999995
 30
0.0
 40
1.0
  0
CIRCLE
  8
0
 10
380.89
 20
-238.79999999999995
 30
0.0
 40
1.0
  0
CIRCLE
  8
0
 10
412.21
 20
-238.79999999999995
 30
0.0
 40
1.0
  0
CIRCLE
  8
0
 10
443.53
 20
-238.79999999999995
 30
0.0
 40
1.0
  0
CIRCLE
  8
0
 10
459.18999999999994
 20
-238.79999999999995
 30
0.0
 40
1.0
  0
CIRCLE
  8
0
 10
521.8299999999999
 20
-238.79999999999995
 30
0.0
 40
1.0
  0
CIRCLE
  8
0
 10
537.4899999999999
 20
-238.79999999999995
 30
0.0
 40
1.0
  0
CIRCLE
  8
0
 10
615.7899999999998
 20
-238.79999999999995
 30
0.0
 40
1.0
  0
CIRCLE
  8
0
 10
200.8
 20
-243.14999999999998
 30
0.0
 40
1.0
  0
CIRCLE
  8
0
 10
247.78
 20
-243.14999999999998
 30
0.0
 40
1.0
  0
CIRCLE
  8
0
 10
263.44
 20
-243.14999999999998
 30
0.0
 40
1.0
  0
CIRCLE
  8
0
 10
279.09999999999997
 20
-243.14999999999998
 30
0.0
 40
1.0
  0
CIRCLE
  8
0
 10
294.76
 20
-243.14999999999998
 30
0.0
 40
1.0
  0
CIRCLE
  8
0
 10
326.08
 20
-243.14999999999998
 30
0.0
 40
1.0
  0
CIRCLE
  8
0
 10
341.73999999999995
 20
-243.14999999999998
 30
0.0
 40
1.0
  0
CIRCLE
  8
0
 10
357.4
 20
-243.14999999999998
 30
0.0
 40
1.0
  0
CIRCLE
  8
0
 10
388.71999999999997
 20
-243.14999999999998
 30
0.0
 40
1.0
  0
CIRCLE
  8
0
 10
435.69999999999993
 20
-243.14999999999998
 30
0.0
 40
1.0
  0
CIRCLE
  8
0
 10
451.35999999999996
 20
-243.14999999999998
 30
0.0
 40
1.0
  0
CIRCLE
  8
0
 10
467.0199999999999
 20
-243.14999999999998
 30
0.0
 40
1.0
  0
CIRCLE
  8
0
 10
529.66
 20
-243.14999999999998
 30
0.0
 40
1.0
  0
CIRCLE
  8
0
 10
545.3199999999999
 20
-243.14999999999998
 30
0.0
 40
1.0
  0
CIRCLE
  8
0
 10
607.9599999999999
 20
-243.14999999999998
 30
0.0
 40
1.0
  0
CIRCLE
  8
0
 10
623.6199999999999
 20
-243.14999999999998
 30
0.0
 40
1.0
  0
CIRCLE
  8
0
 10
208.63
 20
-247.49999999999997
 30
0.0
 40
1.0
  0
CIRCLE
  8
0
 10
239.95
 20
-247.49999999999997
 30
0.0
 40
1.0
  0
CIRCLE
  8
0
 10
255.60999999999999
 20
-247.49999999999997
 30
0.0
 40
1.0
  0
CIRCLE
  8
0
 10
286.93
 20
-247.49999999999997
 30
0.0
 40
1.0
  0
CIRCLE
  8
0
 10
349.57
 20
-247.49999999999997
 30
0.0
 40
1.0
  0
CIRCLE
  8
0
 10
380.89
 20
-247.49999999999997
 30
0.0
 40
1.0
  0
CIRCLE
  8
0
 10
412.21
 20
-247.49999999999997
 30
0.0
 40
1.0
  0
CIRCLE
  8
0
 10
443.53
 20
-247.49999999999997
 30
0.0
 40
1.0
  0
CIRCLE
  8
0
 10
459.18999999999994
 20
-247.49999999999997
 30
0.0
 40
1.0
  0
CIRCLE
  8
0
 10
537.4899999999999
 20
-247.49999999999997
 30
0.0
 40
1.0
  0
CIRCLE
  8
0
 10
553.1499999999999
 20
-247.49999999999997
 30
0.0
 40
1.0
  0
CIRCLE
  8
0
 10
615.7899999999998
 20
-247.49999999999997
 30
0.0
 40
1.0
  0
CIRCLE
  8
0
 10
631.4499999999999
 20
-247.49999999999997
 30
0.0
 40
1.0
  0
CIRCLE
  8
0
 10
200.8
 20
-251.84999999999997
 30
0.0
 40
1.0
  0
CIRCLE
  8
0
 10
216.46
 20
-251.84999999999997
 30
0.0
 40
1.0
  0
CIRCLE
  8
0
 10
247.78
 20
-251.84999999999997
 30
0.0
 40
1.0
  0
CIRCLE
  8
0
 10
263.44
 20
-251.84999999999997
 30
0.0
 40
1.0
  0
CIRCLE
  8
0
 10
279.09999999999997
 20
-251.84999999999997
 30
0.0
 40
1.0
  0
CIRCLE
  8
0
 10
294.76
 20
-251.84999999999997
 30
0.0
 40
1.0
  0
CIRCLE
  8
0
 10
326.08
 20
-251.84999999999997
 30
0.0
 40
1.0
  0
CIRCLE
  8
0
 10
341.73999999999995
 20
-251.84999999999997
 30
0.0
 40
1.0
  0
CIRCLE
  8
0
 10
357.4
 20
-251.84999999999997
 30
0.0
 40
1.0
  0
CIRCLE
  8
0
 10
388.71999999999997
 20
-251.84999999999997
 30
0.0
 40
1.0
  0
CIRCLE
  8
0
 10
435.69999999999993
 20
-251.84999999999997
 30
0.0
 40
1.0
  0
CIRCLE
  8
0
 10
451.35999999999996
 20
-251.84999999999997
 30
0.0
 40
1.0
  0
CIRCLE
  8
0
 10
467.0199999999999
 20
-251.84999999999997
 30
0.0
 40
1.0
  0
CIRCLE
  8
0
 10
529.66
 20
-251.84999999999997
 30
0.0
 40
1.0
  0
CIRCLE
  8
0
 10
545.3199999999999
 20
-251.84999999999997
 30
0.0
 40
1.0
  0
CIRCLE
  8
0
 10
607.9599999999999
 20
-251.84999999999997
 30
0.0
 40
1.0
  0
CIRCLE
  8
0
 10
623.6199999999999
 20
-251.84999999999997
 30
0.0
 40
1.0
  0
CIRCLE
  8
0
 10
208.63
 20
-256.2
 30
0.0
 40
1.0
  0
CIRCLE
  8
0
 10
224.29
 20
-256.2
 30
0.0
 40
1.0
  0
CIRCLE
  8
0
 10
239.95
 20
-256.2
 30
0.0
 40
1.0
  0
CIRCLE
  8
0
 10
255.60999999999999
 20
-256.2
 30
0.0
 40
1.0
  0
CIRCLE
  8
0
 10
286.93
 20
-256.2
 30
0.0
 40
1.0
  0
CIRCLE
  8
0
 10
333.90999999999997
 20
-256.2
 30
0.0
 40
1.0
  0
CIRCLE
  8
0
 10
349.57
 20
-256.2
 30
0.0
 40
1.0
  0
CIRCLE
  8
0
 10
380.89
 20
-256.2
 30
0.0
 40
1.0
  0
CIRCLE
  8
0
 10
412.21
 20
-256.2
 30
0.0
 40
1.0
  0
CIRCLE
  8
0
 10
443.53
 20
-256.2
 30
0.0
 40
1.0
  0
CIRCLE
  8
0
 10
459.18999999999994
 20
-256.2
 30
0.0
 40
1.0
  0
CIRCLE
  8
0
 10
490.50999999999993
 20
-256.2
 30
0.0
 40
1.0
  0
CIRCLE
  8
0
 10
537.4899999999999
 20
-256.2
 30
0.0
 40
1.0
  0
CIRCLE
  8
0
 10
553.1499999999999
 20
-256.2
 30
0.0
 40
1.0
  0
CIRCLE
  8
0
 10
600.1299999999999
 20
-256.2
 30
0.0
 40
1.0
  0
CIRCLE
  8
0
 10
615.7899999999998
 20
-256.2
 30
0.0
 40
1.0
  0
CIRCLE
  8
0
 10
631.4499999999999
 20
-256.2
 30
0.0
 40
1.0
  0
CIRCLE
  8
0
 10
200.8
 20
-260.54999999999995
 30
0.0
 40
1.0
  0
CIRCLE
  8
0
 10
216.46
 20
-260.54999999999995
 30
0.0
 40
1.0
  0
CIRCLE
  8
0
 10
247.78
 20
-260.54999999999995
 30
0.0
 40
1.0
  0
CIRCLE
  8
0
 10
263.44
 20
-260.54999999999995
 30
0.0
 40
1.0
  0
CIRCLE
  8
0
 10
279.09999999999997
 20
-260.54999999999995
 30
0.0
 40
1.0
  0
CIRCLE
  8
0
 10
294.76
 20
-260.54999999999995
 30
0.0
 40
1.0
  0
CIRCLE
  8
0
 10
326.08
 20
-260.54999999999995
 30
0.0
 40
1.0
  0
CIRCLE
  8
0
 10
357.4
 20
-260.54999999999995
 30
0.0
 40
1.0
  0
CIRCLE
  8
0
 10
388.71999999999997
 20
-260.54999999999995
 30
0.0
 40
1.0
  0
CIRCLE
  8
0
 10
404.37999999999994
 20
-260.54999999999995
 30
0.0
 40
1.0
  0
CIRCLE
  8
0
 10
420.03999999999996
 20
-260.54999999999995
 30
0.0
 40
1.0
  0
CIRCLE
  8
0
 10
451.35999999999996
 20
-260.54999999999995
 30
0.0
 40
1.0
  0
CIRCLE
  8
0
 10
467.0199999999999
 20
-260.54999999999995
 30
0.0
 40
1.0
  0
CIRCLE
  8
0
 10
482.67999999999995
 20
-260.54999999999995
 30
0.0
 40
1.0
  0
CIRCLE
  8
0
 10
498.3399999999999
 20
-260.54999999999995
 30
0.0
 40
1.0
  0
CIRCLE
  8
0
 10
529.66
 20
-260.54999999999995
 30
0.0
 40
1.0
  0
CIRCLE
  8
0
 10
545.3199999999999
 20
-260.54999999999995
 30
0.0
 40
1.0
  0
CIRCLE
  8
0
 10
560.9799999999999
 20
-260.54999999999995
 30
0.0
 40
1.0
  0
CIRCLE
  8
0
 10
592.3
 20
-260.54999999999995
 30
0.0
 40
1.0
  0
CIRCLE
  8
0
 10
607.9599999999999
 20
-260.54999999999995
 30
0.0
 40
1.0
  0
CIRCLE
  8
0
 10
623.6199999999999
 20
-260.54999999999995
 30
0.0
 40
1.0
  0
CIRCLE
  8
0
 10
208.63
 20
-264.9
 30
0.0
 40
1.0
  0
CIRCLE
  8
0
 10
224.29
 20
-264.9
 30
0.0
 40
1.0
  0
CIRCLE
  8
0
 10
239.95
 20
-264.9
 30
0.0
 40
1.0
  0
CIRCLE
  8
0
 10
255.60999999999999
 20
-264.9
 30
0.0
 40
1.0
  0
CIRCLE
  8
0
 10
286.93
 20
-264.9
 30
0.0
 40
1.0
  0
CIRCLE
  8
0
 10
302.59
 20
-264.9
 30
0.0
 40
1.0
  0
CIRCLE
  8
0
 10
333.90999999999997
 20
-264.9
 30
0.0
 40
1.0
  0
CIRCLE
  8
0
 10
349.57
 20
-264.9
 30
0.0
 40
1.0
  0
CIRCLE
  8
0
 10
365.22999999999996
 20
-264.9
 30
0.0
 40
1.0
  0
CIRCLE
  8
0
 10
380.89
 20
-264.9
 30
0.0
 40
1.0
  0
CIRCLE
  8
0
 10
412.21
 20
-264.9
 30
0.0
 40
1.0
  0
CIRCLE
  8
0
 10
443.53
 20
-264.9
 30
0.0
 40
1.0
  0
CIRCLE
  8
0
 10
459.18999999999994
 20
-264.9
 30
0.0
 40
1.0
  0
CIRCLE
  8
0
 10
474.84999999999997
 20
-264.9
 30
0.0
 40
1.0
  0
CIRCLE
  8
0
 10
490.50999999999993
 20
-264.9
 30
0.0
 40
1.0
  0
CIRCLE
  8
0
 10
506.16999999999996
 20
-264.9
 30
0.0
 40
1.0
  0
CIRCLE
  8
0
 10
521.8299999999999
 20
-264.9
 30
0.0
 40
1.0
  0
CIRCLE
  8
0
 10
537.4899999999999
 20
-264.9
 30
0.0
 40
1.0
  0
CIRCLE
  8
0
 10
553.1499999999999
 20
-264.9
 30
0.0
 40
1.0
  0
CIRCLE
  8
0
 10
568.81
 20
-264.9
 30
0.0
 40
1.0
  0
CIRCLE
  8
0
 10
600.1299999999999
 20
-264.9
 30
0.0
 40
1.0
  0
CIRCLE
  8
0
 10
615.7899999999998
 20
-264.9
 30
0.0
 40
1.0
  0
CIRCLE
  8
0
 10
247.78
 20
-269.24999999999994
 30
0.0
 40
1.0
  0
CIRCLE
  8
0
 10
279.09999999999997
 20
-269.24999999999994
 30
0.0
 40
1.0
  0
CIRCLE
  8
0
 10
294.76
 20
-269.24999999999994
 30
0.0
 40
1.0
  0
CIRCLE
  8
0
 10
326.08
 20
-269.24999999999994
 30
0.0
 40
1.0
  0
CIRCLE
  8
0
 10
357.4
 20
-269.24999999999994
 30
0.0
 40
1.0
  0
CIRCLE
  8
0
 10
388.71999999999997
 20
-269.24999999999994
 30
0.0
 40
1.0
  0
CIRCLE
  8
0
 10
420.03999999999996
 20
-269.24999999999994
 30
0.0
 40
1.0
  0
CIRCLE
  8
0
 10
451.35999999999996
 20
-269.24999999999994
 30
0.0
 40
1.0
  0
CIRCLE
  8
0
 10
467.0199999999999
 20
-269.24999999999994
 30
0.0
 40
1.0
  0
CIRCLE
  8
0
 10
482.67999999999995
 20
-269.24999999999994
 30
0.0
 40
1.0
  0
CIRCLE
  8
0
 10
498.3399999999999
 20
-269.24999999999994
 30
0.0
 40
1.0
  0
CIRCLE
  8
0
 10
514.0
 20
-269.24999999999994
 30
0.0
 40
1.0
  0
CIRCLE
  8
0
 10
529.66
 20
-269.24999999999994
 30
0.0
 40
1.0
  0
CIRCLE
  8
0
 10
545.3199999999999
 20
-269.24999999999994
 30
0.0
 40
1.0
  0
CIRCLE
  8
0
 10
560.9799999999999
 20
-269.24999999999994
 30
0.0
 40
1.0
  0
CIRCLE
  8
0
 10
607.9599999999999
 20
-269.24999999999994
 30
0.0
 40
1.0
  0
CIRCLE
  8
0
 10
623.6199999999999
 20
-269.24999999999994
 30
0.0
 40
1.0
  0
CIRCLE
  8
0
 10
224.29
 20
-273.59999999999997
 30
0.0
 40
1.0
  0
CIRCLE
  8
0
 10
239.95
 20
-273.59999999999997
 30
0.0
 40
1.0
  0
CIRCLE
  8
0
 10
286.93
 20
-273.59999999999997
 30
0.0
 40
1.0
  0
CIRCLE
  8
0
 10
302.59
 20
-273.59999999999997
 30
0.0
 40
1.0
  0
CIRCLE
  8
0
 10
333.90999999999997
 20
-273.59999999999997
 30
0.0
 40
1.0
  0
CIRCLE
  8
0
 10
349.57
 20
-273.59999999999997
 30
0.0
 40
1.0
  0
CIRCLE
  8
0
 10
365.22999999999996
 20
-273.59999999999997
 30
0.0
 40
1.0
  0
CIRCLE
  8
0
 10
380.89
 20
-273.59999999999997
 30
0.0
 40
1.0
  0
CIRCLE
  8
0
 10
412.21
 20
-273.59999999999997
 30
0.0
 40
1.0
  0
CIRCLE
  8
0
 10
443.53
 20
-273.59999999999997
 30
0.0
 40
1.0
  0
CIRCLE
  8
0
 10
459.18999999999994
 20
-273.59999999999997
 30
0.0
 40
1.0
  0
CIRCLE
  8
0
 10
474.84999999999997
 20
-273.59999999999997
 30
0.0
 40
1.0
  0
CIRCLE
  8
0
 10
490.50999999999993
 20
-273.59999999999997
 30
0.0
 40
1.0
  0
CIRCLE
  8
0
 10
506.16999999999996
 20
-273.59999999999997
 30
0.0
 40
1.0
  0
CIRCLE
  8
0
 10
521.8299999999999
 20
-273.59999999999997
 30
0.0
 40
1.0
  0
CIRCLE
  8
0
 10
537.4899999999999
 20
-273.59999999999997
 30
0.0
 40
1.0
  0
CIRCLE
  8
0
 10
553.1499999999999
 20
-273.59999999999997
 30
0.0
 40
1.0
  0
CIRCLE
  8
0
 10
568.81
 20
-273.59999999999997
 30
0.0
 40
1.0
  0
CIRCLE
  8
0
 10
600.1299999999999
 20
-273.59999999999997
 30
0.0
 40
1.0
  0
CIRCLE
  8
0
 10
615.7899999999998
 20
-273.59999999999997
 30
0.0
 40
1.0
  0
CIRCLE
  8
0
 10
232.12
 20
-277.95
 30
0.0
 40
1.0
  0
CIRCLE
  8
0
 10
279.09999999999997
 20
-277.95
 30
0.0
 40
1.0
  0
CIRCLE
  8
0
 10
357.4
 20
-277.95
 30
0.0
 40
1.0
  0
CIRCLE
  8
0
 10
373.05999999999995
 20
-277.95
 30
0.0
 40
1.0
  0
CIRCLE
  8
0
 10
388.71999999999997
 20
-277.95
 30
0.0
 40
1.0
  0
CIRCLE
  8
0
 10
420.03999999999996
 20
-277.95
 30
0.0
 40
1.0
  0
CIRCLE
  8
0
 10
435.69999999999993
 20
-277.95
 30
0.0
 40
1.0
  0
CIRCLE
  8
0
 10
451.35999999999996
 20
-277.95
 30
0.0
 40
1.0
  0
CIRCLE
  8
0
 10
467.0199999999999
 20
-277.95
 30
0.0
 40
1.0
  0
CIRCLE
  8
0
 10
482.67999999999995
 20
-277.95
 30
0.0
 40
1.0
  0
CIRCLE
  8
0
 10
498.3399999999999
 20
-277.95
 30
0.0
 40
1.0
  0
CIRCLE
  8
0
 10
514.0
 20
-277.95
 30
0.0
 40
1.0
  0
CIRCLE
  8
0
 10
529.66
 20
-277.95
 30
0.0
 40
1.0
  0
CIRCLE
  8
0
 10
545.3199999999999
 20
-277.95
 30
0.0
 40
1.0
  0
CIRCLE
  8
0
 10
560.9799999999999
 20
-277.95
 30
0.0
 40
1.0
  0
CIRCLE
  8
0
 10
607.9599999999999
 20
-277.95
 30
0.0
 40
1.0
  0
CIRCLE
  8
0
 10
623.6199999999999
 20
-277.95
 30
0.0
 40
1.0
  0
CIRCLE
  8
0
 10
224.29
 20
-282.29999999999995
 30
0.0
 40
1.0
  0
CIRCLE
  8
0
 10
239.95
 20
-282.29999999999995
 30
0.0
 40
1.0
  0
CIRCLE
  8
0
 10
286.93
 20
-282.29999999999995
 30
0.0
 40
1.0
  0
CIRCLE
  8
0
 10
302.59
 20
-282.29999999999995
 30
0.0
 40
1.0
  0
CIRCLE
  8
0
 10
333.90999999999997
 20
-282.29999999999995
 30
0.0
 40
1.0
  0
CIRCLE
  8
0
 10
365.22999999999996
 20
-282.29999999999995
 30
0.0
 40
1.0
  0
CIRCLE
  8
0
 10
380.89
 20
-282.29999999999995
 30
0.0
 40
1.0
  0
CIRCLE
  8
0
 10
427.86999999999995
 20
-282.29999999999995
 30
0.0
 40
1.0
  0
CIRCLE
  8
0
 10
443.53
 20
-282.29999999999995
 30
0.0
 40
1.0
  0
CIRCLE
  8
0
 10
459.18999999999994
 20
-282.29999999999995
 30
0.0
 40
1.0
  0
CIRCLE
  8
0
 10
474.84999999999997
 20
-282.29999999999995
 30
0.0
 40
1.0
  0
CIRCLE
  8
0
 10
490.50999999999993
 20
-282.29999999999995
 30
0.0
 40
1.0
  0
CIRCLE
  8
0
 10
506.16999999999996
 20
-282.29999999999995
 30
0.0
 40
1.0
  0
CIRCLE
  8
0
 10
521.8299999999999
 20
-282.29999999999995
 30
0.0
 40
1.0
  0
CIRCLE
  8
0
 10
537.4899999999999
 20
-282.29999999999995
 30
0.0
 40
1.0
  0
CIRCLE
  8
0
 10
553.1499999999999
 20
-282.29999999999995
 30
0.0
 40
1.0
  0
CIRCLE
  8
0
 10
615.7899999999998
 20
-282.29999999999995
 30
0.0
 40
1.0
  0
CIRCLE
  8
0
 10
232.12
 20
-286.65
 30
0.0
 40
1.0
  0
CIRCLE
  8
0
 10
310.41999999999996
 20
-286.65
 30
0.0
 40
1.0
  0
CIRCLE
  8
0
 10
357.4
 20
-286.65
 30
0.0
 40
1.0
  0
CIRCLE
  8
0
 10
373.05999999999995
 20
-286.65
 30
0.0
 40
1.0
  0
CIRCLE
  8
0
 10
388.71999999999997
 20
-286.65
 30
0.0
 40
1.0
  0
CIRCLE
  8
0
 10
420.03999999999996
 20
-286.65
 30
0.0
 40
1.0
  0
CIRCLE
  8
0
 10
435.69999999999993
 20
-286.65
 30
0.0
 40
1.0
  0
CIRCLE
  8
0
 10
451.35999999999996
 20
-286.65
 30
0.0
 40
1.0
  0
CIRCLE
  8
0
 10
467.0199999999999
 20
-286.65
 30
0.0
 40
1.0
  0
CIRCLE
  8
0
 10
482.67999999999995
 20
-286.65
 30
0.0
 40
1.0
  0
CIRCLE
  8
0
 10
498.3399999999999
 20
-286.65
 30
0.0
 40
1.0
  0
CIRCLE
  8
0
 10
514.0
 20
-286.65
 30
0.0
 40
1.0
  0
CIRCLE
  8
0
 10
529.66
 20
-286.65
 30
0.0
 40
1.0
  0
CIRCLE
  8
0
 10
545.3199999999999
 20
-286.65
 30
0.0
 40
1.0
  0
CIRCLE
  8
0
 10
560.9799999999999
 20
-286.65
 30
0.0
 40
1.0
  0
CIRCLE
  8
0
 10
576.64
 20
-286.65
 30
0.0
 40
1.0
  0
CIRCLE
  8
0
 10
607.9599999999999
 20
-286.65
 30
0.0
 40
1.0
  0
CIRCLE
  8
0
 10
224.29
 20
-290.99999999999994
 30
0.0
 40
1.0
  0
CIRCLE
  8
0
 10
239.95
 20
-290.99999999999994
 30
0.0
 40
1.0
  0
CIRCLE
  8
0
 10
255.60999999999999
 20
-290.99999999999994
 30
0.0
 40
1.0
  0
CIRCLE
  8
0
 10
286.93
 20
-290.99999999999994
 30
0.0
 40
1.0
  0
CIRCLE
  8
0
 10
302.59
 20
-290.99999999999994
 30
0.0
 40
1.0
  0
CIRCLE
  8
0
 10
333.90999999999997
 20
-290.99999999999994
 30
0.0
 40
1.0
  0
CIRCLE
  8
0
 10
365.22999999999996
 20
-290.99999999999994
 30
0.0
 40
1.0
  0
CIRCLE
  8
0
 10
380.89
 20
-290.99999999999994
 30
0.0
 40
1.0
  0
CIRCLE
  8
0
 10
427.86999999999995
 20
-290.99999999999994
 30
0.0
 40
1.0
  0
CIRCLE
  8
0
 10
443.53
 20
-290.99999999999994
 30
0.0
 40
1.0
  0
CIRCLE
  8
0
 10
459.18999999999994
 20
-290.99999999999994
 30
0.0
 40
1.0
  0
CIRCLE
  8
0
 10
474.84999999999997
 20
-290.99999999999994
 30
0.0
 40
1.0
  0
CIRCLE
  8
0
 10
521.8299999999999
 20
-290.99999999999994
 30
0.0
 40
1.0
  0
CIRCLE
  8
0
 10
537.4899999999999
 20
-290.99999999999994
 30
0.0
 40
1.0
  0
CIRCLE
  8
0
 10
553.1499999999999
 20
-290.99999999999994
 30
0.0
 40
1.0
  0
CIRCLE
  8
0
 10
568.81
 20
-290.99999999999994
 30
0.0
 40
1.0
  0
CIRCLE
  8
0
 10
584.4699999999999
 20
-290.99999999999994
 30
0.0
 40
1.0
  0
CIRCLE
  8
0
 10
600.1299999999999
 20
-290.99999999999994
 30
0.0
 40
1.0
  0
CIRCLE
  8
0
 10
200.8
 20
-295.34999999999997
 30
0.0
 40
1.0
  0
CIRCLE
  8
0
 10
232.12
 20
-295.34999999999997
 30
0.0
 40
1.0
  0
CIRCLE
  8
0
 10
247.78
 20
-295.34999999999997
 30
0.0
 40
1.0
  0
CIRCLE
  8
0
 10
263.44
 20
-295.34999999999997
 30
0.0
 40
1.0
  0
CIRCLE
  8
0
 10
310.41999999999996
 20
-295.34999999999997
 30
0.0
 40
1.0
  0
CIRCLE
  8
0
 10
373.05999999999995
 20
-295.34999999999997
 30
0.0
 40
1.0
  0
CIRCLE
  8
0
 10
388.71999999999997
 20
-295.34999999999997
 30
0.0
 40
1.0
  0
CIRCLE
  8
0
 10
435.69999999999993
 20
-295.34999999999997
 30
0.0
 40
1.0
  0
CIRCLE
  8
0
 10
451.35999999999996
 20
-295.34999999999997
 30
0.0
 40
1.0
  0
CIRCLE
  8
0
 10
467.0199999999999
 20
-295.34999999999997
 30
0.0
 40
1.0
  0
CIRCLE
  8
0
 10
529.66
 20
-295.34999999999997
 30
0.0
 40
1.0
  0
CIRCLE
  8
0
 10
545.3199999999999
 20
-295.34999999999997
 30
0.0
 40
1.0
  0
CIRCLE
  8
0
 10
560.9799999999999
 20
-295.34999999999997
 30
0.0
 40
1.0
  0
CIRCLE
  8
0
 10
576.64
 20
-295.34999999999997
 30
0.0
 40
1.0
  0
CIRCLE
  8
0
 10
592.3
 20
-295.34999999999997
 30
0.0
 40
1.0
  0
CIRCLE
  8
0
 10
607.9599999999999
 20
-295.34999999999997
 30
0.0
 40
1.0
  0
CIRCLE
  8
0
 10
208.63
 20
-299.7
 30
0.0
 40
1.0
  0
CIRCLE
  8
0
 10
224.29
 20
-299.7
 30
0.0
 40
1.0
  0
CIRCLE
  8
0
 10
239.95
 20
-299.7
 30
0.0
 40
1.0
  0
CIRCLE
  8
0
 10
255.60999999999999
 20
-299.7
 30
0.0
 40
1.0
  0
CIRCLE
  8
0
 10
271.27
 20
-299.7
 30
0.0
 40
1.0
  0
CIRCLE
  8
0
 10
286.93
 20
-299.7
 30
0.0
 40
1.0
  0
CIRCLE
  8
0
 10
333.90999999999997
 20
-299.7
 30
0.0
 40
1.0
  0
CIRCLE
  8
0
 10
380.89
 20
-299.7
 30
0.0
 40
1.0
  0
CIRCLE
  8
0
 10
459.18999999999994
 20
-299.7
 30
0.0
 40
1.0
  0
CIRCLE
  8
0
 10
537.4899999999999
 20
-299.7
 30
0.0
 40
1.0
  0
CIRCLE
  8
0
 10
553.1499999999999
 20
-299.7
 30
0.0
 40
1.0
  0
CIRCLE
  8
0
 10
568.81
 20
-299.7
 30
0.0
 40
1.0
  0
CIRCLE
  8
0
 10
584.4699999999999
 20
-299.7
 30
0.0
 40
1.0
  0
CIRCLE
  8
0
 10
600.1299999999999
 20
-299.7
 30
0.0
 40
1.0
  0
CIRCLE
  8
0
 10
200.8
 20
-304.04999999999995
 30
0.0
 40
1.0
  0
CIRCLE
  8
0
 10
216.46
 20
-304.04999999999995
 30
0.0
 40
1.0
  0
CIRCLE
  8
0
 10
232.12
 20
-304.04999999999995
 30
0.0
 40
1.0
  0
CIRCLE
  8
0
 10
247.78
 20
-304.04999999999995
 30
0.0
 40
1.0
  0
CIRCLE
  8
0
 10
263.44
 20
-304.04999999999995
 30
0.0
 40
1.0
  0
CIRCLE
  8
0
 10
310.41999999999996
 20
-304.04999999999995
 30
0.0
 40
1.0
  0
CIRCLE
  8
0
 10
341.73999999999995
 20
-304.04999999999995
 30
0.0
 40
1.0
  0
CIRCLE
  8
0
 10
388.71999999999997
 20
-304.04999999999995
 30
0.0
 40
1.0
  0
CIRCLE
  8
0
 10
560.9799999999999
 20
-304.04999999999995
 30
0.0
 40
1.0
  0
CIRCLE
  8
0
 10
576.64
 20
-304.04999999999995
 30
0.0
 40
1.0
  0
CIRCLE
  8
0
 10
592.3
 20
-304.04999999999995
 30
0.0
 40
1.0
  0
CIRCLE
  8
0
 10
208.63
 20
-308.4
 30
0.0
 40
1.0
  0
CIRCLE
  8
0
 10
224.29
 20
-308.4
 30
0.0
 40
1.0
  0
CIRCLE
  8
0
 10
255.60999999999999
 20
-308.4
 30
0.0
 40
1.0
  0
CIRCLE
  8
0
 10
271.27
 20
-308.4
 30
0.0
 40
1.0
  0
CIRCLE
  8
0
 10
286.93
 20
-308.4
 30
0.0
 40
1.0
  0
CIRCLE
  8
0
 10
318.25
 20
-308.4
 30
0.0
 40
1.0
  0
CIRCLE
  8
0
 10
553.1499999999999
 20
-308.4
 30
0.0
 40
1.0
  0
CIRCLE
  8
0
 10
568.81
 20
-308.4
 30
0.0
 40
1.0
  0
CIRCLE
  8
0
 10
584.4699999999999
 20
-308.4
 30
0.0
 40
1.0
  0
CIRCLE
  8
0
 10
600.1299999999999
 20
-308.4
 30
0.0
 40
1.0
  0
CIRCLE
  8
0
 10
216.46
 20
-312.74999999999994
 30
0.0
 40
1.0
  0
CIRCLE
  8
0
 10
247.78
 20
-312.74999999999994
 30
0.0
 40
1.0
  0
CIRCLE
  8
0
 10
263.44
 20
-312.74999999999994
 30
0.0
 40
1.0
  0
CIRCLE
  8
0
 10
310.41999999999996
 20
-312.74999999999994
 30
0.0
 40
1.0
  0
CIRCLE
  8
0
 10
560.9799999999999
 20
-312.74999999999994
 30
0.0
 40
1.0
  0
CIRCLE
  8
0
 10
576.64
 20
-312.74999999999994
 30
0.0
 40
1.0
  0
CIRCLE
  8
0
 10
592.3
 20
-312.74999999999994
 30
0.0
 40
1.0
  0
CIRCLE
  8
0
 10
607.9599999999999
 20
-312.74999999999994
 30
0.0
 40
1.0
  0
CIRCLE
  8
0
 10
208.63
 20
-317.09999999999997
 30
0.0
 40
1.0
  0
CIRCLE
  8
0
 10
286.93
 20
-317.09999999999997
 30
0.0
 40
1.0
  0
CIRCLE
  8
0
 10
318.25
 20
-317.09999999999997
 30
0.0
 40
1.0
  0
CIRCLE
  8
0
 10
568.81
 20
-317.09999999999997
 30
0.0
 40
1.0
  0
CIRCLE
  8
0
 10
584.4699999999999
 20
-317.09999999999997
 30
0.0
 40
1.0
  0
CIRCLE
  8
0
 10
600.1299999999999
 20
-317.09999999999997
 30
0.0
 40
1.0
  0
CIRCLE
  8
0
 10
615.7899999999998
 20
-317.09999999999997
 30
0.0
 40
1.0
  0
CIRCLE
  8
0
 10
576.64
 20
-321.45
 30
0.0
 40
1.0
  0
CIRCLE
  8
0
 10
592.3
 20
-321.45
 30
0.0
 40
1.0
  0
CIRCLE
  8
0
 10
607.9599999999999
 20
-321.45
 30
0.0
 40
1.0
  0
CIRCLE
  8
0
 10
568.81
 20
-325.79999999999995
 30
0.0
 40
1.0
  0
CIRCLE
  8
0
 10
584.4699999999999
 20
-325.79999999999995
 30
0.0
 40
1.0
  0
CIRCLE
  8
0
 10
600.1299999999999
 20
-325.79999999999995
 30
0.0
 40
1.0
  0
CIRCLE
  8
0
 10
615.7899999999998
 20
-325.79999999999995
 30
0.0
 40
1.0
  0
CIRCLE
  8
0
 10
576.64
 20
-330.15
 30
0.0
 40
1.0
  0
CIRCLE
  8
0
 10
592.3
 20
-330.15
 30
0.0
 40
1.0
  0
CIRCLE
  8
0
 10
607.9599999999999
 20
-330.15
 30
0.0
 40
1.0
  0
CIRCLE
  8
0
 10
623.6199999999999
 20
-330.15
 30
0.0
 40
1.0
  0
CIRCLE
  8
0
 10
568.81
 20
-334.49999999999994
 30
0.0
 40
1.0
  0
CIRCLE
  8
0
 10
584.4699999999999
 20
-334.49999999999994
 30
0.0
 40
1.0
  0
CIRCLE
  8
0
 10
600.1299999999999
 20
-334.49999999999994
 30
0.0
 40
1.0
  0
CIRCLE
  8
0
 10
615.7899999999998
 20
-334.49999999999994
 30
0.0
 40
1.0
  0
CIRCLE
  8
0
 10
576.64
 20
-338.84999999999997
 30
0.0
 40
1.0
  0
CIRCLE
  8
0
 10
592.3
 20
-338.84999999999997
 30
0.0
 40
1.0
  0
CIRCLE
  8
0
 10
607.9599999999999
 20
-338.84999999999997
 30
0.0
 40
1.0
  0
CIRCLE
  8
0
 10
568.81
 20
-343.2
 30
0.0
 40
1.0
  0
CIRCLE
  8
0
 10
584.4699999999999
 20
-343.2
 30
0.0
 40
1.0
  0
CIRCLE
  8
0
 10
600.1299999999999
 20
-343.2
 30
0.0
 40
1.0
  0
CIRCLE
  8
0
 10
615.7899999999998
 20
-343.2
 30
0.0
 40
1.0
  0
CIRCLE
  8
0
 10
560.9799999999999
 20
-347.54999999999995
 30
0.0
 40
1.0
  0
CIRCLE
  8
0
 10
576.64
 20
-347.54999999999995
 30
0.0
 40
1.0
  0
CIRCLE
  8
0
 10
592.3
 20
-347.54999999999995
 30
0.0
 40
1.0
  0
CIRCLE
  8
0
 10
607.9599999999999
 20
-347.54999999999995
 30
0.0
 40
1.0
  0
CIRCLE
  8
0
 10
568.81
 20
-351.9
 30
0.0
 40
1.0
  0
CIRCLE
  8
0
 10
584.4699999999999
 20
-351.9
 30
0.0
 40
1.0
  0
CIRCLE
  8
0
 10
600.1299999999999
 20
-351.9
 30
0.0
 40
1.0
  0
CIRCLE
  8
0
 10
615.7899999999998
 20
-351.9
 30
0.0
 40
1.0
  0
CIRCLE
  8
0
 10
560.9799999999999
 20
-356.24999999999994
 30
0.0
 40
1.0
  0
CIRCLE
  8
0
 10
576.64
 20
-356.24999999999994
 30
0.0
 40
1.0
  0
CIRCLE
  8
0
 10
592.3
 20
-356.24999999999994
 30
0.0
 40
1.0
  0
CIRCLE
  8
0
 10
607.9599999999999
 20
-356.24999999999994
 30
0.0
 40
1.0
  0
CIRCLE
  8
0
 10
568.81
 20
-360.59999999999997
 30
0.0
 40
1.0
  0
CIRCLE
  8
0
 10
584.4699999999999
 20
-360.59999999999997
 30
0.0
 40
1.0
  0
CIRCLE
  8
0
 10
600.1299999999999
 20
-360.59999999999997
 30
0.0
 40
1.0
  0
CIRCLE
  8
0
 10
615.7899999999998
 20
-360.59999999999997
 30
0.0
 40
1.0
  0
CIRCLE
  8
0
 10
576.64
 20
-364.94999999999993
 30
0.0
 40
1.0
  0
CIRCLE
  8
0
 10
592.3
 20
-364.94999999999993
 30
0.0
 40
1.0
  0
CIRCLE
  8
0
 10
607.9599999999999
 20
-364.94999999999993
 30
0.0
 40
1.0
  0
CIRCLE
  8
0
 10
568.81
 20
-369.29999999999995
 30
0.0
 40
1.0
  0
CIRCLE
  8
0
 10
584.4699999999999
 20
-369.29999999999995
 30
0.0
 40
1.0
  0
CIRCLE
  8
0
 10
600.1299999999999
 20
-369.29999999999995
 30
0.0
 40
1.0
  0
CIRCLE
  8
0
 10
615.7899999999998
 20
-369.29999999999995
 30
0.0
 40
1.0
  0
CIRCLE
  8
0
 10
576.64
 20
-373.65
 30
0.0
 40
1.0
  0
CIRCLE
  8
0
 10
592.3
 20
-373.65
 30
0.0
 40
1.0
  0
CIRCLE
  8
0
 10
498.3399999999999
 20
-391.04999999999995
 30
0.0
 40
1.0
  0
CIRCLE
  8
0
 10
514.0
 20
-391.04999999999995
 30
0.0
 40
1.0
  0
CIRCLE
  8
0
 10
490.50999999999993
 20
-395.4
 30
0.0
 40
1.0
  0
CIRCLE
  8
0
 10
506.16999999999996
 20
-395.4
 30
0.0
 40
1.0
  0
CIRCLE
  8
0
 10
521.8299999999999
 20
-395.4
 30
0.0
 40
1.0
  0
CIRCLE
  8
0
 10
537.4899999999999
 20
-395.4
 30
0.0
 40
1.0
  0
CIRCLE
  8
0
 10
482.67999999999995
 20
-399.74999999999994
 30
0.0
 40
1.0
  0
CIRCLE
  8
0
 10
498.3399999999999
 20
-399.74999999999994
 30
0.0
 40
1.0
  0
CIRCLE
  8
0
 10
514.0
 20
-399.74999999999994
 30
0.0
 40
1.0
  0
CIRCLE
  8
0
 10
529.66
 20
-399.74999999999994
 30
0.0
 40
1.0
  0
CIRCLE
  8
0
 10
545.3199999999999
 20
-399.74999999999994
 30
0.0
 40
1.0
  0
CIRCLE
  8
0
 10
474.84999999999997
 20
-404.09999999999997
 30
0.0
 40
1.0
  0
CIRCLE
  8
0
 10
490.50999999999993
 20
-404.09999999999997
 30
0.0
 40
1.0
  0
CIRCLE
  8
0
 10
506.16999999999996
 20
-404.09999999999997
 30
0.0
 40
1.0
  0
CIRCLE
  8
0
 10
521.8299999999999
 20
-404.09999999999997
 30
0.0
 40
1.0
  0
CIRCLE
  8
0
 10
537.4899999999999
 20
-404.09999999999997
 30
0.0
 40
1.0
  0
CIRCLE
  8
0
 10
467.0199999999999
 20
-408.44999999999993
 30
0.0
 40
1.0
  0
CIRCLE
  8
0
 10
482.67999999999995
 20
-408.44999999999993
 30
0.0
 40
1.0
  0
CIRCLE
  8
0
 10
498.3399999999999
 20
-408.44999999999993
 30
0.0
 40
1.0
  0
CIRCLE
  8
0
 10
514.0
 20
-408.44999999999993
 30
0.0
 40
1.0
  0
CIRCLE
  8
0
 10
529.66
 20
-408.44999999999993
 30
0.0
 40
1.0
  0
CIRCLE
  8
0
 10
545.3199999999999
 20
-408.44999999999993
 30
0.0
 40
1.0
  0
CIRCLE
  8
0
 10
459.18999999999994
 20
-412.79999999999995
 30
0.0
 40
1.0
  0
CIRCLE
  8
0
 10
474.84999999999997
 20
-412.79999999999995
 30
0.0
 40
1.0
  0
CIRCLE
  8
0
 10
490.50999999999993
 20
-412.79999999999995
 30
0.0
 40
1.0
  0
CIRCLE
  8
0
 10
506.16999999999996
 20
-412.79999999999995
 30
0.0
 40
1.0
  0
CIRCLE
  8
0
 10
521.8299999999999
 20
-412.79999999999995
 30
0.0
 40
1.0
  0
CIRCLE
  8
0
 10
537.4899999999999
 20
-412.79999999999995
 30
0.0
 40
1.0
  0
CIRCLE
  8
0
 10
185.14000000000001
 20
-417.15
 30
0.0
 40
1.0
  0
CIRCLE
  8
0
 10
467.0199999999999
 20
-417.15
 30
0.0
 40
1.0
  0
CIRCLE
  8
0
 10
482.67999999999995
 20
-417.15
 30
0.0
 40
1.0
  0
CIRCLE
  8
0
 10
498.3399999999999
 20
-417.15
 30
0.0
 40
1.0
  0
CIRCLE
  8
0
 10
514.0
 20
-417.15
 30
0.0
 40
1.0
  0
CIRCLE
  8
0
 10
529.66
 20
-417.15
 30
0.0
 40
1.0
  0
CIRCLE
  8
0
 10
545.3199999999999
 20
-417.15
 30
0.0
 40
1.0
  0
CIRCLE
  8
0
 10
560.9799999999999
 20
-417.15
 30
0.0
 40
1.0
  0
CIRCLE
  8
0
 10
161.65
 20
-421.49999999999994
 30
0.0
 40
1.0
  0
CIRCLE
  8
0
 10
177.31
 20
-421.49999999999994
 30
0.0
 40
1.0
  0
CIRCLE
  8
0
 10
192.97
 20
-421.49999999999994
 30
0.0
 40
1.0
  0
CIRCLE
  8
0
 10
208.63
 20
-421.49999999999994
 30
0.0
 40
1.0
  0
CIRCLE
  8
0
 10
459.18999999999994
 20
-421.49999999999994
 30
0.0
 40
1.0
  0
CIRCLE
  8
0
 10
474.84999999999997
 20
-421.49999999999994
 30
0.0
 40
1.0
  0
CIRCLE
  8
0
 10
490.50999999999993
 20
-421.49999999999994
 30
0.0
 40
1.0
  0
CIRCLE
  8
0
 10
506.16999999999996
 20
-421.49999999999994
 30
0.0
 40
1.0
  0
CIRCLE
  8
0
 10
521.8299999999999
 20
-421.49999999999994
 30
0.0
 40
1.0
  0
CIRCLE
  8
0
 10
537.4899999999999
 20
-421.49999999999994
 30
0.0
 40
1.0
  0
CIRCLE
  8
0
 10
553.1499999999999
 20
-421.49999999999994
 30
0.0
 40
1.0
  0
CIRCLE
  8
0
 10
169.48000000000002
 20
-425.84999999999997
 30
0.0
 40
1.0
  0
CIRCLE
  8
0
 10
185.14000000000001
 20
-425.84999999999997
 30
0.0
 40
1.0
  0
CIRCLE
  8
0
 10
200.8
 20
-425.84999999999997
 30
0.0
 40
1.0
  0
CIRCLE
  8
0
 10
216.46
 20
-425.84999999999997
 30
0.0
 40
1.0
  0
CIRCLE
  8
0
 10
451.35999999999996
 20
-425.84999999999997
 30
0.0
 40
1.0
  0
CIRCLE
  8
0
 10
467.0199999999999
 20
-425.84999999999997
 30
0.0
 40
1.0
  0
CIRCLE
  8
0
 10
482.67999999999995
 20
-425.84999999999997
 30
0.0
 40
1.0
  0
CIRCLE
  8
0
 10
498.3399999999999
 20
-425.84999999999997
 30
0.0
 40
1.0
  0
CIRCLE
  8
0
 10
514.0
 20
-425.84999999999997
 30
0.0
 40
1.0
  0
CIRCLE
  8
0
 10
529.66
 20
-425.84999999999997
 30
0.0
 40
1.0
  0
CIRCLE
  8
0
 10
545.3199999999999
 20
-425.84999999999997
 30
0.0
 40
1.0
  0
CIRCLE
  8
0
 10
161.65
 20
-430.19999999999993
 30
0.0
 40
1.0
  0
CIRCLE
  8
0
 10
177.31
 20
-430.19999999999993
 30
0.0
 40
1.0
  0
CIRCLE
  8
0
 10
192.97
 20
-430.19999999999993
 30
0.0
 40
1.0
  0
CIRCLE
  8
0
 10
208.63
 20
-430.19999999999993
 30
0.0
 40
1.0
  0
CIRCLE
  8
0
 10
224.29
 20
-430.19999999999993
 30
0.0
 40
1.0
  0
CIRCLE
  8
0
 10
443.53
 20
-430.19999999999993
 30
0.0
 40
1.0
  0
CIRCLE
  8
0
 10
459.18999999999994
 20
-430.19999999999993
 30
0.0
 40
1.0
  0
CIRCLE
  8
0
 10
474.84999999999997
 20
-430.19999999999993
 30
0.0
 40
1.0
  0
CIRCLE
  8
0
 10
490.50999999999993
 20
-430.19999999999993
 30
0.0
 40
1.0
  0
CIRCLE
  8
0
 10
506.16999999999996
 20
-430.19999999999993
 30
0.0
 40
1.0
  0
CIRCLE
  8
0
 10
521.8299999999999
 20
-430.19999999999993
 30
0.0
 40
1.0
  0
CIRCLE
  8
0
 10
537.4899999999999
 20
-430.19999999999993
 30
0.0
 40
1.0
  0
CIRCLE
  8
0
 10
553.1499999999999
 20
-430.19999999999993
 30
0.0
 40
1.0
  0
CIRCLE
  8
0
 10
153.82000000000002
 20
-434.54999999999995
 30
0.0
 40
1.0
  0
CIRCLE
  8
0
 10
169.48000000000002
 20
-434.54999999999995
 30
0.0
 40
1.0
  0
CIRCLE
  8
0
 10
185.14000000000001
 20
-434.54999999999995
 30
0.0
 40
1.0
  0
CIRCLE
  8
0
 10
200.8
 20
-434.54999999999995
 30
0.0
 40
1.0
  0
CIRCLE
  8
0
 10
216.46
 20
-434.54999999999995
 30
0.0
 40
1.0
  0
CIRCLE
  8
0
 10
232.12
 20
-434.54999999999995
 30
0.0
 40
1.0
  0
CIRCLE
  8
0
 10
435.69999999999993
 20
-434.54999999999995
 30
0.0
 40
1.0
  0
CIRCLE
  8
0
 10
451.35999999999996
 20
-434.54999999999995
 30
0.0
 40
1.0
  0
CIRCLE
  8
0
 10
467.0199999999999
 20
-434.54999999999995
 30
0.0
 40
1.0
  0
CIRCLE
  8
0
 10
482.67999999999995
 20
-434.54999999999995
 30
0.0
 40
1.0
  0
CIRCLE
  8
0
 10
498.3399999999999
 20
-434.54999999999995
 30
0.0
 40
1.0
  0
CIRCLE
  8
0
 10
514.0
 20
-434.54999999999995
 30
0.0
 40
1.0
  0
CIRCLE
  8
0
 10
529.66
 20
-434.54999999999995
 30
0.0
 40
1.0
  0
CIRCLE
  8
0
 10
545.3199999999999
 20
-434.54999999999995
 30
0.0
 40
1.0
  0
CIRCLE
  8
0
 10
145.99
 20
-438.9
 30
0.0
 40
1.0
  0
CIRCLE
  8
0
 10
161.65
 20
-438.9
 30
0.0
 40
1.0
  0
CIRCLE
  8
0
 10
177.31
 20
-438.9
 30
0.0
 40
1.0
  0
CIRCLE
  8
0
 10
192.97
 20
-438.9
 30
0.0
 40
1.0
  0
CIRCLE
  8
0
 10
208.63
 20
-438.9
 30
0.0
 40
1.0
  0
CIRCLE
  8
0
 10
224.29
 20
-438.9
 30
0.0
 40
1.0
  0
CIRCLE
  8
0
 10
239.95
 20
-438.9
 30
0.0
 40
1.0
  0
CIRCLE
  8
0
 10
443.53
 20
-438.9
 30
0.0
 40
1.0
  0
CIRCLE
  8
0
 10
459.18999999999994
 20
-438.9
 30
0.0
 40
1.0
  0
CIRCLE
  8
0
 10
474.84999999999997
 20
-438.9
 30
0.0
 40
1.0
  0
CIRCLE
  8
0
 10
490.50999999999993
 20
-438.9
 30
0.0
 40
1.0
  0
CIRCLE
  8
0
 10
506.16999999999996
 20
-438.9
 30
0.0
 40
1.0
  0
CIRCLE
  8
0
 10
521.8299999999999
 20
-438.9
 30
0.0
 40
1.0
  0
CIRCLE
  8
0
 10
537.4899999999999
 20
-438.9
 30
0.0
 40
1.0
  0
CIRCLE
  8
0
 10
138.16
 20
-443.24999999999994
 30
0.0
 40
1.0
  0
CIRCLE
  8
0
 10
153.82000000000002
 20
-443.24999999999994
 30
0.0
 40
1.0
  0
CIRCLE
  8
0
 10
169.48000000000002
 20
-443.24999999999994
 30
0.0
 40
1.0
  0
CIRCLE
  8
0
 10
185.14000000000001
 20
-443.24999999999994
 30
0.0
 40
1.0
  0
CIRCLE
  8
0
 10
200.8
 20
-443.24999999999994
 30
0.0
 40
1.0
  0
CIRCLE
  8
0
 10
216.46
 20
-443.24999999999994
 30
0.0
 40
1.0
  0
CIRCLE
  8
0
 10
232.12
 20
-443.24999999999994
 30
0.0
 40
1.0
  0
CIRCLE
  8
0
 10
435.69999999999993
 20
-443.24999999999994
 30
0.0
 40
1.0
  0
CIRCLE
  8
0
 10
451.35999999999996
 20
-443.24999999999994
 30
0.0
 40
1.0
  0
CIRCLE
  8
0
 10
467.0199999999999
 20
-443.24999999999994
 30
0.0
 40
1.0
  0
CIRCLE
  8
0
 10
514.0
 20
-443.24999999999994
 30
0.0
 40
1.0
  0
CIRCLE
  8
0
 10
529.66
 20
-443.24999999999994
 30
0.0
 40
1.0
  0
CIRCLE
  8
0
 10
545.3199999999999
 20
-443.24999999999994
 30
0.0
 40
1.0
  0
CIRCLE
  8
0
 10
130.32999999999998
 20
-447.59999999999997
 30
0.0
 40
1.0
  0
CIRCLE
  8
0
 10
145.99
 20
-447.59999999999997
 30
0.0
 40
1.0
  0
CIRCLE
  8
0
 10
161.65
 20
-447.59999999999997
 30
0.0
 40
1.0
  0
CIRCLE
  8
0
 10
177.31
 20
-447.59999999999997
 30
0.0
 40
1.0
  0
CIRCLE
  8
0
 10
192.97
 20
-447.59999999999997
 30
0.0
 40
1.0
  0
CIRCLE
  8
0
 10
208.63
 20
-447.59999999999997
 30
0.0
 40
1.0
  0
CIRCLE
  8
0
 10
224.29
 20
-447.59999999999997
 30
0.0
 40
1.0
  0
CIRCLE
  8
0
 10
239.95
 20
-447.59999999999997
 30
0.0
 40
1.0
  0
CIRCLE
  8
0
 10
255.60999999999999
 20
-447.59999999999997
 30
0.0
 40
1.0
  0
CIRCLE
  8
0
 10
427.86999999999995
 20
-447.59999999999997
 30
0.0
 40
1.0
  0
CIRCLE
  8
0
 10
443.53
 20
-447.59999999999997
 30
0.0
 40
1.0
  0
CIRCLE
  8
0
 10
459.18999999999994
 20
-447.59999999999997
 30
0.0
 40
1.0
  0
CIRCLE
  8
0
 10
474.84999999999997
 20
-447.59999999999997
 30
0.0
 40
1.0
  0
CIRCLE
  8
0
 10
506.16999999999996
 20
-447.59999999999997
 30
0.0
 40
1.0
  0
CIRCLE
  8
0
 10
521.8299999999999
 20
-447.59999999999997
 30
0.0
 40
1.0
  0
CIRCLE
  8
0
 10
537.4899999999999
 20
-447.59999999999997
 30
0.0
 40
1.0
  0
CIRCLE
  8
0
 10
138.16
 20
-451.94999999999993
 30
0.0
 40
1.0
  0
CIRCLE
  8
0
 10
153.82000000000002
 20
-451.94999999999993
 30
0.0
 40
1.0
  0
CIRCLE
  8
0
 10
169.48000000000002
 20
-451.94999999999993
 30
0.0
 40
1.0
  0
CIRCLE
  8
0
 10
185.14000000000001
 20
-451.94999999999993
 30
0.0
 40
1.0
  0
CIRCLE
  8
0
 10
200.8
 20
-451.94999999999993
 30
0.0
 40
1.0
  0
CIRCLE
  8
0
 10
216.46
 20
-451.94999999999993
 30
0.0
 40
1.0
  0
CIRCLE
  8
0
 10
232.12
 20
-451.94999999999993
 30
0.0
 40
1.0
  0
CIRCLE
  8
0
 10
247.78
 20
-451.94999999999993
 30
0.0
 40
1.0
  0
CIRCLE
  8
0
 10
420.03999999999996
 20
-451.94999999999993
 30
0.0
 40
1.0
  0
CIRCLE
  8
0
 10
435.69999999999993
 20
-451.94999999999993
 30
0.0
 40
1.0
  0
CIRCLE
  8
0
 10
451.35999999999996
 20
-451.94999999999993
 30
0.0
 40
1.0
  0
CIRCLE
  8
0
 10
467.0199999999999
 20
-451.94999999999993
 30
0.0
 40
1.0
  0
CIRCLE
  8
0
 10
498.3399999999999
 20
-451.94999999999993
 30
0.0
 40
1.0
  0
CIRCLE
  8
0
 10
514.0
 20
-451.94999999999993
 30
0.0
 40
1.0
  0
CIRCLE
  8
0
 10
529.66
 20
-451.94999999999993
 30
0.0
 40
1.0
  0
CIRCLE
  8
0
 10
545.3199999999999
 20
-451.94999999999993
 30
0.0
 40
1.0
  0
CIRCLE
  8
0
 10
130.32999999999998
 20
-456.29999999999995
 30
0.0
 40
1.0
  0
CIRCLE
  8
0
 10
145.99
 20
-456.29999999999995
 30
0.0
 40
1.0
  0
CIRCLE
  8
0
 10
161.65
 20
-456.29999999999995
 30
0.0
 40
1.0
  0
CIRCLE
  8
0
 10
177.31
 20
-456.29999999999995
 30
0.0
 40
1.0
  0
CIRCLE
  8
0
 10
192.97
 20
-456.29999999999995
 30
0.0
 40
1.0
  0
CIRCLE
  8
0
 10
208.63
 20
-456.29999999999995
 30
0.0
 40
1.0
  0
CIRCLE
  8
0
 10
224.29
 20
-456.29999999999995
 30
0.0
 40
1.0
  0
CIRCLE
  8
0
 10
239.95
 20
-456.29999999999995
 30
0.0
 40
1.0
  0
CIRCLE
  8
0
 10
255.60999999999999
 20
-456.29999999999995
 30
0.0
 40
1.0
  0
CIRCLE
  8
0
 10
412.21
 20
-456.29999999999995
 30
0.0
 40
1.0
  0
CIRCLE
  8
0
 10
427.86999999999995
 20
-456.29999999999995
 30
0.0
 40
1.0
  0
CIRCLE
  8
0
 10
443.53
 20
-456.29999999999995
 30
0.0
 40
1.0
  0
CIRCLE
  8
0
 10
459.18999999999994
 20
-456.29999999999995
 30
0.0
 40
1.0
  0
CIRCLE
  8
0
 10
506.16999999999996
 20
-456.29999999999995
 30
0.0
 40
1.0
  0
CIRCLE
  8
0
 10
521.8299999999999
 20
-456.29999999999995
 30
0.0
 40
1.0
  0
CIRCLE
  8
0
 10
537.4899999999999
 20
-456.29999999999995
 30
0.0
 40
1.0
  0
CIRCLE
  8
0
 10
138.16
 20
-460.65
 30
0.0
 40
1.0
  0
CIRCLE
  8
0
 10
153.82000000000002
 20
-460.65
 30
0.0
 40
1.0
  0
CIRCLE
  8
0
 10
169.48000000000002
 20
-460.65
 30
0.0
 40
1.0
  0
CIRCLE
  8
0
 10
185.14000000000001
 20
-460.65
 30
0.0
 40
1.0
  0
CIRCLE
  8
0
 10
200.8
 20
-460.65
 30
0.0
 40
1.0
  0
CIRCLE
  8
0
 10
216.46
 20
-460.65
 30
0.0
 40
1.0
  0
CIRCLE
  8
0
 10
232.12
 20
-460.65
 30
0.0
 40
1.0
  0
CIRCLE
  8
0
 10
247.78
 20
-460.65
 30
0.0
 40
1.0
  0
CIRCLE
  8
0
 10
263.44
 20
-460.65
 30
0.0
 40
1.0
  0
CIRCLE
  8
0
 10
279.09999999999997
 20
-460.65
 30
0.0
 40
1.0
  0
CIRCLE
  8
0
 10
388.71999999999997
 20
-460.65
 30
0.0
 40
1.0
  0
CIRCLE
  8
0
 10
404.37999999999994
 20
-460.65
 30
0.0
 40
1.0
  0
CIRCLE
  8
0
 10
420.03999999999996
 20
-460.65
 30
0.0
 40
1.0
  0
CIRCLE
  8
0
 10
451.35999999999996
 20
-460.65
 30
0.0
 40
1.0
  0
CIRCLE
  8
0
 10
498.3399999999999
 20
-460.65
 30
0.0
 40
1.0
  0
CIRCLE
  8
0
 10
514.0
 20
-460.65
 30
0.0
 40
1.0
  0
CIRCLE
  8
0
 10
529.66
 20
-460.65
 30
0.0
 40
1.0
  0
CIRCLE
  8
0
 10
545.3199999999999
 20
-460.65
 30
0.0
 40
1.0
  0
CIRCLE
  8
0
 10
130.32999999999998
 20
-464.99999999999994
 30
0.0
 40
1.0
  0
CIRCLE
  8
0
 10
145.99
 20
-464.99999999999994
 30
0.0
 40
1.0
  0
CIRCLE
  8
0
 10
161.65
 20
-464.99999999999994
 30
0.0
 40
1.0
  0
CIRCLE
  8
0
 10
177.31
 20
-464.99999999999994
 30
0.0
 40
1.0
  0
CIRCLE
  8
0
 10
192.97
 20
-464.99999999999994
 30
0.0
 40
1.0
  0
CIRCLE
  8
0
 10
208.63
 20
-464.99999999999994
 30
0.0
 40
1.0
  0
CIRCLE
  8
0
 10
224.29
 20
-464.99999999999994
 30
0.0
 40
1.0
  0
CIRCLE
  8
0
 10
239.95
 20
-464.99999999999994
 30
0.0
 40
1.0
  0
CIRCLE
  8
0
 10
255.60999999999999
 20
-464.99999999999994
 30
0.0
 40
1.0
  0
CIRCLE
  8
0
 10
271.27
 20
-464.99999999999994
 30
0.0
 40
1.0
  0
CIRCLE
  8
0
 10
286.93
 20
-464.99999999999994
 30
0.0
 40
1.0
  0
CIRCLE
  8
0
 10
396.54999999999995
 20
-464.99999999999994
 30
0.0
 40
1.0
  0
CIRCLE
  8
0
 10
412.21
 20
-464.99999999999994
 30
0.0
 40
1.0
  0
CIRCLE
  8
0
 10
490.50999999999993
 20
-464.99999999999994
 30
0.0
 40
1.0
  0
CIRCLE
  8
0
 10
506.16999999999996
 20
-464.99999999999994
 30
0.0
 40
1.0
  0
CIRCLE
  8
0
 10
521.8299999999999
 20
-464.99999999999994
 30
0.0
 40
1.0
  0
CIRCLE
  8
0
 10
537.4899999999999
 20
-464.99999999999994
 30
0.0
 40
1.0
  0
CIRCLE
  8
0
 10
138.16
 20
-469.34999999999997
 30
0.0
 40
1.0
  0
CIRCLE
  8
0
 10
153.82000000000002
 20
-469.34999999999997
 30
0.0
 40
1.0
  0
CIRCLE
  8
0
 10
169.48000000000002
 20
-469.34999999999997
 30
0.0
 40
1.0
  0
CIRCLE
  8
0
 10
185.14000000000001
 20
-469.34999999999997
 30
0.0
 40
1.0
  0
CIRCLE
  8
0
 10
200.8
 20
-469.34999999999997
 30
0.0
 40
1.0
  0
CIRCLE
  8
0
 10
216.46
 20
-469.34999999999997
 30
0.0
 40
1.0
  0
CIRCLE
  8
0
 10
232.12
 20
-469.34999999999997
 30
0.0
 40
1.0
  0
CIRCLE
  8
0
 10
247.78
 20
-469.34999999999997
 30
0.0
 40
1.0
  0
CIRCLE
  8
0
 10
263.44
 20
-469.34999999999997
 30
0.0
 40
1.0
  0
CIRCLE
  8
0
 10
279.09999999999997
 20
-469.34999999999997
 30
0.0
 40
1.0
  0
CIRCLE
  8
0
 10
294.76
 20
-469.34999999999997
 30
0.0
 40
1.0
  0
CIRCLE
  8
0
 10
310.41999999999996
 20
-469.34999999999997
 30
0.0
 40
1.0
  0
CIRCLE
  8
0
 10
388.71999999999997
 20
-469.34999999999997
 30
0.0
 40
1.0
  0
CIRCLE
  8
0
 10
404.37999999999994
 20
-469.34999999999997
 30
0.0
 40
1.0
  0
CIRCLE
  8
0
 10
420.03999999999996
 20
-469.34999999999997
 30
0.0
 40
1.0
  0
CIRCLE
  8
0
 10
482.67999999999995
 20
-469.34999999999997
 30
0.0
 40
1.0
  0
CIRCLE
  8
0
 10
498.3399999999999
 20
-469.34999999999997
 30
0.0
 40
1.0
  0
CIRCLE
  8
0
 10
514.0
 20
-469.34999999999997
 30
0.0
 40
1.0
  0
CIRCLE
  8
0
 10
529.66
 20
-469.34999999999997
 30
0.0
 40
1.0
  0
CIRCLE
  8
0
 10
130.32999999999998
 20
-473.69999999999993
 30
0.0
 40
1.0
  0
CIRCLE
  8
0
 10
145.99
 20
-473.69999999999993
 30
0.0
 40
1.0
  0
CIRCLE
  8
0
 10
161.65
 20
-473.69999999999993
 30
0.0
 40
1.0
  0
CIRCLE
  8
0
 10
177.31
 20
-473.69999999999993
 30
0.0
 40
1.0
  0
CIRCLE
  8
0
 10
192.97
 20
-473.69999999999993
 30
0.0
 40
1.0
  0
CIRCLE
  8
0
 10
208.63
 20
-473.69999999999993
 30
0.0
 40
1.0
  0
CIRCLE
  8
0
 10
224.29
 20
-473.69999999999993
 30
0.0
 40
1.0
  0
CIRCLE
  8
0
 10
239.95
 20
-473.69999999999993
 30
0.0
 40
1.0
  0
CIRCLE
  8
0
 10
255.60999999999999
 20
-473.69999999999993
 30
0.0
 40
1.0
  0
CIRCLE
  8
0
 10
271.27
 20
-473.69999999999993
 30
0.0
 40
1.0
  0
CIRCLE
  8
0
 10
286.93
 20
-473.69999999999993
 30
0.0
 40
1.0
  0
CIRCLE
  8
0
 10
302.59
 20
-473.69999999999993
 30
0.0
 40
1.0
  0
CIRCLE
  8
0
 10
396.54999999999995
 20
-473.69999999999993
 30
0.0
 40
1.0
  0
CIRCLE
  8
0
 10
412.21
 20
-473.69999999999993
 30
0.0
 40
1.0
  0
CIRCLE
  8
0
 10
427.86999999999995
 20
-473.69999999999993
 30
0.0
 40
1.0
  0
CIRCLE
  8
0
 10
443.53
 20
-473.69999999999993
 30
0.0
 40
1.0
  0
CIRCLE
  8
0
 10
459.18999999999994
 20
-473.69999999999993
 30
0.0
 40
1.0
  0
CIRCLE
  8
0
 10
474.84999999999997
 20
-473.69999999999993
 30
0.0
 40
1.0
  0
CIRCLE
  8
0
 10
490.50999999999993
 20
-473.69999999999993
 30
0.0
 40
1.0
  0
CIRCLE
  8
0
 10
506.16999999999996
 20
-473.69999999999993
 30
0.0
 40
1.0
  0
CIRCLE
  8
0
 10
521.8299999999999
 20
-473.69999999999993
 30
0.0
 40
1.0
  0
CIRCLE
  8
0
 10
138.16
 20
-478.04999999999995
 30
0.0
 40
1.0
  0
CIRCLE
  8
0
 10
153.82000000000002
 20
-478.04999999999995
 30
0.0
 40
1.0
  0
CIRCLE
  8
0
 10
169.48000000000002
 20
-478.04999999999995
 30
0.0
 40
1.0
  0
CIRCLE
  8
0
 10
185.14000000000001
 20
-478.04999999999995
 30
0.0
 40
1.0
  0
CIRCLE
  8
0
 10
216.46
 20
-478.04999999999995
 30
0.0
 40
1.0
  0
CIRCLE
  8
0
 10
232.12
 20
-478.04999999999995
 30
0.0
 40
1.0
  0
CIRCLE
  8
0
 10
247.78
 20
-478.04999999999995
 30
0.0
 40
1.0
  0
CIRCLE
  8
0
 10
263.44
 20
-478.04999999999995
 30
0.0
 40
1.0
  0
CIRCLE
  8
0
 10
279.09999999999997
 20
-478.04999999999995
 30
0.0
 40
1.0
  0
CIRCLE
  8
0
 10
294.76
 20
-478.04999999999995
 30
0.0
 40
1.0
  0
CIRCLE
  8
0
 10
310.41999999999996
 20
-478.04999999999995
 30
0.0
 40
1.0
  0
CIRCLE
  8
0
 10
388.71999999999997
 20
-478.04999999999995
 30
0.0
 40
1.0
  0
CIRCLE
  8
0
 10
404.37999999999994
 20
-478.04999999999995
 30
0.0
 40
1.0
  0
CIRCLE
  8
0
 10
420.03999999999996
 20
-478.04999999999995
 30
0.0
 40
1.0
  0
CIRCLE
  8
0
 10
435.69999999999993
 20
-478.04999999999995
 30
0.0
 40
1.0
  0
CIRCLE
  8
0
 10
451.35999999999996
 20
-478.04999999999995
 30
0.0
 40
1.0
  0
CIRCLE
  8
0
 10
467.0199999999999
 20
-478.04999999999995
 30
0.0
 40
1.0
  0
CIRCLE
  8
0
 10
482.67999999999995
 20
-478.04999999999995
 30
0.0
 40
1.0
  0
CIRCLE
  8
0
 10
498.3399999999999
 20
-478.04999999999995
 30
0.0
 40
1.0
  0
CIRCLE
  8
0
 10
514.0
 20
-478.04999999999995
 30
0.0
 40
1.0
  0
CIRCLE
  8
0
 10
529.66
 20
-478.04999999999995
 30
0.0
 40
1.0
  0
CIRCLE
  8
0
 10
145.99
 20
-482.3999999999999
 30
0.0
 40
1.0
  0
CIRCLE
  8
0
 10
161.65
 20
-482.3999999999999
 30
0.0
 40
1.0
  0
CIRCLE
  8
0
 10
177.31
 20
-482.3999999999999
 30
0.0
 40
1.0
  0
CIRCLE
  8
0
 10
224.29
 20
-482.3999999999999
 30
0.0
 40
1.0
  0
CIRCLE
  8
0
 10
239.95
 20
-482.3999999999999
 30
0.0
 40
1.0
  0
CIRCLE
  8
0
 10
255.60999999999999
 20
-482.3999999999999
 30
0.0
 40
1.0
  0
CIRCLE
  8
0
 10
271.27
 20
-482.3999999999999
 30
0.0
 40
1.0
  0
CIRCLE
  8
0
 10
286.93
 20
-482.3999999999999
 30
0.0
 40
1.0
  0
CIRCLE
  8
0
 10
302.59
 20
-482.3999999999999
 30
0.0
 40
1.0
  0
CIRCLE
  8
0
 10
318.25
 20
-482.3999999999999
 30
0.0
 40
1.0
  0
CIRCLE
  8
0
 10
380.89
 20
-482.3999999999999
 30
0.0
 40
1.0
  0
CIRCLE
  8
0
 10
396.54999999999995
 20
-482.3999999999999
 30
0.0
 40
1.0
  0
CIRCLE
  8
0
 10
412.21
 20
-482.3999999999999
 30
0.0
 40
1.0
  0
CIRCLE
  8
0
 10
427.86999999999995
 20
-482.3999999999999
 30
0.0
 40
1.0
  0
CIRCLE
  8
0
 10
443.53
 20
-482.3999999999999
 30
0.0
 40
1.0
  0
CIRCLE
  8
0
 10
459.18999999999994
 20
-482.3999999999999
 30
0.0
 40
1.0
  0
CIRCLE
  8
0
 10
474.84999999999997
 20
-482.3999999999999
 30
0.0
 40
1.0
  0
CIRCLE
  8
0
 10
490.50999999999993
 20
-482.3999999999999
 30
0.0
 40
1.0
  0
CIRCLE
  8
0
 10
506.16999999999996
 20
-482.3999999999999
 30
0.0
 40
1.0
  0
CIRCLE
  8
0
 10
521.8299999999999
 20
-482.3999999999999
 30
0.0
 40
1.0
  0
CIRCLE
  8
0
 10
537.4899999999999
 20
-482.3999999999999
 30
0.0
 40
1.0
  0
CIRCLE
  8
0
 10
138.16
 20
-486.74999999999994
 30
0.0
 40
1.0
  0
CIRCLE
  8
0
 10
153.82000000000002
 20
-486.74999999999994
 30
0.0
 40
1.0
  0
CIRCLE
  8
0
 10
169.48000000000002
 20
-486.74999999999994
 30
0.0
 40
1.0
  0
CIRCLE
  8
0
 10
185.14000000000001
 20
-486.74999999999994
 30
0.0
 40
1.0
  0
CIRCLE
  8
0
 10
216.46
 20
-486.74999999999994
 30
0.0
 40
1.0
  0
CIRCLE
  8
0
 10
232.12
 20
-486.74999999999994
 30
0.0
 40
1.0
  0
CIRCLE
  8
0
 10
247.78
 20
-486.74999999999994
 30
0.0
 40
1.0
  0
CIRCLE
  8
0
 10
279.09999999999997
 20
-486.74999999999994
 30
0.0
 40
1.0
  0
CIRCLE
  8
0
 10
294.76
 20
-486.74999999999994
 30
0.0
 40
1.0
  0
CIRCLE
  8
0
 10
310.41999999999996
 20
-486.74999999999994
 30
0.0
 40
1.0
  0
CIRCLE
  8
0
 10
326.08
 20
-486.74999999999994
 30
0.0
 40
1.0
  0
CIRCLE
  8
0
 10
388.71999999999997
 20
-486.74999999999994
 30
0.0
 40
1.0
  0
CIRCLE
  8
0
 10
404.37999999999994
 20
-486.74999999999994
 30
0.0
 40
1.0
  0
CIRCLE
  8
0
 10
420.03999999999996
 20
-486.74999999999994
 30
0.0
 40
1.0
  0
CIRCLE
  8
0
 10
435.69999999999993
 20
-486.74999999999994
 30
0.0
 40
1.0
  0
CIRCLE
  8
0
 10
451.35999999999996
 20
-486.74999999999994
 30
0.0
 40
1.0
  0
CIRCLE
  8
0
 10
467.0199999999999
 20
-486.74999999999994
 30
0.0
 40
1.0
  0
CIRCLE
  8
0
 10
482.67999999999995
 20
-486.74999999999994
 30
0.0
 40
1.0
  0
CIRCLE
  8
0
 10
498.3399999999999
 20
-486.74999999999994
 30
0.0
 40
1.0
  0
CIRCLE
  8
0
 10
514.0
 20
-486.74999999999994
 30
0.0
 40
1.0
  0
CIRCLE
  8
0
 10
529.66
 20
-486.74999999999994
 30
0.0
 40
1.0
  0
CIRCLE
  8
0
 10
145.99
 20
-491.09999999999997
 30
0.0
 40
1.0
  0
CIRCLE
  8
0
 10
161.65
 20
-491.09999999999997
 30
0.0
 40
1.0
  0
CIRCLE
  8
0
 10
177.31
 20
-491.09999999999997
 30
0.0
 40
1.0
  0
CIRCLE
  8
0
 10
192.97
 20
-491.09999999999997
 30
0.0
 40
1.0
  0
CIRCLE
  8
0
 10
224.29
 20
-491.09999999999997
 30
0.0
 40
1.0
  0
CIRCLE
  8
0
 10
239.95
 20
-491.09999999999997
 30
0.0
 40
1.0
  0
CIRCLE
  8
0
 10
286.93
 20
-491.09999999999997
 30
0.0
 40
1.0
  0
CIRCLE
  8
0
 10
302.59
 20
-491.09999999999997
 30
0.0
 40
1.0
  0
CIRCLE
  8
0
 10
318.25
 20
-491.09999999999997
 30
0.0
 40
1.0
  0
CIRCLE
  8
0
 10
333.90999999999997
 20
-491.09999999999997
 30
0.0
 40
1.0
  0
CIRCLE
  8
0
 10
380.89
 20
-491.09999999999997
 30
0.0
 40
1.0
  0
CIRCLE
  8
0
 10
396.54999999999995
 20
-491.09999999999997
 30
0.0
 40
1.0
  0
CIRCLE
  8
0
 10
412.21
 20
-491.09999999999997
 30
0.0
 40
1.0
  0
CIRCLE
  8
0
 10
427.86999999999995
 20
-491.09999999999997
 30
0.0
 40
1.0
  0
CIRCLE
  8
0
 10
443.53
 20
-491.09999999999997
 30
0.0
 40
1.0
  0
CIRCLE
  8
0
 10
459.18999999999994
 20
-491.09999999999997
 30
0.0
 40
1.0
  0
CIRCLE
  8
0
 10
474.84999999999997
 20
-491.09999999999997
 30
0.0
 40
1.0
  0
CIRCLE
  8
0
 10
490.50999999999993
 20
-491.09999999999997
 30
0.0
 40
1.0
  0
CIRCLE
  8
0
 10
506.16999999999996
 20
-491.09999999999997
 30
0.0
 40
1.0
  0
CIRCLE
  8
0
 10
521.8299999999999
 20
-491.09999999999997
 30
0.0
 40
1.0
  0
CIRCLE
  8
0
 10
153.82000000000002
 20
-495.44999999999993
 30
0.0
 40
1.0
  0
CIRCLE
  8
0
 10
169.48000000000002
 20
-495.44999999999993
 30
0.0
 40
1.0
  0
CIRCLE
  8
0
 10
185.14000000000001
 20
-495.44999999999993
 30
0.0
 40
1.0
  0
CIRCLE
  8
0
 10
200.8
 20
-495.44999999999993
 30
0.0
 40
1.0
  0
CIRCLE
  8
0
 10
232.12
 20
-495.44999999999993
 30
0.0
 40
1.0
  0
CIRCLE
  8
0
 10
279.09999999999997
 20
-495.44999999999993
 30
0.0
 40
1.0
  0
CIRCLE
  8
0
 10
294.76
 20
-495.44999999999993
 30
0.0
 40
1.0
  0
CIRCLE
  8
0
 10
310.41999999999996
 20
-495.44999999999993
 30
0.0
 40
1.0
  0
CIRCLE
  8
0
 10
326.08
 20
-495.44999999999993
 30
0.0
 40
1.0
  0
CIRCLE
  8
0
 10
388.71999999999997
 20
-495.44999999999993
 30
0.0
 40
1.0
  0
CIRCLE
  8
0
 10
404.37999999999994
 20
-495.44999999999993
 30
0.0
 40
1.0
  0
CIRCLE
  8
0
 10
420.03999999999996
 20
-495.44999999999993
 30
0.0
 40
1.0
  0
CIRCLE
  8
0
 10
435.69999999999993
 20
-495.44999999999993
 30
0.0
 40
1.0
  0
CIRCLE
  8
0
 10
451.35999999999996
 20
-495.44999999999993
 30
0.0
 40
1.0
  0
CIRCLE
  8
0
 10
467.0199999999999
 20
-495.44999999999993
 30
0.0
 40
1.0
  0
CIRCLE
  8
0
 10
482.67999999999995
 20
-495.44999999999993
 30
0.0
 40
1.0
  0
CIRCLE
  8
0
 10
498.3399999999999
 20
-495.44999999999993
 30
0.0
 40
1.0
  0
CIRCLE
  8
0
 10
514.0
 20
-495.44999999999993
 30
0.0
 40
1.0
  0
CIRCLE
  8
0
 10
529.66
 20
-495.44999999999993
 30
0.0
 40
1.0
  0
CIRCLE
  8
0
 10
145.99
 20
-499.79999999999995
 30
0.0
 40
1.0
  0
CIRCLE
  8
0
 10
161.65
 20
-499.79999999999995
 30
0.0
 40
1.0
  0
CIRCLE
  8
0
 10
177.31
 20
-499.79999999999995
 30
0.0
 40
1.0
  0
CIRCLE
  8
0
 10
192.97
 20
-499.79999999999995
 30
0.0
 40
1.0
  0
CIRCLE
  8
0
 10
271.27
 20
-499.79999999999995
 30
0.0
 40
1.0
  0
CIRCLE
  8
0
 10
286.93
 20
-499.79999999999995
 30
0.0
 40
1.0
  0
CIRCLE
  8
0
 10
302.59
 20
-499.79999999999995
 30
0.0
 40
1.0
  0
CIRCLE
  8
0
 10
318.25
 20
-499.79999999999995
 30
0.0
 40
1.0
  0
CIRCLE
  8
0
 10
396.54999999999995
 20
-499.79999999999995
 30
0.0
 40
1.0
  0
CIRCLE
  8
0
 10
412.21
 20
-499.79999999999995
 30
0.0
 40
1.0
  0
CIRCLE
  8
0
 10
427.86999999999995
 20
-499.79999999999995
 30
0.0
 40
1.0
  0
CIRCLE
  8
0
 10
443.53
 20
-499.79999999999995
 30
0.0
 40
1.0
  0
CIRCLE
  8
0
 10
459.18999999999994
 20
-499.79999999999995
 30
0.0
 40
1.0
  0
CIRCLE
  8
0
 10
474.84999999999997
 20
-499.79999999999995
 30
0.0
 40
1.0
  0
CIRCLE
  8
0
 10
490.50999999999993
 20
-499.79999999999995
 30
0.0
 40
1.0
  0
CIRCLE
  8
0
 10
506.16999999999996
 20
-499.79999999999995
 30
0.0
 40
1.0
  0
CIRCLE
  8
0
 10
521.8299999999999
 20
-499.79999999999995
 30
0.0
 40
1.0
  0
CIRCLE
  8
0
 10
138.16
 20
-504.1499999999999
 30
0.0
 40
1.0
  0
CIRCLE
  8
0
 10
153.82000000000002
 20
-504.1499999999999
 30
0.0
 40
1.0
  0
CIRCLE
  8
0
 10
169.48000000000002
 20
-504.1499999999999
 30
0.0
 40
1.0
  0
CIRCLE
  8
0
 10
185.14000000000001
 20
-504.1499999999999
 30
0.0
 40
1.0
  0
CIRCLE
  8
0
 10
200.8
 20
-504.1499999999999
 30
0.0
 40
1.0
  0
CIRCLE
  8
0
 10
263.44
 20
-504.1499999999999
 30
0.0
 40
1.0
  0
CIRCLE
  8
0
 10
279.09999999999997
 20
-504.1499999999999
 30
0.0
 40
1.0
  0
CIRCLE
  8
0
 10
294.76
 20
-504.1499999999999
 30
0.0
 40
1.0
  0
CIRCLE
  8
0
 10
310.41999999999996
 20
-504.1499999999999
 30
0.0
 40
1.0
  0
CIRCLE
  8
0
 10
326.08
 20
-504.1499999999999
 30
0.0
 40
1.0
  0
CIRCLE
  8
0
 10
388.71999999999997
 20
-504.1499999999999
 30
0.0
 40
1.0
  0
CIRCLE
  8
0
 10
404.37999999999994
 20
-504.1499999999999
 30
0.0
 40
1.0
  0
CIRCLE
  8
0
 10
420.03999999999996
 20
-504.1499999999999
 30
0.0
 40
1.0
  0
CIRCLE
  8
0
 10
435.69999999999993
 20
-504.1499999999999
 30
0.0
 40
1.0
  0
CIRCLE
  8
0
 10
451.35999999999996
 20
-504.1499999999999
 30
0.0
 40
1.0
  0
CIRCLE
  8
0
 10
467.0199999999999
 20
-504.1499999999999
 30
0.0
 40
1.0
  0
CIRCLE
  8
0
 10
482.67999999999995
 20
-504.1499999999999
 30
0.0
 40
1.0
  0
CIRCLE
  8
0
 10
498.3399999999999
 20
-504.1499999999999
 30
0.0
 40
1.0
  0
CIRCLE
  8
0
 10
514.0
 20
-504.1499999999999
 30
0.0
 40
1.0
  0
CIRCLE
  8
0
 10
145.99
 20
-508.49999999999994
 30
0.0
 40
1.0
  0
CIRCLE
  8
0
 10
161.65
 20
-508.49999999999994
 30
0.0
 40
1.0
  0
CIRCLE
  8
0
 10
177.31
 20
-508.49999999999994
 30
0.0
 40
1.0
  0
CIRCLE
  8
0
 10
192.97
 20
-508.49999999999994
 30
0.0
 40
1.0
  0
CIRCLE
  8
0
 10
208.63
 20
-508.49999999999994
 30
0.0
 40
1.0
  0
CIRCLE
  8
0
 10
224.29
 20
-508.49999999999994
 30
0.0
 40
1.0
  0
CIRCLE
  8
0
 10
239.95
 20
-508.49999999999994
 30
0.0
 40
1.0
  0
CIRCLE
  8
0
 10
255.60999999999999
 20
-508.49999999999994
 30
0.0
 40
1.0
  0
CIRCLE
  8
0
 10
271.27
 20
-508.49999999999994
 30
0.0
 40
1.0
  0
CIRCLE
  8
0
 10
286.93
 20
-508.49999999999994
 30
0.0
 40
1.0
  0
CIRCLE
  8
0
 10
302.59
 20
-508.49999999999994
 30
0.0
 40
1.0
  0
CIRCLE
  8
0
 10
318.25
 20
-508.49999999999994
 30
0.0
 40
1.0
  0
CIRCLE
  8
0
 10
333.90999999999997
 20
-508.49999999999994
 30
0.0
 40
1.0
  0
CIRCLE
  8
0
 10
412.21
 20
-508.49999999999994
 30
0.0
 40
1.0
  0
CIRCLE
  8
0
 10
427.86999999999995
 20
-508.49999999999994
 30
0.0
 40
1.0
  0
CIRCLE
  8
0
 10
443.53
 20
-508.49999999999994
 30
0.0
 40
1.0
  0
CIRCLE
  8
0
 10
459.18999999999994
 20
-508.49999999999994
 30
0.0
 40
1.0
  0
CIRCLE
  8
0
 10
474.84999999999997
 20
-508.49999999999994
 30
0.0
 40
1.0
  0
CIRCLE
  8
0
 10
490.50999999999993
 20
-508.49999999999994
 30
0.0
 40
1.0
  0
CIRCLE
  8
0
 10
506.16999999999996
 20
-508.49999999999994
 30
0.0
 40
1.0
  0
CIRCLE
  8
0
 10
153.82000000000002
 20
-512.85
 30
0.0
 40
1.0
  0
CIRCLE
  8
0
 10
169.48000000000002
 20
-512.85
 30
0.0
 40
1.0
  0
CIRCLE
  8
0
 10
185.14000000000001
 20
-512.85
 30
0.0
 40
1.0
  0
CIRCLE
  8
0
 10
200.8
 20
-512.85
 30
0.0
 40
1.0
  0
CIRCLE
  8
0
 10
216.46
 20
-512.85
 30
0.0
 40
1.0
  0
CIRCLE
  8
0
 10
232.12
 20
-512.85
 30
0.0
 40
1.0
  0
CIRCLE
  8
0
 10
247.78
 20
-512.85
 30
0.0
 40
1.0
  0
CIRCLE
  8
0
 10
263.44
 20
-512.85
 30
0.0
 40
1.0
  0
CIRCLE
  8
0
 10
279.09999999999997
 20
-512.85
 30
0.0
 40
1.0
  0
CIRCLE
  8
0
 10
294.76
 20
-512.85
 30
0.0
 40
1.0
  0
CIRCLE
  8
0
 10
310.41999999999996
 20
-512.85
 30
0.0
 40
1.0
  0
CIRCLE
  8
0
 10
404.37999999999994
 20
-512.85
 30
0.0
 40
1.0
  0
CIRCLE
  8
0
 10
420.03999999999996
 20
-512.85
 30
0.0
 40
1.0
  0
CIRCLE
  8
0
 10
435.69999999999993
 20
-512.85
 30
0.0
 40
1.0
  0
CIRCLE
  8
0
 10
451.35999999999996
 20
-512.85
 30
0.0
 40
1.0
  0
CIRCLE
  8
0
 10
467.0199999999999
 20
-512.85
 30
0.0
 40
1.0
  0
CIRCLE
  8
0
 10
482.67999999999995
 20
-512.85
 30
0.0
 40
1.0
  0
CIRCLE
  8
0
 10
145.99
 20
-517.2
 30
0.0
 40
1.0
  0
CIRCLE
  8
0
 10
161.65
 20
-517.2
 30
0.0
 40
1.0
  0
CIRCLE
  8
0
 10
177.31
 20
-517.2
 30
0.0
 40
1.0
  0
CIRCLE
  8
0
 10
192.97
 20
-517.2
 30
0.0
 40
1.0
  0
CIRCLE
  8
0
 10
208.63
 20
-517.2
 30
0.0
 40
1.0
  0
CIRCLE
  8
0
 10
224.29
 20
-517.2
 30
0.0
 40
1.0
  0
CIRCLE
  8
0
 10
239.95
 20
-517.2
 30
0.0
 40
1.0
  0
CIRCLE
  8
0
 10
255.60999999999999
 20
-517.2
 30
0.0
 40
1.0
  0
CIRCLE
  8
0
 10
271.27
 20
-517.2
 30
0.0
 40
1.0
  0
CIRCLE
  8
0
 10
286.93
 20
-517.2
 30
0.0
 40
1.0
  0
CIRCLE
  8
0
 10
302.59
 20
-517.2
 30
0.0
 40
1.0
  0
CIRCLE
  8
0
 10
318.25
 20
-517.2
 30
0.0
 40
1.0
  0
CIRCLE
  8
0
 10
412.21
 20
-517.2
 30
0.0
 40
1.0
  0
CIRCLE
  8
0
 10
427.86999999999995
 20
-517.2
 30
0.0
 40
1.0
  0
CIRCLE
  8
0
 10
443.53
 20
-517.2
 30
0.0
 40
1.0
  0
CIRCLE
  8
0
 10
459.18999999999994
 20
-517.2
 30
0.0
 40
1.0
  0
CIRCLE
  8
0
 10
474.84999999999997
 20
-517.2
 30
0.0
 40
1.0
  0
CIRCLE
  8
0
 10
153.82000000000002
 20
-521.55
 30
0.0
 40
1.0
  0
CIRCLE
  8
0
 10
169.48000000000002
 20
-521.55
 30
0.0
 40
1.0
  0
CIRCLE
  8
0
 10
185.14000000000001
 20
-521.55
 30
0.0
 40
1.0
  0
CIRCLE
  8
0
 10
200.8
 20
-521.55
 30
0.0
 40
1.0
  0
CIRCLE
  8
0
 10
216.46
 20
-521.55
 30
0.0
 40
1.0
  0
CIRCLE
  8
0
 10
232.12
 20
-521.55
 30
0.0
 40
1.0
  0
CIRCLE
  8
0
 10
247.78
 20
-521.55
 30
0.0
 40
1.0
  0
CIRCLE
  8
0
 10
263.44
 20
-521.55
 30
0.0
 40
1.0
  0
CIRCLE
  8
0
 10
279.09999999999997
 20
-521.55
 30
0.0
 40
1.0
  0
CIRCLE
  8
0
 10
294.76
 20
-521.55
 30
0.0
 40
1.0
  0
CIRCLE
  8
0
 10
310.41999999999996
 20
-521.55
 30
0.0
 40
1.0
  0
CIRCLE
  8
0
 10
326.08
 20
-521.55
 30
0.0
 40
1.0
  0
CIRCLE
  8
0
 10
420.03999999999996
 20
-521.55
 30
0.0
 40
1.0
  0
CIRCLE
  8
0
 10
435.69999999999993
 20
-521.55
 30
0.0
 40
1.0
  0
CIRCLE
  8
0
 10
451.35999999999996
 20
-521.55
 30
0.0
 40
1.0
  0
CIRCLE
  8
0
 10
467.0199999999999
 20
-521.55
 30
0.0
 40
1.0
  0
CIRCLE
  8
0
 10
576.64
 20
-521.55
 30
0.0
 40
1.0
  0
CIRCLE
  8
0
 10
161.65
 20
-525.9
 30
0.0
 40
1.0
  0
CIRCLE
  8
0
 10
177.31
 20
-525.9
 30
0.0
 40
1.0
  0
CIRCLE
  8
0
 10
192.97
 20
-525.9
 30
0.0
 40
1.0
  0
CIRCLE
  8
0
 10
208.63
 20
-525.9
 30
0.0
 40
1.0
  0
CIRCLE
  8
0
 10
224.29
 20
-525.9
 30
0.0
 40
1.0
  0
CIRCLE
  8
0
 10
239.95
 20
-525.9
 30
0.0
 40
1.0
  0
CIRCLE
  8
0
 10
255.60999999999999
 20
-525.9
 30
0.0
 40
1.0
  0
CIRCLE
  8
0
 10
271.27
 20
-525.9
 30
0.0
 40
1.0
  0
CIRCLE
  8
0
 10
286.93
 20
-525.9
 30
0.0
 40
1.0
  0
CIRCLE
  8
0
 10
302.59
 20
-525.9
 30
0.0
 40
1.0
  0
CIRCLE
  8
0
 10
318.25
 20
-525.9
 30
0.0
 40
1.0
  0
CIRCLE
  8
0
 10
427.86999999999995
 20
-525.9
 30
0.0
 40
1.0
  0
CIRCLE
  8
0
 10
443.53
 20
-525.9
 30
0.0
 40
1.0
  0
CIRCLE
  8
0
 10
459.18999999999994
 20
-525.9
 30
0.0
 40
1.0
  0
CIRCLE
  8
0
 10
474.84999999999997
 20
-525.9
 30
0.0
 40
1.0
  0
CIRCLE
  8
0
 10
169.48000000000002
 20
-530.25
 30
0.0
 40
1.0
  0
CIRCLE
  8
0
 10
185.14000000000001
 20
-530.25
 30
0.0
 40
1.0
  0
CIRCLE
  8
0
 10
200.8
 20
-530.25
 30
0.0
 40
1.0
  0
CIRCLE
  8
0
 10
216.46
 20
-530.25
 30
0.0
 40
1.0
  0
CIRCLE
  8
0
 10
232.12
 20
-530.25
 30
0.0
 40
1.0
  0
CIRCLE
  8
0
 10
247.78
 20
-530.25
 30
0.0
 40
1.0
  0
CIRCLE
  8
0
 10
263.44
 20
-530.25
 30
0.0
 40
1.0
  0
CIRCLE
  8
0
 10
279.09999999999997
 20
-530.25
 30
0.0
 40
1.0
  0
CIRCLE
  8
0
 10
294.76
 20
-530.25
 30
0.0
 40
1.0
  0
CIRCLE
  8
0
 10
310.41999999999996
 20
-530.25
 30
0.0
 40
1.0
  0
CIRCLE
  8
0
 10
404.37999999999994
 20
-530.25
 30
0.0
 40
1.0
  0
CIRCLE
  8
0
 10
482.67999999999995
 20
-530.25
 30
0.0
 40
1.0
  0
CIRCLE
  8
0
 10
161.65
 20
-534.6
 30
0.0
 40
1.0
  0
CIRCLE
  8
0
 10
177.31
 20
-534.6
 30
0.0
 40
1.0
  0
CIRCLE
  8
0
 10
192.97
 20
-534.6
 30
0.0
 40
1.0
  0
CIRCLE
  8
0
 10
208.63
 20
-534.6
 30
0.0
 40
1.0
  0
CIRCLE
  8
0
 10
224.29
 20
-534.6
 30
0.0
 40
1.0
  0
CIRCLE
  8
0
 10
239.95
 20
-534.6
 30
0.0
 40
1.0
  0
CIRCLE
  8
0
 10
255.60999999999999
 20
-534.6
 30
0.0
 40
1.0
  0
CIRCLE
  8
0
 10
271.27
 20
-534.6
 30
0.0
 40
1.0
  0
CIRCLE
  8
0
 10
286.93
 20
-534.6
 30
0.0
 40
1.0
  0
CIRCLE
  8
0
 10
302.59
 20
-534.6
 30
0.0
 40
1.0
  0
CIRCLE
  8
0
 10
427.86999999999995
 20
-534.6
 30
0.0
 40
1.0
  0
CIRCLE
  8
0
 10
169.48000000000002
 20
-538.95
 30
0.0
 40
1.0
  0
CIRCLE
  8
0
 10
185.14000000000001
 20
-538.95
 30
0.0
 40
1.0
  0
CIRCLE
  8
0
 10
200.8
 20
-538.95
 30
0.0
 40
1.0
  0
CIRCLE
  8
0
 10
216.46
 20
-538.95
 30
0.0
 40
1.0
  0
CIRCLE
  8
0
 10
232.12
 20
-538.95
 30
0.0
 40
1.0
  0
CIRCLE
  8
0
 10
247.78
 20
-538.95
 30
0.0
 40
1.0
  0
CIRCLE
  8
0
 10
263.44
 20
-538.95
 30
0.0
 40
1.0
  0
CIRCLE
  8
0
 10
279.09999999999997
 20
-538.95
 30
0.0
 40
1.0
  0
CIRCLE
  8
0
 10
294.76
 20
-538.95
 30
0.0
 40
1.0
  0
CIRCLE
  8
0
 10
310.41999999999996
 20
-538.95
 30
0.0
 40
1.0
  0
CIRCLE
  8
0
 10
177.31
 20
-543.3
 30
0.0
 40
1.0
  0
CIRCLE
  8
0
 10
192.97
 20
-543.3
 30
0.0
 40
1.0
  0
CIRCLE
  8
0
 10
208.63
 20
-543.3
 30
0.0
 40
1.0
  0
CIRCLE
  8
0
 10
224.29
 20
-543.3
 30
0.0
 40
1.0
  0
CIRCLE
  8
0
 10
239.95
 20
-543.3
 30
0.0
 40
1.0
  0
CIRCLE
  8
0
 10
255.60999999999999
 20
-543.3
 30
0.0
 40
1.0
  0
CIRCLE
  8
0
 10
271.27
 20
-543.3
 30
0.0
 40
1.0
  0
CIRCLE
  8
0
 10
286.93
 20
-543.3
 30
0.0
 40
1.0
  0
CIRCLE
  8
0
 10
318.25
 20
-543.3
 30
0.0
 40
1.0
  0
CIRCLE
  8
0
 10
185.14000000000001
 20
-547.65
 30
0.0
 40
1.0
  0
CIRCLE
  8
0
 10
200.8
 20
-547.65
 30
0.0
 40
1.0
  0
CIRCLE
  8
0
 10
216.46
 20
-547.65
 30
0.0
 40
1.0
  0
CIRCLE
  8
0
 10
232.12
 20
-547.65
 30
0.0
 40
1.0
  0
CIRCLE
  8
0
 10
247.78
 20
-547.65
 30
0.0
 40
1.0
  0
CIRCLE
  8
0
 10
263.44
 20
-547.65
 30
0.0
 40
1.0
  0
CIRCLE
  8
0
 10
279.09999999999997
 20
-547.65
 30
0.0
 40
1.0
  0
CIRCLE
  8
0
 10
192.97
 20
-552.0
 30
0.0
 40
1.0
  0
CIRCLE
  8
0
 10
208.63
 20
-552.0
 30
0.0
 40
1.0
  0
CIRCLE
  8
0
 10
224.29
 20
-552.0
 30
0.0
 40
1.0
  0
CIRCLE
  8
0
 10
239.95
 20
-552.0
 30
0.0
 40
1.0
  0
CIRCLE
  8
0
 10
255.60999999999999
 20
-552.0
 30
0.0
 40
1.0
  0
CIRCLE
  8
0
 10
271.27
 20
-552.0
 30
0.0
 40
1.0
  0
CIRCLE
  8
0
 10
216.46
 20
-556.35
 30
0.0
 40
1.0
  0
CIRCLE
  8
0
 10
232.12
 20
-556.35
 30
0.0
 40
1.0
  0
CIRCLE
  8
0
 10
247.78
 20
-556.35
 30
0.0
 40
1.0
  0
CIRCLE
  8
0
 10
224.29
 20
-560.7
 30
0.0
 40
1.0
  0
CIRCLE
  8
0
 10
239.95
 20
-560.7
 30
0.0
 40
1.0
  0
CIRCLE
  8
0
 10
185.14000000000001
 20
-565.05
 30
0.0
 40
1.0
  0
CIRCLE
  8
0
 10
200.8
 20
-565.05
 30
0.0
 40
1.0
  0
CIRCLE
  8
0
 10
216.46
 20
-565.05
 30
0.0
 40
1.0
  0
CIRCLE
  8
0
 10
232.12
 20
-565.05
 30
0.0
 40
1.0
  0
CIRCLE
  8
0
 10
192.97
 20
-569.4
 30
0.0
 40
1.0
  0
CIRCLE
  8
0
 10
208.63
 20
-569.4
 30
0.0
 40
1.0
  0
CIRCLE
  8
0
 10
224.29
 20
-569.4
 30
0.0
 40
1.0
  0
CIRCLE
  8
0
 10
200.8
 20
-573.75
 30
0.0
 40
1.0
  0
CIRCLE
  8
0
 10
216.46
 20
-573.75
 30
0.0
 40
1.0
  0
CIRCLE
  8
0
 10
568.81
 20
-586.8
 30
0.0
 40
1.0
  0
CIRCLE
  8
0
 10
568.81
 20
-595.5
 30
0.0
 40
1.0
  0
CIRCLE
  8
0
 10
560.9799999999999
 20
-599.85
 30
0.0
 40
1.0
  0
CIRCLE
  8
0
 10
560.9799999999999
 20
-608.55
 30
0.0
 40
1.0
  0
CIRCLE
  8
0
 10
553.1499999999999
 20
-612.9
 30
0.0
 40
1.0
  0
CIRCLE
  8
0
 10
145.99
 20
-621.6
 30
0.0
 40
1.0
  0
CIRCLE
  8
0
 10
553.1499999999999
 20
-621.6
 30
0.0
 40
1.0
  0
CIRCLE
  8
0
 10
310.41999999999996
 20
-625.95
 30
0.0
 40
1.0
  0
CIRCLE
  8
0
 10
443.53
 20
-630.3
 30
0.0
 40
1.0
  0
CIRCLE
  8
0
 10
521.8299999999999
 20
-630.3
 30
0.0
 40
1.0
  0
CIRCLE
  8
0
 10
553.1499999999999
 20
-630.3
 30
0.0
 40
1.0
  0
CIRCLE
  8
0
 10
153.82000000000002
 20
-634.65
 30
0.0
 40
1.0
  0
CIRCLE
  8
0
 10
310.41999999999996
 20
-634.65
 30
0.0
 40
1.0
  0
CIRCLE
  8
0
 10
545.3199999999999
 20
-634.65
 30
0.0
 40
1.0
  0
CIRCLE
  8
0
 10
161.65
 20
-639.0
 30
0.0
 40
1.0
  0
CIRCLE
  8
0
 10
443.53
 20
-639.0
 30
0.0
 40
1.0
  0
CIRCLE
  8
0
 10
553.1499999999999
 20
-639.0
 30
0.0
 40
1.0
  0
CIRCLE
  8
0
 10
435.69999999999993
 20
-643.35
 30
0.0
 40
1.0
  0
CIRCLE
  8
0
 10
545.3199999999999
 20
-643.35
 30
0.0
 40
1.0
  0
CIRCLE
  8
0
 10
318.25
 20
-647.7
 30
0.0
 40
1.0
  0
CIRCLE
  8
0
 10
427.86999999999995
 20
-647.7
 30
0.0
 40
1.0
  0
CIRCLE
  8
0
 10
169.48000000000002
 20
-652.05
 30
0.0
 40
1.0
  0
CIRCLE
  8
0
 10
326.08
 20
-652.05
 30
0.0
 40
1.0
  0
CIRCLE
  8
0
 10
435.69999999999993
 20
-652.05
 30
0.0
 40
1.0
  0
CIRCLE
  8
0
 10
545.3199999999999
 20
-652.05
 30
0.0
 40
1.0
  0
CIRCLE
  8
0
 10
177.31
 20
-656.4
 30
0.0
 40
1.0
  0
CIRCLE
  8
0
 10
318.25
 20
-656.4
 30
0.0
 40
1.0
  0
CIRCLE
  8
0
 10
333.90999999999997
 20
-656.4
 30
0.0
 40
1.0
  0
CIRCLE
  8
0
 10
427.86999999999995
 20
-656.4
 30
0.0
 40
1.0
  0
CIRCLE
  8
0
 10
537.4899999999999
 20
-656.4
 30
0.0
 40
1.0
  0
CIRCLE
  8
0
 10
326.08
 20
-660.75
 30
0.0
 40
1.0
  0
CIRCLE
  8
0
 10
341.73999999999995
 20
-660.75
 30
0.0
 40
1.0
  0
CIRCLE
  8
0
 10
420.03999999999996
 20
-660.75
 30
0.0
 40
1.0
  0
CIRCLE
  8
0
 10
435.69999999999993
 20
-660.75
 30
0.0
 40
1.0
  0
CIRCLE
  8
0
 10
529.66
 20
-660.75
 30
0.0
 40
1.0
  0
CIRCLE
  8
0
 10
545.3199999999999
 20
-660.75
 30
0.0
 40
1.0
  0
CIRCLE
  8
0
 10
177.31
 20
-665.1
 30
0.0
 40
1.0
  0
CIRCLE
  8
0
 10
333.90999999999997
 20
-665.1
 30
0.0
 40
1.0
  0
CIRCLE
  8
0
 10
349.57
 20
-665.1
 30
0.0
 40
1.0
  0
CIRCLE
  8
0
 10
427.86999999999995
 20
-665.1
 30
0.0
 40
1.0
  0
CIRCLE
  8
0
 10
537.4899999999999
 20
-665.1
 30
0.0
 40
1.0
  0
CIRCLE
  8
0
 10
326.08
 20
-669.45
 30
0.0
 40
1.0
  0
CIRCLE
  8
0
 10
341.73999999999995
 20
-669.45
 30
0.0
 40
1.0
  0
CIRCLE
  8
0
 10
357.4
 20
-669.45
 30
0.0
 40
1.0
  0
CIRCLE
  8
0
 10
420.03999999999996
 20
-669.45
 30
0.0
 40
1.0
  0
CIRCLE
  8
0
 10
529.66
 20
-669.45
 30
0.0
 40
1.0
  0
CIRCLE
  8
0
 10
177.31
 20
-673.8
 30
0.0
 40
1.0
  0
CIRCLE
  8
0
 10
333.90999999999997
 20
-673.8
 30
0.0
 40
1.0
  0
CIRCLE
  8
0
 10
349.57
 20
-673.8
 30
0.0
 40
1.0
  0
CIRCLE
  8
0
 10
365.22999999999996
 20
-673.8
 30
0.0
 40
1.0
  0
CIRCLE
  8
0
 10
412.21
 20
-673.8
 30
0.0
 40
1.0
  0
CIRCLE
  8
0
 10
427.86999999999995
 20
-673.8
 30
0.0
 40
1.0
  0
CIRCLE
  8
0
 10
521.8299999999999
 20
-673.8
 30
0.0
 40
1.0
  0
CIRCLE
  8
0
 10
537.4899999999999
 20
-673.8
 30
0.0
 40
1.0
  0
CIRCLE
  8
0
 10
185.14000000000001
 20
-678.15
 30
0.0
 40
1.0
  0
CIRCLE
  8
0
 10
326.08
 20
-678.15
 30
0.0
 40
1.0
  0
CIRCLE
  8
0
 10
341.73999999999995
 20
-678.15
 30
0.0
 40
1.0
  0
CIRCLE
  8
0
 10
357.4
 20
-678.15
 30
0.0
 40
1.0
  0
CIRCLE
  8
0
 10
373.05999999999995
 20
-678.15
 30
0.0
 40
1.0
  0
CIRCLE
  8
0
 10
388.71999999999997
 20
-678.15
 30
0.0
 40
1.0
  0
CIRCLE
  8
0
 10
404.37999999999994
 20
-678.15
 30
0.0
 40
1.0
  0
CIRCLE
  8
0
 10
420.03999999999996
 20
-678.15
 30
0.0
 40
1.0
  0
CIRCLE
  8
0
 10
529.66
 20
-678.15
 30
0.0
 40
1.0
  0
CIRCLE
  8
0
 10
192.97
 20
-682.5
 30
0.0
 40
1.0
  0
CIRCLE
  8
0
 10
333.90999999999997
 20
-682.5
 30
0.0
 40
1.0
  0
CIRCLE
  8
0
 10
349.57
 20
-682.5
 30
0.0
 40
1.0
  0
CIRCLE
  8
0
 10
365.22999999999996
 20
-682.5
 30
0.0
 40
1.0
  0
CIRCLE
  8
0
 10
380.89
 20
-682.5
 30
0.0
 40
1.0
  0
CIRCLE
  8
0
 10
396.54999999999995
 20
-682.5
 30
0.0
 40
1.0
  0
CIRCLE
  8
0
 10
412.21
 20
-682.5
 30
0.0
 40
1.0
  0
CIRCLE
  8
0
 10
506.16999999999996
 20
-682.5
 30
0.0
 40
1.0
  0
CIRCLE
  8
0
 10
521.8299999999999
 20
-682.5
 30
0.0
 40
1.0
  0
CIRCLE
  8
0
 10
537.4899999999999
 20
-682.5
 30
0.0
 40
1.0
  0
CIRCLE
  8
0
 10
200.8
 20
-686.85
 30
0.0
 40
1.0
  0
CIRCLE
  8
0
 10
341.73999999999995
 20
-686.85
 30
0.0
 40
1.0
  0
CIRCLE
  8
0
 10
357.4
 20
-686.85
 30
0.0
 40
1.0
  0
CIRCLE
  8
0
 10
373.05999999999995
 20
-686.85
 30
0.0
 40
1.0
  0
CIRCLE
  8
0
 10
388.71999999999997
 20
-686.85
 30
0.0
 40
1.0
  0
CIRCLE
  8
0
 10
404.37999999999994
 20
-686.85
 30
0.0
 40
1.0
  0
CIRCLE
  8
0
 10
498.3399999999999
 20
-686.85
 30
0.0
 40
1.0
  0
CIRCLE
  8
0
 10
514.0
 20
-686.85
 30
0.0
 40
1.0
  0
CIRCLE
  8
0
 10
529.66
 20
-686.85
 30
0.0
 40
1.0
  0
CIRCLE
  8
0
 10
208.63
 20
-691.2
 30
0.0
 40
1.0
  0
CIRCLE
  8
0
 10
333.90999999999997
 20
-691.2
 30
0.0
 40
1.0
  0
CIRCLE
  8
0
 10
349.57
 20
-691.2
 30
0.0
 40
1.0
  0
CIRCLE
  8
0
 10
365.22999999999996
 20
-691.2
 30
0.0
 40
1.0
  0
CIRCLE
  8
0
 10
380.89
 20
-691.2
 30
0.0
 40
1.0
  0
CIRCLE
  8
0
 10
396.54999999999995
 20
-691.2
 30
0.0
 40
1.0
  0
CIRCLE
  8
0
 10
412.21
 20
-691.2
 30
0.0
 40
1.0
  0
CIRCLE
  8
0
 10
490.50999999999993
 20
-691.2
 30
0.0
 40
1.0
  0
CIRCLE
  8
0
 10
506.16999999999996
 20
-691.2
 30
0.0
 40
1.0
  0
CIRCLE
  8
0
 10
521.8299999999999
 20
-691.2
 30
0.0
 40
1.0
  0
CIRCLE
  8
0
 10
216.46
 20
-695.55
 30
0.0
 40
1.0
  0
CIRCLE
  8
0
 10
263.44
 20
-695.55
 30
0.0
 40
1.0
  0
CIRCLE
  8
0
 10
341.73999999999995
 20
-695.55
 30
0.0
 40
1.0
  0
CIRCLE
  8
0
 10
357.4
 20
-695.55
 30
0.0
 40
1.0
  0
CIRCLE
  8
0
 10
373.05999999999995
 20
-695.55
 30
0.0
 40
1.0
  0
CIRCLE
  8
0
 10
388.71999999999997
 20
-695.55
 30
0.0
 40
1.0
  0
CIRCLE
  8
0
 10
404.37999999999994
 20
-695.55
 30
0.0
 40
1.0
  0
CIRCLE
  8
0
 10
498.3399999999999
 20
-695.55
 30
0.0
 40
1.0
  0
CIRCLE
  8
0
 10
514.0
 20
-695.55
 30
0.0
 40
1.0
  0
CIRCLE
  8
0
 10
529.66
 20
-695.55
 30
0.0
 40
1.0
  0
CIRCLE
  8
0
 10
365.22999999999996
 20
-699.9
 30
0.0
 40
1.0
  0
CIRCLE
  8
0
 10
380.89
 20
-699.9
 30
0.0
 40
1.0
  0
CIRCLE
  8
0
 10
396.54999999999995
 20
-699.9
 30
0.0
 40
1.0
  0
CIRCLE
  8
0
 10
490.50999999999993
 20
-699.9
 30
0.0
 40
1.0
  0
CIRCLE
  8
0
 10
216.46
 20
-704.25
 30
0.0
 40
1.0
  0
CIRCLE
  8
0
 10
373.05999999999995
 20
-704.25
 30
0.0
 40
1.0
  0
CIRCLE
  8
0
 10
388.71999999999997
 20
-704.25
 30
0.0
 40
1.0
  0
CIRCLE
  8
0
 10
404.37999999999994
 20
-704.25
 30
0.0
 40
1.0
  0
CIRCLE
  8
0
 10
467.0199999999999
 20
-704.25
 30
0.0
 40
1.0
  0
CIRCLE
  8
0
 10
482.67999999999995
 20
-704.25
 30
0.0
 40
1.0
  0
CIRCLE
  8
0
 10
224.29
 20
-708.6
 30
0.0
 40
1.0
  0
CIRCLE
  8
0
 10
255.60999999999999
 20
-708.6
 30
0.0
 40
1.0
  0
CIRCLE
  8
0
 10
380.89
 20
-708.6
 30
0.0
 40
1.0
  0
CIRCLE
  8
0
 10
459.18999999999994
 20
-708.6
 30
0.0
 40
1.0
  0
CIRCLE
  8
0
 10
474.84999999999997
 20
-708.6
 30
0.0
 40
1.0
  0
CIRCLE
  8
0
 10
232.12
 20
-712.9499999999999
 30
0.0
 40
1.0
  0
CIRCLE
  8
0
 10
247.78
 20
-712.9499999999999
 30
0.0
 40
1.0
  0
CIRCLE
  8
0
 10
404.37999999999994
 20
-712.9499999999999
 30
0.0
 40
1.0
  0
CIRCLE
  8
0
 10
420.03999999999996
 20
-712.9499999999999
 30
0.0
 40
1.0
  0
CIRCLE
  8
0
 10
435.69999999999993
 20
-712.9499999999999
 30
0.0
 40
1.0
  0
CIRCLE
  8
0
 10
451.35999999999996
 20
-712.9499999999999
 30
0.0
 40
1.0
  0
CIRCLE
  8
0
 10
467.0199999999999
 20
-712.9499999999999
 30
0.0
 40
1.0
  0
CIRCLE
  8
0
 10
239.95
 20
-717.3
 30
0.0
 40
1.0
  0
CIRCLE
  8
0
 10
255.60999999999999
 20
-717.3
 30
0.0
 40
1.0
  0
CIRCLE
  8
0
 10
365.22999999999996
 20
-717.3
 30
0.0
 40
1.0
  0
CIRCLE
  8
0
 10
396.54999999999995
 20
-717.3
 30
0.0
 40
1.0
  0
CIRCLE
  8
0
 10
412.21
 20
-717.3
 30
0.0
 40
1.0
  0
CIRCLE
  8
0
 10
427.86999999999995
 20
-717.3
 30
0.0
 40
1.0
  0
CIRCLE
  8
0
 10
443.53
 20
-717.3
 30
0.0
 40
1.0
  0
CIRCLE
  8
0
 10
459.18999999999994
 20
-717.3
 30
0.0
 40
1.0
  0
CIRCLE
  8
0
 10
247.78
 20
-721.65
 30
0.0
 40
1.0
  0
CIRCLE
  8
0
 10
263.44
 20
-721.65
 30
0.0
 40
1.0
  0
CIRCLE
  8
0
 10
279.09999999999997
 20
-721.65
 30
0.0
 40
1.0
  0
CIRCLE
  8
0
 10
357.4
 20
-721.65
 30
0.0
 40
1.0
  0
CIRCLE
  8
0
 10
373.05999999999995
 20
-721.65
 30
0.0
 40
1.0
  0
CIRCLE
  8
0
 10
388.71999999999997
 20
-721.65
 30
0.0
 40
1.0
  0
CIRCLE
  8
0
 10
404.37999999999994
 20
-721.65
 30
0.0
 40
1.0
  0
CIRCLE
  8
0
 10
420.03999999999996
 20
-721.65
 30
0.0
 40
1.0
  0
CIRCLE
  8
0
 10
435.69999999999993
 20
-721.65
 30
0.0
 40
1.0
  0
CIRCLE
  8
0
 10
451.35999999999996
 20
-721.65
 30
0.0
 40
1.0
  0
CIRCLE
  8
0
 10
255.60999999999999
 20
-726.0
 30
0.0
 40
1.0
  0
CIRCLE
  8
0
 10
271.27
 20
-726.0
 30
0.0
 40
1.0
  0
CIRCLE
  8
0
 10
286.93
 20
-726.0
 30
0.0
 40
1.0
  0
CIRCLE
  8
0
 10
302.59
 20
-726.0
 30
0.0
 40
1.0
  0
CIRCLE
  8
0
 10
318.25
 20
-726.0
 30
0.0
 40
1.0
  0
CIRCLE
  8
0
 10
333.90999999999997
 20
-726.0
 30
0.0
 40
1.0
  0
CIRCLE
  8
0
 10
349.57
 20
-726.0
 30
0.0
 40
1.0
  0
CIRCLE
  8
0
 10
365.22999999999996
 20
-726.0
 30
0.0
 40
1.0
  0
CIRCLE
  8
0
 10
380.89
 20
-726.0
 30
0.0
 40
1.0
  0
CIRCLE
  8
0
 10
396.54999999999995
 20
-726.0
 30
0.0
 40
1.0
  0
CIRCLE
  8
0
 10
412.21
 20
-726.0
 30
0.0
 40
1.0
  0
CIRCLE
  8
0
 10
427.86999999999995
 20
-726.0
 30
0.0
 40
1.0
  0
CIRCLE
  8
0
 10
443.53
 20
-726.0
 30
0.0
 40
1.0
  0
CIRCLE
  8
0
 10
459.18999999999994
 20
-726.0
 30
0.0
 40
1.0
  0
CIRCLE
  8
0
 10
263.44
 20
-730.35
 30
0.0
 40
1.0
  0
CIRCLE
  8
0
 10
279.09999999999997
 20
-730.35
 30
0.0
 40
1.0
  0
CIRCLE
  8
0
 10
294.76
 20
-730.35
 30
0.0
 40
1.0
  0
CIRCLE
  8
0
 10
310.41999999999996
 20
-730.35
 30
0.0
 40
1.0
  0
CIRCLE
  8
0
 10
326.08
 20
-730.35
 30
0.0
 40
1.0
  0
CIRCLE
  8
0
 10
341.73999999999995
 20
-730.35
 30
0.0
 40
1.0
  0
CIRCLE
  8
0
 10
357.4
 20
-730.35
 30
0.0
 40
1.0
  0
CIRCLE
  8
0
 10
373.05999999999995
 20
-730.35
 30
0.0
 40
1.0
  0
CIRCLE
  8
0
 10
388.71999999999997
 20
-730.35
 30
0.0
 40
1.0
  0
CIRCLE
  8
0
 10
404.37999999999994
 20
-730.35
 30
0.0
 40
1.0
  0
CIRCLE
  8
0
 10
420.03999999999996
 20
-730.35
 30
0.0
 40
1.0
  0
CIRCLE
  8
0
 10
435.69999999999993
 20
-730.35
 30
0.0
 40
1.0
  0
CIRCLE
  8
0
 10
451.35999999999996
 20
-730.35
 30
0.0
 40
1.0
  0
CIRCLE
  8
0
 10
255.60999999999999
 20
-734.6999999999999
 30
0.0
 40
1.0
  0
CIRCLE
  8
0
 10
271.27
 20
-734.6999999999999
 30
0.0
 40
1.0
  0
CIRCLE
  8
0
 10
286.93
 20
-734.6999999999999
 30
0.0
 40
1.0
  0
CIRCLE
  8
0
 10
302.59
 20
-734.6999999999999
 30
0.0
 40
1.0
  0
CIRCLE
  8
0
 10
318.25
 20
-734.6999999999999
 30
0.0
 40
1.0
  0
CIRCLE
  8
0
 10
333.90999999999997
 20
-734.6999999999999
 30
0.0
 40
1.0
  0
CIRCLE
  8
0
 10
349.57
 20
-734.6999999999999
 30
0.0
 40
1.0
  0
CIRCLE
  8
0
 10
365.22999999999996
 20
-734.6999999999999
 30
0.0
 40
1.0
  0
CIRCLE
  8
0
 10
380.89
 20
-734.6999999999999
 30
0.0
 40
1.0
  0
CIRCLE
  8
0
 10
396.54999999999995
 20
-734.6999999999999
 30
0.0
 40
1.0
  0
CIRCLE
  8
0
 10
412.21
 20
-734.6999999999999
 30
0.0
 40
1.0
  0
CIRCLE
  8
0
 10
427.86999999999995
 20
-734.6999999999999
 30
0.0
 40
1.0
  0
CIRCLE
  8
0
 10
443.53
 20
-734.6999999999999
 30
0.0
 40
1.0
  0
CIRCLE
  8
0
 10
263.44
 20
-739.05
 30
0.0
 40
1.0
  0
CIRCLE
  8
0
 10
279.09999999999997
 20
-739.05
 30
0.0
 40
1.0
  0
CIRCLE
  8
0
 10
294.76
 20
-739.05
 30
0.0
 40
1.0
  0
CIRCLE
  8
0
 10
310.41999999999996
 20
-739.05
 30
0.0
 40
1.0
  0
CIRCLE
  8
0
 10
326.08
 20
-739.05
 30
0.0
 40
1.0
  0
CIRCLE
  8
0
 10
341.73999999999995
 20
-739.05
 30
0.0
 40
1.0
  0
CIRCLE
  8
0
 10
357.4
 20
-739.05
 30
0.0
 40
1.0
  0
CIRCLE
  8
0
 10
373.05999999999995
 20
-739.05
 30
0.0
 40
1.0
  0
CIRCLE
  8
0
 10
388.71999999999997
 20
-739.05
 30
0.0
 40
1.0
  0
CIRCLE
  8
0
 10
404.37999999999994
 20
-739.05
 30
0.0
 40
1.0
  0
CIRCLE
  8
0
 10
420.03999999999996
 20
-739.05
 30
0.0
 40
1.0
  0
CIRCLE
  8
0
 10
435.69999999999993
 20
-739.05
 30
0.0
 40
1.0
  0
CIRCLE
  8
0
 10
451.35999999999996
 20
-739.05
 30
0.0
 40
1.0
  0
CIRCLE
  8
0
 10
271.27
 20
-743.4
 30
0.0
 40
1.0
  0
CIRCLE
  8
0
 10
318.25
 20
-743.4
 30
0.0
 40
1.0
  0
CIRCLE
  8
0
 10
333.90999999999997
 20
-743.4
 30
0.0
 40
1.0
  0
CIRCLE
  8
0
 10
349.57
 20
-743.4
 30
0.0
 40
1.0
  0
CIRCLE
  8
0
 10
365.22999999999996
 20
-743.4
 30
0.0
 40
1.0
  0
CIRCLE
  8
0
 10
380.89
 20
-743.4
 30
0.0
 40
1.0
  0
CIRCLE
  8
0
 10
396.54999999999995
 20
-743.4
 30
0.0
 40
1.0
  0
CIRCLE
  8
0
 10
412.21
 20
-743.4
 30
0.0
 40
1.0
  0
CIRCLE
  8
0
 10
427.86999999999995
 20
-743.4
 30
0.0
 40
1.0
  0
CIRCLE
  8
0
 10
443.53
 20
-743.4
 30
0.0
 40
1.0
  0
CIRCLE
  8
0
 10
326.08
 20
-747.75
 30
0.0
 40
1.0
  0
CIRCLE
  8
0
 10
341.73999999999995
 20
-747.75
 30
0.0
 40
1.0
  0
CIRCLE
  8
0
 10
357.4
 20
-747.75
 30
0.0
 40
1.0
  0
CIRCLE
  8
0
 10
373.05999999999995
 20
-747.75
 30
0.0
 40
1.0
  0
CIRCLE
  8
0
 10
388.71999999999997
 20
-747.75
 30
0.0
 40
1.0
  0
CIRCLE
  8
0
 10
404.37999999999994
 20
-747.75
 30
0.0
 40
1.0
  0
CIRCLE
  8
0
 10
420.03999999999996
 20
-747.75
 30
0.0
 40
1.0
  0
CIRCLE
  8
0
 10
435.69999999999993
 20
-747.75
 30
0.0
 40
1.0
  0
CIRCLE
  8
0
 10
318.25
 20
-752.1
 30
0.0
 40
1.0
  0
CIRCLE
  8
0
 10
333.90999999999997
 20
-752.1
 30
0.0
 40
1.0
  0
CIRCLE
  8
0
 10
349.57
 20
-752.1
 30
0.0
 40
1.0
  0
CIRCLE
  8
0
 10
365.22999999999996
 20
-752.1
 30
0.0
 40
1.0
  0
CIRCLE
  8
0
 10
380.89
 20
-752.1
 30
0.0
 40
1.0
  0
CIRCLE
  8
0
 10
396.54999999999995
 20
-752.1
 30
0.0
 40
1.0
  0
CIRCLE
  8
0
 10
412.21
 20
-752.1
 30
0.0
 40
1.0
  0
CIRCLE
  8
0
 10
427.86999999999995
 20
-752.1
 30
0.0
 40
1.0
  0
CIRCLE
  8
0
 10
326.08
 20
-756.4499999999999
 30
0.0
 40
1.0
  0
CIRCLE
  8
0
 10
341.73999999999995
 20
-756.4499999999999
 30
0.0
 40
1.0
  0
CIRCLE
  8
0
 10
357.4
 20
-756.4499999999999
 30
0.0
 40
1.0
  0
CIRCLE
  8
0
 10
373.05999999999995
 20
-756.4499999999999
 30
0.0
 40
1.0
  0
CIRCLE
  8
0
 10
388.71999999999997
 20
-756.4499999999999
 30
0.0
 40
1.0
  0
CIRCLE
  8
0
 10
404.37999999999994
 20
-756.4499999999999
 30
0.0
 40
1.0
  0
CIRCLE
  8
0
 10
420.03999999999996
 20
-756.4499999999999
 30
0.0
 40
1.0
  0
CIRCLE
  8
0
 10
435.69999999999993
 20
-756.4499999999999
 30
0.0
 40
1.0
  0
CIRCLE
  8
0
 10
333.90999999999997
 20
-760.8
 30
0.0
 40
1.0
  0
CIRCLE
  8
0
 10
349.57
 20
-760.8
 30
0.0
 40
1.0
  0
CIRCLE
  8
0
 10
365.22999999999996
 20
-760.8
 30
0.0
 40
1.0
  0
CIRCLE
  8
0
 10
380.89
 20
-760.8
 30
0.0
 40
1.0
  0
CIRCLE
  8
0
 10
396.54999999999995
 20
-760.8
 30
0.0
 40
1.0
  0
CIRCLE
  8
0
 10
412.21
 20
-760.8
 30
0.0
 40
1.0
  0
CIRCLE
  8
0
 10
427.86999999999995
 20
-760.8
 30
0.0
 40
1.0
  0
CIRCLE
  8
0
 10
341.73999999999995
 20
-765.15
 30
0.0
 40
1.0
  0
CIRCLE
  8
0
 10
357.4
 20
-765.15
 30
0.0
 40
1.0
  0
CIRCLE
  8
0
 10
373.05999999999995
 20
-765.15
 30
0.0
 40
1.0
  0
CIRCLE
  8
0
 10
388.71999999999997
 20
-765.15
 30
0.0
 40
1.0
  0
CIRCLE
  8
0
 10
404.37999999999994
 20
-765.15
 30
0.0
 40
1.0
  0
CIRCLE
  8
0
 10
420.03999999999996
 20
-765.15
 30
0.0
 40
1.0
  0
CIRCLE
  8
0
 10
435.69999999999993
 20
-765.15
 30
0.0
 40
1.0
  0
CIRCLE
  8
0
 10
349.57
 20
-769.5
 30
0.0
 40
1.0
  0
CIRCLE
  8
0
 10
365.22999999999996
 20
-769.5
 30
0.0
 40
1.0
  0
CIRCLE
  8
0
 10
380.89
 20
-769.5
 30
0.0
 40
1.0
  0
CIRCLE
  8
0
 10
396.54999999999995
 20
-769.5
 30
0.0
 40
1.0
  0
CIRCLE
  8
0
 10
412.21
 20
-769.5
 30
0.0
 40
1.0
  0
CIRCLE
  8
0
 10
427.86999999999995
 20
-769.5
 30
0.0
 40
1.0
  0
CIRCLE
  8
0
 10
443.53
 20
-769.5
 30
0.0
 40
1.0
  0
CIRCLE
  8
0
 10
357.4
 20
-773.85
 30
0.0
 40
1.0
  0
CIRCLE
  8
0
 10
373.05999999999995
 20
-773.85
 30
0.0
 40
1.0
  0
CIRCLE
  8
0
 10
388.71999999999997
 20
-773.85
 30
0.0
 40
1.0
  0
CIRCLE
  8
0
 10
404.37999999999994
 20
-773.85
 30
0.0
 40
1.0
  0
CIRCLE
  8
0
 10
420.03999999999996
 20
-773.85
 30
0.0
 40
1.0
  0
CIRCLE
  8
0
 10
435.69999999999993
 20
-773.85
 30
0.0
 40
1.0
  0
CIRCLE
  8
0
 10
349.57
 20
-778.1999999999999
 30
0.0
 40
1.0
  0
CIRCLE
  8
0
 10
365.22999999999996
 20
-778.1999999999999
 30
0.0
 40
1.0
  0
CIRCLE
  8
0
 10
380.89
 20
-778.1999999999999
 30
0.0
 40
1.0
  0
CIRCLE
  8
0
 10
396.54999999999995
 20
-778.1999999999999
 30
0.0
 40
1.0
  0
CIRCLE
  8
0
 10
412.21
 20
-778.1999999999999
 30
0.0
 40
1.0
  0
CIRCLE
  8
0
 10
427.86999999999995
 20
-778.1999999999999
 30
0.0
 40
1.0
  0
CIRCLE
  8
0
 10
357.4
 20
-782.55
 30
0.0
 40
1.0
  0
CIRCLE
  8
0
 10
373.05999999999995
 20
-782.55
 30
0.0
 40
1.0
  0
CIRCLE
  8
0
 10
388.71999999999997
 20
-782.55
 30
0.0
 40
1.0
  0
CIRCLE
  8
0
 10
404.37999999999994
 20
-782.55
 30
0.0
 40
1.0
  0
CIRCLE
  8
0
 10
420.03999999999996
 20
-782.55
 30
0.0
 40
1.0
  0
CIRCLE
  8
0
 10
365.22999999999996
 20
-786.9
 30
0.0
 40
1.0
  0
CIRCLE
  8
0
 10
380.89
 20
-786.9
 30
0.0
 40
1.0
  0
CIRCLE
  8
0
 10
396.54999999999995
 20
-786.9
 30
0.0
 40
1.0
  0
CIRCLE
  8
0
 10
412.21
 20
-786.9
 30
0.0
 40
1.0
  0
CIRCLE
  8
0
 10
357.4
 20
-791.25
 30
0.0
 40
1.0
  0
CIRCLE
  8
0
 10
373.05999999999995
 20
-791.25
 30
0.0
 40
1.0
  0
CIRCLE
  8
0
 10
388.71999999999997
 20
-791.25
 30
0.0
 40
1.0
  0
CIRCLE
  8
0
 10
404.37999999999994
 20
-791.25
 30
0.0
 40
1.0
  0
CIRCLE
  8
0
 10
380.89
 20
-795.6
 30
0.0
 40
1.0
  0
CIRCLE
  8
0
 10
396.54999999999995
 20
-795.6
 30
0.0
 40
1.0
  0
CIRCLE
  8
0
 10
388.71999999999997
 20
-799.9499999999999
 30
0.0
 40
1.0
  0
ENDSEC
  0
EOF
